<svg version="1.2" baseProfile="tiny-ps" xmlns="http://www.w3.org/2000/svg" viewBox="0 0 1366 768" width="300" height="169">
	<title>IAS STUDY HUB logo-ai</title>
	<style>
		tspan { white-space:pre }
		.shp0 { display: none;fill: #f2f2f2 } 
		.shp1 { fill: #ff5722 } 
		.shp2 { fill: #ffffff } 
		.shp3 { fill: #5b5c63 } 
	</style>
	<g id="Layer 1">
		<path id="&lt;Path&gt;" class="shp0" d="M1366 768L0 768L0 0L1366 0L1366 768Z" />
		<g id="&lt;Group&gt;">
			<g id="&lt;Group&gt;">
				<path id="&lt;Path&gt;" class="shp1" d="M893.5 744L424.5 744C370.1 744 326 696.32 326 637.51L326 130.49C326 71.68 370.1 24 424.5 24L893.5 24C947.9 24 992 71.68 992 130.49L992 637.51C992 696.32 947.9 744 893.5 744Z" />
				<path id="&lt;Path&gt;" class="shp2" d="M704.05 573.04L623.12 573.04L590.21 612.78L590.21 180.89C590.21 166.72 600.84 155.22 613.95 155.22L704.05 155.22C717.16 155.22 727.79 166.72 727.79 180.89L727.79 547.37C727.79 561.55 717.16 573.04 704.05 573.04Z" />
				<g id="&lt;Group&gt;">
					<path id="&lt;Path&gt;" class="shp1" d="M624.94 528.19L616.75 528.19C615.16 528.19 613.87 526.79 613.87 525.07L613.87 237C613.87 235.28 615.16 233.88 616.75 233.88L624.94 233.88C626.53 233.88 627.82 235.28 627.82 237L627.82 525.07C627.82 526.79 626.53 528.19 624.94 528.19Z" />
					<path id="&lt;Path&gt;" class="shp1" d="M700.6 499.65L692.42 499.65C690.83 499.65 689.53 498.25 689.53 496.53L689.53 237C689.53 235.28 690.83 233.88 692.42 233.88L700.6 233.88C702.2 233.88 703.49 235.28 703.49 237L703.49 496.53C703.49 498.25 702.2 499.65 700.6 499.65Z" />
					<path id="&lt;Path&gt;" class="shp1" d="M663.7 468.57L655.52 468.57C653.92 468.57 652.63 467.18 652.63 465.45L652.63 254.6C652.63 252.88 653.92 251.48 655.52 251.48L663.7 251.48C665.29 251.48 666.58 252.88 666.58 254.6L666.58 465.45C666.58 467.18 665.29 468.57 663.7 468.57Z" />
				</g>
			</g>
		</g>
		<g id="&lt;Group&gt;" style="display: none">
			<g id="&lt;Group&gt;">
				<g id="&lt;Group&gt;">
					<path id="&lt;Compound Path&gt;" class="shp3" d="M491 222.71L523.5 222.7C540.3 222.69 548.7 232.39 548.72 251.79L548.82 418.4L510.58 418.42C497.6 418.42 491.11 411.5 491.11 397.64L491 222.71Z" />
				</g>
			</g>
			<g id="&lt;Group&gt;">
				<g id="&lt;Group&gt;">
					<path id="&lt;Compound Path&gt;" class="shp3" d="M997.03 227.26L1158.13 227.18L1158.32 247.26C1158.33 264.46 1148.36 273.07 1128.44 273.08L1013.56 273.13C1003.37 273.14 998.27 276.63 998.28 283.61L998.28 291.64C998.28 297.95 1003.85 301.1 1014.97 301.09L1105.52 301.05C1142.47 301.03 1160.96 316.32 1160.98 346.9L1161 375.58C1161.02 407.12 1142.55 422.91 1105.59 422.92L942.92 423L942.91 403.07C942.9 386.53 952.33 378.26 971.22 378.25L1082.45 378.2C1094.15 378.19 1100 374.08 1099.99 365.86L1099.99 358.12C1099.98 349.9 1093.95 345.79 1081.91 345.8L991.54 345.84C955.39 345.86 937.3 332.29 937.29 305.14L937.27 276.47C937.25 243.68 957.17 227.28 997.03 227.26Z" />
				</g>
			</g>
			<g id="&lt;Group&gt;">
				<g id="&lt;Group&gt;">
					<g id="&lt;Group&gt;">
						<path id="&lt;Compound Path&gt;" class="shp3" d="M502.9 436L558.57 436.29L558.57 445.84C558.52 454.03 555.05 458.1 548.17 458.07L508.46 457.86C504.94 457.84 503.17 459.49 503.15 462.81L503.12 466.63C503.1 469.63 505.02 471.15 508.86 471.16L540.15 471.33C552.92 471.39 559.27 478.7 559.17 493.26L559.09 506.9C558.99 521.91 552.56 529.38 539.79 529.31L483.57 529.02L483.63 519.54C483.68 511.67 486.96 507.75 493.49 507.79L531.93 507.99C535.98 508.01 538.01 506.06 538.04 502.15L538.06 498.47C538.08 494.56 536.01 492.59 531.85 492.57L500.62 492.41C488.12 492.34 481.92 485.85 482 472.94L482.09 459.29C482.19 443.69 489.12 435.93 502.9 436Z" />
					</g>
				</g>
				<g id="&lt;Group&gt;">
					<g id="&lt;Group&gt;">
						<path id="&lt;Compound Path&gt;" class="shp3" d="M575.92 436.38L630.52 436.66C637.65 436.7 641.19 439.54 641.16 445.17L641.07 459.43L617.7 459.31L617.26 529.71L605.12 529.65C600.16 529.63 597.7 525.57 597.75 517.47L598.12 459.21L585.09 459.14C578.88 459.11 575.79 456.98 575.82 452.75L575.92 436.38Z" />
					</g>
				</g>
				<g id="&lt;Group&gt;">
					<g id="&lt;Group&gt;">
					</g>
					<path id="&lt;Compound Path&gt;" class="shp3" d="M733.91 451.04L733.65 492.04C733.57 504.32 730.11 513.88 723.26 520.71C716.41 527.54 706.65 530.93 694 530.86C682.15 530.8 673.24 527.22 667.28 520.11C661.32 513.01 658.37 504 658.44 493.09L658.8 436.81L670.57 436.87C676.38 436.9 679.25 441.3 679.2 450.08L678.97 486.64C678.94 491.06 679.22 494.42 679.8 496.75C680.9 501.16 682.97 504.33 686.02 506.26C689.07 508.19 692.48 509.16 696.24 509.18C700.21 509.2 703.81 508.26 707.04 506.37C710.28 504.48 712.21 500.62 712.85 494.8C713.06 492.71 713.18 490.05 713.2 486.82L713.52 437.09L725.29 437.15C731.09 437.18 733.97 441.81 733.91 451.04Z" />
				</g>
				<g id="&lt;Group&gt;">
					<g id="&lt;Group&gt;">
						<path id="&lt;Compound Path&gt;" fill-rule="evenodd" class="shp3" d="M753.57 437.3L788.34 437.48C797.03 437.52 803.75 438.53 808.51 440.51C814.7 443.09 819.32 446.96 822.37 452.12C824.9 456.31 826.75 462.1 827.9 469.47C828.75 474.66 829.16 479.64 829.13 484.42C829.08 492.83 827.97 500.76 825.8 508.21C823.63 515.84 820.05 521.44 815.06 525.01C810.63 528.17 805.32 529.94 799.11 530.31C795.9 530.53 792.12 530.62 787.75 530.6L763.31 530.47C756.42 530.43 753 526.21 753.06 517.8L753.57 437.3ZM773.91 459.1L773.6 508.83L789.03 508.91C795.8 508.94 800.51 507.38 803.18 504.21C804.55 502.53 805.68 500.31 806.58 497.54C807.93 493.45 808.62 489 808.65 484.18C808.69 478.08 807.74 472.8 805.81 468.33C804.11 464.46 801.56 461.83 798.17 460.45C796.05 459.62 793.11 459.2 789.35 459.18L773.91 459.1Z" />
					</g>
				</g>
				<g id="&lt;Group&gt;">
					<g id="&lt;Group&gt;">
						<path id="&lt;Compound Path&gt;" class="shp3" d="M892.41 497.09L892.19 531.14L878.98 531.07C874.49 531.04 872.27 527.74 872.32 521.14L872.49 493.44L843.77 437.76L867.5 437.89L883.44 471.6L899.81 438.05L923.54 438.18L892.41 497.09Z" />
					</g>
				</g>
				<g id="&lt;Group&gt;">
					<g id="&lt;Group&gt;">
						<path id="&lt;Compound Path&gt;" class="shp3" d="M991.38 496.24L991.16 531.65L978.54 531.58C973.62 531.56 971.18 527.86 971.23 520.49L971.75 438.42L983.16 438.48C988.88 438.51 991.73 441.32 991.69 446.92L991.52 473.87L1032.49 474.08L1032.71 438.74L1044.36 438.8C1049.73 438.83 1052.39 442.28 1052.34 449.14L1051.82 531.96L1039.21 531.9C1034.48 531.87 1032.14 528.84 1032.18 522.79L1032.34 496.45L991.38 496.24Z" />
					</g>
				</g>
				<g id="&lt;Group&gt;">
					<g id="&lt;Group&gt;">
						<path id="&lt;Compound Path&gt;" class="shp3" d="M1147.51 453.18L1147.25 494.18C1147.17 506.46 1143.71 516.02 1136.86 522.85C1130.01 529.68 1120.26 533.07 1107.6 533C1095.75 532.94 1086.85 529.36 1080.88 522.25C1074.92 515.15 1071.98 506.14 1072.05 495.23L1072.4 438.95L1084.17 439.01C1089.98 439.04 1092.86 443.44 1092.8 452.22L1092.57 488.78C1092.54 493.19 1092.82 496.56 1093.41 498.88C1094.5 503.3 1096.57 506.47 1099.62 508.4C1102.67 510.32 1106.08 511.3 1109.84 511.32C1113.81 511.34 1117.41 510.4 1120.64 508.51C1123.88 506.61 1125.82 502.76 1126.45 496.94C1126.67 494.85 1126.78 492.19 1126.8 488.96L1127.12 439.23L1138.89 439.29C1144.7 439.32 1147.57 443.95 1147.51 453.18Z" />
					</g>
				</g>
				<g id="&lt;Group&gt;">
					<g id="&lt;Group&gt;">
						<path id="&lt;Compound Path&gt;" fill-rule="evenodd" class="shp3" d="M1227.96 486.28C1233.87 488.49 1236.8 493.35 1236.76 500.85L1236.7 510.4C1236.6 525.41 1230.15 532.88 1217.33 532.82L1171.45 532.58C1166.6 532.55 1164.2 529.34 1164.24 522.92L1164.77 439.42L1219 439.7C1231.09 440.18 1237.09 447.71 1237 462.31L1236.94 471.86C1236.89 479.36 1233.9 484.17 1227.96 486.28ZM1209.53 475.47C1213.73 475.49 1215.85 473.55 1215.87 469.64L1215.88 467.45C1215.91 463.54 1213.9 461.58 1209.86 461.55L1184.57 461.42L1184.48 475.34L1209.53 475.47ZM1184.35 496.83L1184.25 511.09L1209.54 511.22C1213.58 511.24 1215.62 509.3 1215.64 505.38L1215.66 502.86C1215.69 498.95 1213.6 496.98 1209.39 496.96L1184.35 496.83Z" />
					</g>
				</g>
			</g>
			<g id="&lt;Group&gt;">
				<path id="&lt;Path&gt;" class="shp1" d="M797.83 245.92C789.27 230.77 770.65 220.99 750.39 221L717.84 221.02L838.43 418.5L838.6 418.79L903.67 418.76L797.83 245.92Z" />
				<path id="&lt;Path&gt;" class="shp1" d="M637.14 349L666.96 346.03L720.44 258.91C723.43 254.02 723.63 248.33 720.96 243.31L713.18 228.66L637.7 348.11L637.14 349Z" />
				<path id="&lt;Path&gt;" class="shp1" d="M762.5 336.97C762.32 336.97 745.04 336.41 740.64 334.96C736.22 333.5 697.93 310.87 697.54 310.64L696.93 310.28L677.52 342.2C669.4 356.11 646.33 354.33 646.01 354.3C638.81 354.44 633.38 356.08 629.87 359.18C625.62 362.94 625.82 367.44 625.83 367.63L625.86 368.13L775.69 368.06L762.94 336.99L762.5 336.97Z" />
				<path id="&lt;Path&gt;" class="shp1" d="M609.97 365.59C612.97 365.59 618.62 364.11 624.3 354.71L649.3 315.1L649.64 314.57L648.96 314.36C648.8 314.31 644.79 313.1 639.15 314.35C634.03 315.49 626.53 319.01 619.96 329.27L603.17 356.26C603.08 356.39 600.94 359.3 602.24 361.95C603.04 363.58 604.95 364.71 607.78 365.28C607.89 365.32 608.69 365.59 609.97 365.59Z" />
				<path id="&lt;Path&gt;" class="shp1" d="M622.09 375.37C621.94 375.53 607.19 392.37 606.58 416.25C606.55 417.32 607.27 418.25 608.46 418.68C608.87 418.83 609.29 418.9 609.72 418.9C610.48 418.9 611.22 418.66 611.81 418.2C617.59 413.65 628.03 404.81 633.08 396.66L647.11 375.14L622.28 375.15L622.09 375.37Z" />
			</g>
		</g>
	</g>
</svg>