<svg version="1.2" baseProfile="tiny-ps" xmlns="http://www.w3.org/2000/svg" viewBox="0 0 1366 768" width="200" height="112">
	<title>IAS STUDY HUB logo-ai</title>
	<style>
		tspan { white-space:pre }
		.shp0 { display: none;fill: #f2f2f2 } 
		.shp1 { fill: #3f414b } 
		.shp2 { fill: #ff5722 } 
		.shp3 { fill: #ffffff } 
	</style>
	<g id="Layer 1">
		<path id="&lt;Path&gt;" class="shp0" d="M1366 768L0 768L0 0L1366 0L1366 768Z" />
		<g id="&lt;Group&gt;">
			<g id="&lt;Group&gt;">
				<g id="&lt;Group&gt;">
					<g id="&lt;Group&gt;">
						<path id="&lt;Compound Path&gt;" class="shp1" d="M618.82 262.82L638.93 262.82C649.33 262.82 654.53 269.67 654.53 283.38L654.53 401.09L630.87 401.09C622.84 401.09 618.82 396.2 618.82 386.41L618.82 262.82Z" />
					</g>
				</g>
				<g id="&lt;Group&gt;">
					<g id="&lt;Group&gt;">
						<path id="&lt;Compound Path&gt;" class="shp1" d="M931.97 262.82L1031.66 262.82L1031.77 277C1031.77 289.16 1025.6 295.23 1013.27 295.23L942.18 295.23C935.87 295.23 932.72 297.7 932.72 302.63L932.72 308.3C932.72 312.76 936.16 314.99 943.04 314.99L999.08 314.99C1021.95 314.99 1033.38 325.79 1033.38 347.4L1033.38 367.66C1033.38 389.95 1021.95 401.09 999.08 401.09L898.41 401.09L898.41 387.01C898.41 375.33 904.25 369.49 915.94 369.49L984.77 369.49C992.01 369.49 995.63 366.59 995.63 360.78L995.63 355.31C995.63 349.5 991.91 346.59 984.45 346.59L928.52 346.59C906.15 346.59 894.97 337.01 894.97 317.82L894.97 297.56C894.97 274.4 907.3 262.82 931.97 262.82Z" />
					</g>
				</g>
				<g id="&lt;Group&gt;">
					<g id="&lt;Group&gt;">
						<g id="&lt;Group&gt;">
							<path id="&lt;Compound Path&gt;" class="shp1" d="M617.52 436.64L649.1 436.64L649.13 441.13C649.13 444.98 647.18 446.91 643.27 446.91L620.75 446.91C618.76 446.91 617.76 447.69 617.76 449.25L617.76 451.05C617.76 452.46 618.85 453.16 621.03 453.16L638.78 453.16C646.02 453.16 649.65 456.59 649.65 463.43L649.65 469.85C649.65 476.91 646.02 480.44 638.78 480.44L606.89 480.44L606.89 475.98C606.89 472.28 608.74 470.43 612.44 470.43L634.25 470.43C636.54 470.43 637.69 469.51 637.69 467.67L637.69 465.94C637.69 464.1 636.51 463.18 634.14 463.18L616.43 463.18C609.34 463.18 605.8 460.14 605.8 454.06L605.8 447.64C605.8 440.31 609.7 436.64 617.52 436.64Z" />
						</g>
					</g>
					<g id="&lt;Group&gt;">
						<g id="&lt;Group&gt;">
							<path id="&lt;Compound Path&gt;" class="shp1" d="M658.94 436.64L689.91 436.64C693.95 436.64 695.97 437.96 695.97 440.62L695.97 447.32L682.72 447.32L682.72 480.44L675.84 480.44C673.02 480.44 671.61 478.54 671.61 474.73L671.61 447.32L664.22 447.32C660.7 447.32 658.94 446.33 658.94 444.34L658.94 436.64Z" />
						</g>
					</g>
					<g id="&lt;Group&gt;">
						<g id="&lt;Group&gt;">
							<path id="&lt;Compound Path&gt;" class="shp1" d="M748.6 443.15L748.6 462.44C748.6 468.21 746.67 472.72 742.81 475.95C738.95 479.18 733.43 480.79 726.26 480.79C719.53 480.79 714.47 479.13 711.06 475.8C707.65 472.48 705.95 468.25 705.95 463.11L705.95 436.64L712.63 436.64C715.92 436.64 717.57 438.7 717.57 442.83L717.57 460.03C717.57 462.11 717.74 463.69 718.08 464.78C718.71 466.86 719.9 468.34 721.64 469.24C723.38 470.14 725.31 470.59 727.45 470.59C729.7 470.59 731.73 470.14 733.56 469.24C735.39 468.34 736.48 466.52 736.82 463.79C736.93 462.8 736.99 461.55 736.99 460.03L736.99 436.64L743.66 436.64C746.96 436.64 748.6 438.81 748.6 443.15Z" />
						</g>
					</g>
					<g id="&lt;Group&gt;">
						<g id="&lt;Group&gt;">
							<path id="&lt;Compound Path&gt;" fill-rule="evenodd" class="shp1" d="M759.71 436.64L779.43 436.64C784.36 436.64 788.17 437.1 790.88 438.02C794.4 439.22 797.03 441.02 798.78 443.44C800.24 445.41 801.3 448.13 801.98 451.59C802.48 454.03 802.73 456.37 802.73 458.62C802.73 462.58 802.13 466.31 800.93 469.82C799.72 473.41 797.71 476.05 794.9 477.74C792.4 479.24 789.39 480.09 785.87 480.28C784.05 480.39 781.91 480.44 779.43 480.44L765.56 480.44C761.66 480.44 759.71 478.46 759.71 474.5L759.71 436.64ZM771.32 446.84L771.32 470.24L780.08 470.24C783.92 470.24 786.59 469.49 788.08 467.99C788.86 467.2 789.49 466.15 789.99 464.84C790.74 462.92 791.12 460.82 791.12 458.55C791.12 455.69 790.56 453.21 789.45 451.11C788.47 449.29 787.02 448.06 785.09 447.42C783.88 447.03 782.21 446.84 780.08 446.84L771.32 446.84Z" />
						</g>
					</g>
					<g id="&lt;Group&gt;">
						<g id="&lt;Group&gt;">
							<path id="&lt;Compound Path&gt;" class="shp1" d="M838.67 464.43L838.67 480.44L831.18 480.44C828.63 480.44 827.36 478.89 827.36 475.79L827.36 462.76L810.87 436.64L824.33 436.64L833.49 452.46L842.66 436.64L856.11 436.64L838.67 464.43Z" />
						</g>
					</g>
					<g id="&lt;Group&gt;">
						<g id="&lt;Group&gt;">
							<path id="&lt;Compound Path&gt;" class="shp1" d="M894.81 463.79L894.81 480.44L887.65 480.44C884.86 480.44 883.46 478.71 883.46 475.24L883.46 436.64L889.93 436.64C893.18 436.64 894.81 437.95 894.81 440.58L894.81 453.26L918.04 453.26L918.04 436.64L924.65 436.64C927.69 436.64 929.22 438.25 929.22 441.48L929.22 480.44L922.06 480.44C919.38 480.44 918.04 479.02 918.04 476.17L918.04 463.79L894.81 463.79Z" />
						</g>
					</g>
					<g id="&lt;Group&gt;">
						<g id="&lt;Group&gt;">
							<path id="&lt;Compound Path&gt;" class="shp1" d="M983.21 443.15L983.21 462.44C983.21 468.21 981.28 472.72 977.42 475.95C973.56 479.18 968.04 480.79 960.86 480.79C954.14 480.79 949.07 479.13 945.67 475.8C942.26 472.48 940.56 468.25 940.56 463.11L940.56 436.64L947.23 436.64C950.53 436.64 952.17 438.7 952.17 442.83L952.17 460.03C952.17 462.11 952.34 463.69 952.68 464.78C953.32 466.86 954.51 468.34 956.24 469.24C957.98 470.14 959.92 470.59 962.05 470.59C964.3 470.59 966.34 470.14 968.17 469.24C970 468.34 971.08 466.52 971.42 463.79C971.53 462.8 971.59 461.55 971.59 460.03L971.59 436.64L978.27 436.64C981.56 436.64 983.21 438.81 983.21 443.15Z" />
						</g>
					</g>
					<g id="&lt;Group&gt;">
						<g id="&lt;Group&gt;">
							<path id="&lt;Compound Path&gt;" fill-rule="evenodd" class="shp1" d="M1028.96 458.52C1032.32 459.55 1034 461.83 1034 465.36L1034 469.85C1034 476.91 1030.37 480.44 1023.1 480.44L997.07 480.44C994.32 480.44 992.95 478.93 992.95 475.92L992.95 436.64L1023.71 436.64C1030.57 436.83 1034 440.36 1034 447.23L1034 451.72C1034 455.25 1032.32 457.52 1028.96 458.52ZM1018.46 453.48C1020.85 453.48 1022.04 452.56 1022.04 450.72L1022.04 449.7C1022.04 447.86 1020.89 446.94 1018.6 446.94L1004.26 446.94L1004.26 453.48L1018.46 453.48ZM1004.26 463.59L1004.26 470.3L1018.6 470.3C1020.89 470.3 1022.04 469.38 1022.04 467.54L1022.04 466.35C1022.04 464.51 1020.85 463.59 1018.46 463.59L1004.26 463.59Z" />
						</g>
					</g>
				</g>
				<g id="&lt;Group&gt;">
					<path id="&lt;Path&gt;" class="shp2" d="M808.69 279.32C803.4 268.61 791.88 261.7 779.34 261.7L759.2 261.7L833.75 401.26L833.86 401.47L874.12 401.47L808.69 279.32Z" />
					<path id="&lt;Path&gt;" class="shp2" d="M709.21 352.09L727.67 350.01L760.79 288.47C762.65 285.02 762.77 281 761.12 277.45L756.31 267.1L709.56 351.46L709.21 352.09Z" />
					<path id="&lt;Path&gt;" class="shp2" d="M786.79 343.64C786.68 343.63 775.99 343.23 773.27 342.21C770.53 341.18 746.84 325.17 746.6 325.01L746.23 324.76L734.2 347.3C729.17 357.12 714.9 355.86 714.7 355.84C710.24 355.94 706.88 357.09 704.71 359.28C702.08 361.94 702.2 365.12 702.21 365.25L702.22 365.61L794.94 365.61L787.07 343.65L786.79 343.64Z" />
					<path id="&lt;Path&gt;" class="shp2" d="M692.39 363.81C694.25 363.81 697.74 362.76 701.27 356.12L716.75 328.15L716.96 327.77L716.54 327.62C716.44 327.59 713.96 326.73 710.47 327.61C707.3 328.42 702.66 330.9 698.59 338.14L688.19 357.21C688.13 357.3 686.8 359.36 687.61 361.23C688.11 362.38 689.28 363.18 691.04 363.58C691.1 363.61 691.6 363.81 692.39 363.81Z" />
					<path id="&lt;Path&gt;" class="shp2" d="M699.89 370.72C699.8 370.83 690.66 382.73 690.27 399.59C690.26 400.35 690.7 401.01 691.44 401.31C691.69 401.42 691.95 401.47 692.22 401.47C692.69 401.47 693.15 401.3 693.51 400.97C697.09 397.76 703.55 391.52 706.68 385.76L715.37 370.56L700.01 370.56L699.89 370.72Z" />
				</g>
			</g>
			<g id="&lt;Group&gt;">
				<path id="&lt;Path&gt;" class="shp2" d="M555.27 475L413.73 475C397.31 475 384 461.03 384 443.79L384 295.21C384 277.97 397.31 264 413.73 264L555.27 264C571.69 264 585 277.97 585 295.21L585 443.79C585 461.03 571.69 475 555.27 475Z" />
				<path id="&lt;Path&gt;" class="shp3" d="M498.1 424.9L473.67 424.9L463.74 436.54L463.74 309.98C463.74 305.82 466.95 302.46 470.9 302.46L498.1 302.46C502.05 302.46 505.26 305.82 505.26 309.98L505.26 417.38C505.26 421.53 502.05 424.9 498.1 424.9Z" />
				<g id="&lt;Group&gt;">
					<path id="&lt;Path&gt;" class="shp2" d="M474.22 406.76L471.75 406.76C471.27 406.76 470.88 406.35 470.88 405.84L470.88 321.42C470.88 320.92 471.27 320.51 471.75 320.51L474.22 320.51C474.7 320.51 475.09 320.92 475.09 321.42L475.09 405.84C475.09 406.35 474.7 406.76 474.22 406.76Z" />
					<path id="&lt;Path&gt;" class="shp2" d="M497.06 398.39L494.59 398.39C494.11 398.39 493.72 397.98 493.72 397.48L493.72 321.42C493.72 320.92 494.11 320.51 494.59 320.51L497.06 320.51C497.54 320.51 497.93 320.92 497.93 321.42L497.93 397.48C497.93 397.98 497.54 398.39 497.06 398.39Z" />
					<path id="&lt;Path&gt;" class="shp2" d="M485.92 389.28L483.45 389.28C482.97 389.28 482.58 388.88 482.58 388.37L482.58 326.58C482.58 326.07 482.97 325.67 483.45 325.67L485.92 325.67C486.4 325.67 486.79 326.07 486.79 326.58L486.79 388.37C486.79 388.88 486.4 389.28 485.92 389.28Z" />
				</g>
			</g>
		</g>
	</g>
</svg>