<svg version="1.2" baseProfile="tiny-ps" xmlns="http://www.w3.org/2000/svg" viewBox="0 0 1366 768" width="200" height="112">
	<title>IAS STUDY HUB logo-ai</title>
	<style>
		tspan { white-space:pre }
		.shp0 { display: none;fill: #f2f2f2 } 
		.shp1 { fill: #ff531d } 
		.shp2 { fill: #ff5621 } 
		.shp3 { fill: #5b5c63 } 
		.shp4 { fill: #ff5722 } 
		.shp5 { display: none;fill: #ff5722 } 
		.shp6 { display: none;fill: #ffffff } 
	</style>
	<g id="Layer 1">
		<path id="&lt;Path&gt;" class="shp0" d="M1366 768L0 768L0 0L1366 0L1366 768Z" />
		<g id="&lt;Group&gt;">
			<g id="&lt;Group&gt;">
				<g id="&lt;Group&gt;">
					<g id="&lt;Group&gt;">
						<path id="&lt;Compound Path&gt;" class="shp1" d="M65 288.43L80.62 288.42C88.69 288.41 92.73 296.53 92.74 312.76L92.79 452.15L74.41 452.17C68.17 452.17 65.05 446.38 65.05 434.78L65 288.43Z" />
					</g>
				</g>
				<g id="&lt;Group&gt;">
					<g id="&lt;Group&gt;">
						<path id="&lt;Compound Path&gt;" class="shp2" d="M308.19 292.24L385.62 292.17L385.71 308.97C385.72 323.36 380.93 330.56 371.35 330.57L316.14 330.62C311.24 330.62 308.79 333.54 308.8 339.38L308.8 346.1C308.8 351.38 311.47 354.01 316.82 354.01L360.33 353.97C378.1 353.96 386.98 366.75 386.99 392.34L387 416.33C387.01 442.72 378.13 455.92 360.37 455.94L282.19 456L282.19 439.33C282.18 425.49 286.72 418.57 295.79 418.56L349.25 418.52C354.87 418.51 357.68 415.07 357.68 408.19L357.68 401.72C357.68 394.84 354.78 391.4 348.99 391.41L305.56 391.44C288.18 391.46 279.49 380.11 279.48 357.4L279.48 333.41C279.47 305.98 289.04 292.25 308.19 292.24Z" />
					</g>
				</g>
				<g id="&lt;Group&gt;">
					<g id="&lt;Group&gt;">
						<g id="&lt;Group&gt;">
							<path id="&lt;Compound Path&gt;" class="shp3" d="M443.17 315L504.89 315.37L504.89 327.78C504.83 338.41 500.99 343.71 493.35 343.66L449.34 343.4C445.43 343.37 443.47 345.52 443.44 349.83L443.42 354.79C443.4 358.69 445.52 360.65 449.78 360.68L484.47 360.89C498.63 360.97 505.66 370.47 505.56 389.37L505.46 407.1C505.35 426.59 498.22 436.3 484.06 436.21L421.74 435.83L421.8 423.52C421.86 413.3 425.5 408.21 432.74 408.25L475.35 408.51C479.84 408.54 482.09 406.01 482.12 400.93L482.15 396.14C482.17 391.06 479.88 388.51 475.26 388.48L440.64 388.27C426.79 388.19 419.91 379.76 420 362.98L420.1 345.26C420.21 324.99 427.89 314.91 443.17 315Z" />
						</g>
					</g>
					<g id="&lt;Group&gt;">
						<g id="&lt;Group&gt;">
							<path id="&lt;Compound Path&gt;" class="shp3" d="M524.12 315.49L584.65 315.86C592.55 315.91 596.48 319.59 596.44 326.92L596.34 345.44L570.44 345.28L569.95 436.73L556.5 436.65C550.99 436.62 548.27 431.34 548.33 420.83L548.73 345.15L534.29 345.06C527.4 345.02 523.98 342.25 524.01 336.76L524.12 315.49Z" />
						</g>
					</g>
					<g id="&lt;Group&gt;">
						<g id="&lt;Group&gt;">
						</g>
						<path id="&lt;Compound Path&gt;" class="shp3" d="M699.27 334.54L698.98 387.8C698.9 403.75 695.06 416.16 687.46 425.04C679.87 433.91 669.05 438.31 655.03 438.22C641.89 438.14 632.01 433.49 625.41 424.26C618.8 415.04 615.53 403.33 615.61 389.15L616 316.05L629.05 316.13C635.49 316.17 638.68 321.89 638.62 333.29L638.36 380.79C638.33 386.52 638.64 390.89 639.29 393.91C640.5 399.64 642.8 403.76 646.18 406.27C649.56 408.77 653.34 410.03 657.51 410.06C661.91 410.08 665.9 408.87 669.48 406.41C673.07 403.95 675.22 398.94 675.92 391.38C676.16 388.67 676.29 385.21 676.31 381.02L676.66 316.41L689.71 316.49C696.15 316.53 699.34 322.55 699.27 334.54Z" />
					</g>
					<g id="&lt;Group&gt;">
						<g id="&lt;Group&gt;">
							<path id="&lt;Compound Path&gt;" fill-rule="evenodd" class="shp3" d="M721.06 316.68L759.62 316.92C769.25 316.98 776.7 318.29 781.97 320.86C788.83 324.21 793.95 329.24 797.34 335.93C800.15 341.39 802.19 348.9 803.47 358.48C804.41 365.22 804.87 371.69 804.83 377.89C804.77 388.83 803.54 399.13 801.14 408.8C798.73 418.71 794.76 425.98 789.23 430.62C784.33 434.72 778.43 437.02 771.55 437.51C768 437.79 763.8 437.91 758.96 437.88L731.86 437.71C724.23 437.67 720.44 432.18 720.5 421.25L721.06 316.68ZM743.62 345L743.27 409.6L760.38 409.7C767.88 409.75 773.11 407.71 776.06 403.6C777.58 401.42 778.84 398.53 779.84 394.93C781.33 389.63 782.09 383.84 782.13 377.58C782.17 369.66 781.12 362.81 778.98 357C777.09 351.97 774.27 348.55 770.51 346.76C768.16 345.68 764.9 345.13 760.73 345.1L743.62 345Z" />
						</g>
					</g>
					<g id="&lt;Group&gt;">
						<g id="&lt;Group&gt;">
							<path id="&lt;Compound Path&gt;" class="shp3" d="M874.98 394.36L874.74 438.58L860.1 438.49C855.12 438.46 852.66 434.16 852.71 425.6L852.9 389.62L821.06 317.29L847.37 317.45L865.04 361.24L883.19 317.67L909.49 317.83L874.98 394.36Z" />
						</g>
					</g>
					<g id="&lt;Group&gt;">
						<g id="&lt;Group&gt;">
							<path id="&lt;Compound Path&gt;" class="shp3" d="M984.71 393.25L984.46 439.24L970.47 439.16C965.01 439.13 962.31 434.32 962.36 424.75L962.94 318.15L975.59 318.23C981.94 318.26 985.09 321.92 985.05 329.18L984.86 364.19L1030.27 364.46L1030.52 318.56L1043.44 318.64C1049.39 318.67 1052.34 323.15 1052.29 332.07L1051.71 439.65L1037.72 439.57C1032.49 439.53 1029.89 435.59 1029.93 427.73L1030.12 393.53L984.71 393.25Z" />
						</g>
					</g>
					<g id="&lt;Group&gt;">
						<g id="&lt;Group&gt;">
							<path id="&lt;Compound Path&gt;" class="shp3" d="M1157.79 337.32L1157.51 390.58C1157.42 406.53 1153.58 418.94 1145.98 427.82C1138.39 436.69 1127.58 441.08 1113.55 441C1100.41 440.92 1090.54 436.27 1083.93 427.04C1077.32 417.82 1074.05 406.11 1074.13 391.93L1074.53 318.83L1087.58 318.9C1094.01 318.94 1097.2 324.67 1097.14 336.07L1096.88 383.56C1096.85 389.29 1097.16 393.67 1097.81 396.68C1099.02 402.42 1101.32 406.54 1104.7 409.04C1108.08 411.55 1111.86 412.81 1116.03 412.83C1120.43 412.86 1124.42 411.64 1128.01 409.19C1131.59 406.73 1133.74 401.72 1134.45 394.16C1134.68 391.44 1134.81 387.99 1134.84 383.79L1135.18 319.19L1148.24 319.27C1154.67 319.31 1157.86 325.33 1157.79 337.32Z" />
						</g>
					</g>
					<g id="&lt;Group&gt;">
						<g id="&lt;Group&gt;">
							<path id="&lt;Compound Path&gt;" fill-rule="evenodd" class="shp3" d="M1246.98 380.31C1253.53 383.18 1256.78 389.49 1256.73 399.24L1256.66 411.65C1256.56 431.14 1249.4 440.85 1235.2 440.76L1184.33 440.45C1178.95 440.42 1176.29 436.24 1176.34 427.91L1176.92 319.45L1237.05 319.81C1250.45 320.42 1257.1 330.21 1257 349.18L1256.93 361.58C1256.88 371.33 1253.56 377.57 1246.98 380.31ZM1226.54 366.27C1231.2 366.3 1233.55 363.77 1233.58 358.69L1233.59 355.86C1233.62 350.78 1231.39 348.22 1226.91 348.2L1198.87 348.03L1198.78 366.1L1226.54 366.27ZM1198.63 394.02L1198.53 412.54L1226.56 412.71C1231.04 412.73 1233.3 410.21 1233.33 405.13L1233.34 401.85C1233.37 396.77 1231.05 394.21 1226.39 394.18L1198.63 394.02Z" />
						</g>
					</g>
				</g>
				<g id="&lt;Group&gt;">
					<path id="&lt;Path&gt;" class="shp4" d="M212.46 307.85C208.35 295.18 199.4 286.99 189.66 287L174.02 287.01L231.97 452.23L232.06 452.48L263.33 452.45L212.46 307.85Z" />
					<path id="&lt;Path&gt;" class="shp4" d="M135.23 394.09L149.57 391.61L175.27 318.72C176.71 314.63 176.8 309.87 175.52 305.66L171.78 293.41L135.5 393.35L135.23 394.09Z" />
					<path id="&lt;Path&gt;" class="shp4" d="M195.48 384.03C195.4 384.02 187.09 383.55 184.98 382.34C182.85 381.12 164.45 362.19 164.26 362L163.97 361.7L154.64 388.4C150.74 400.03 139.65 398.55 139.5 398.53C136.04 398.64 133.43 400.01 131.74 402.61C129.7 405.75 129.79 409.52 129.8 409.67L129.81 410.1L201.82 410.04L195.69 384.04L195.48 384.03Z" />
					<path id="&lt;Path&gt;" class="shp4" d="M122.18 407.97C123.62 407.97 126.33 406.73 129.06 398.87L141.08 365.73L141.24 365.29L140.91 365.11C140.84 365.07 138.91 364.06 136.2 365.1C133.74 366.05 130.14 368.99 126.98 377.58L118.91 400.17C118.86 400.27 117.83 402.71 118.46 404.92C118.85 406.28 119.76 407.23 121.13 407.71C121.18 407.74 121.56 407.97 122.18 407.97Z" />
					<path id="&lt;Path&gt;" class="shp4" d="M128 416.15C127.93 416.29 120.84 430.38 120.55 450.35C120.53 451.24 120.88 452.02 121.45 452.38C121.65 452.51 121.85 452.57 122.05 452.57C122.42 452.57 122.78 452.37 123.06 451.98C125.84 448.18 130.86 440.78 133.28 433.96L140.03 415.96L128.09 415.97L128 416.15Z" />
				</g>
			</g>
			<g id="&lt;Group&gt;">
				<path id="&lt;Path&gt;" class="shp5" d="M555.27 475L413.73 475C397.31 475 384 461.03 384 443.79L384 295.21C384 277.97 397.31 264 413.73 264L555.27 264C571.69 264 585 277.97 585 295.21L585 443.79C585 461.03 571.69 475 555.27 475Z" />
				<path id="&lt;Path&gt;" class="shp6" d="M498.1 424.9L473.67 424.9L463.74 436.54L463.74 309.98C463.74 305.82 466.95 302.46 470.9 302.46L498.1 302.46C502.05 302.46 505.26 305.82 505.26 309.98L505.26 417.38C505.26 421.53 502.05 424.9 498.1 424.9Z" />
				<g id="&lt;Group&gt;" style="display: none">
					<path id="&lt;Path&gt;" class="shp4" d="M474.22 406.76L471.75 406.76C471.27 406.76 470.88 406.35 470.88 405.84L470.88 321.42C470.88 320.92 471.27 320.51 471.75 320.51L474.22 320.51C474.7 320.51 475.09 320.92 475.09 321.42L475.09 405.84C475.09 406.35 474.7 406.76 474.22 406.76Z" />
					<path id="&lt;Path&gt;" class="shp4" d="M497.06 398.39L494.59 398.39C494.11 398.39 493.72 397.98 493.72 397.48L493.72 321.42C493.72 320.92 494.11 320.51 494.59 320.51L497.06 320.51C497.54 320.51 497.93 320.92 497.93 321.42L497.93 397.48C497.93 397.98 497.54 398.39 497.06 398.39Z" />
					<path id="&lt;Path&gt;" class="shp4" d="M485.92 389.28L483.45 389.28C482.97 389.28 482.58 388.88 482.58 388.37L482.58 326.58C482.58 326.07 482.97 325.67 483.45 325.67L485.92 325.67C486.4 325.67 486.79 326.07 486.79 326.58L486.79 388.37C486.79 388.88 486.4 389.28 485.92 389.28Z" />
				</g>
			</g>
		</g>
	</g>
</svg>