<svg version="1.2" baseProfile="tiny-ps" xmlns="http://www.w3.org/2000/svg" viewBox="0 0 2559 1167" width="200" height="91">
	<title>IAS STUDY HUB-ai</title>
	<style>
		tspan { white-space:pre }
		.shp0 { fill: #78808d } 
		.shp1 { fill: #3b474c } 
		.shp2 { fill: #ff4d00 } 
		.shp3 { fill: #ffffff;stroke: #ffffff;stroke-width: 7 } 
	</style>
	<g id="Layer 1">
		<path id="&lt;Compound Path&gt;" class="shp0" d="M2905.15 1094.23L2905.15 1109.06L2893.45 1109.06L2893.45 1094.05L2877.68 1067.71L2890.03 1067.71L2899.83 1084.13L2909.64 1067.71L2920.98 1067.71L2905.15 1094.23Z" />
		<path id="STUDY HUB " fill="#3b474c" aria-label="STUDY HUB"  d="M236.18 988.75Q223.75 988.75 209.76 985.31Q195.78 981.88 183.34 975.93L183.34 946.62Q212.21 962.65 234.85 962.65Q246.17 962.65 253.05 957.61Q260.16 952.57 260.16 943.42Q260.16 937.01 256.16 932.66Q252.39 928.08 246.62 925.33Q240.84 922.35 230.19 918.23Q215.76 912.74 206.66 907.7Q197.55 902.66 191.12 893.51Q184.68 884.12 184.68 869.47Q184.68 847.94 199.11 836.04Q213.54 823.91 238.62 823.91Q250.39 823.91 261.71 826.65Q273.04 829.17 282.58 834.21L282.58 862.83Q260.16 850.01 239.29 850.01Q227.75 850.01 221.09 854.36Q214.65 858.48 214.65 866.26Q214.65 874.04 221.31 878.62Q228.19 882.97 242.4 888.24Q257.27 893.96 266.82 899.23Q276.37 904.49 283.25 914.57Q290.35 924.41 290.8 940.21Q290.8 962.88 275.92 975.93Q261.05 988.75 236.18 988.75ZM363.84 986L363.84 854.36L319.88 854.36L319.88 826.65L437.1 826.65L437.1 854.36L393.14 854.36L393.14 986L363.84 986ZM536.11 988.75Q505.25 988.75 487.72 970.43Q470.18 952.12 470.18 920.06L470.18 826.65L499.48 826.65L499.48 919.38Q499.48 941.36 509.03 951.89Q518.57 962.19 536.11 962.19Q553.87 962.19 563.2 951.66Q572.74 940.9 572.74 919.38L572.74 826.65L602.05 826.65L602.05 920.06Q602.05 952.12 584.51 970.43Q566.97 988.75 536.11 988.75ZM702.62 826.65Q726.37 826.65 743.47 836.5Q760.56 846.11 769.44 864.2Q778.32 882.06 778.32 906.33Q778.32 930.59 769.44 948.68Q760.56 966.54 743.47 976.38Q726.37 986 702.62 986L645.56 986L645.56 826.65L702.62 826.65ZM702.62 959.21Q723.71 959.21 735.47 945.71Q747.46 932.2 747.46 906.33Q747.46 880.46 735.47 866.95Q723.71 853.44 702.62 853.44L674.87 853.44L674.87 959.21L702.62 959.21ZM896.43 826.65L926.62 826.65L870.45 931.05L870.45 986L841.15 986L841.15 931.05L784.98 826.65L816.28 826.65L856.02 904.04L896.43 826.65ZM1116.66 826.65L1145.96 826.65L1145.96 986L1116.66 986L1116.66 915.94L1043.4 915.94L1043.4 986L1014.09 986L1014.09 826.65L1043.4 826.65L1043.4 889.16L1116.66 889.16L1116.66 826.65ZM1255.41 988.75Q1224.55 988.75 1207.02 970.43Q1189.48 952.12 1189.48 920.06L1189.48 826.65L1218.78 826.65L1218.78 919.38Q1218.78 941.36 1228.33 951.89Q1237.87 962.19 1255.41 962.19Q1273.17 962.19 1282.5 951.66Q1292.04 940.9 1292.04 919.38L1292.04 826.65L1321.35 826.65L1321.35 920.06Q1321.35 952.12 1303.81 970.43Q1286.27 988.75 1255.41 988.75ZM1457.22 903.12Q1469.21 908.39 1475.42 918Q1481.64 927.62 1481.64 941.36Q1481.64 963.11 1466.32 974.55Q1451 986 1421.92 986L1364.86 986L1364.86 826.65L1424.58 826.65Q1449.67 826.65 1463.21 837.64Q1476.75 848.4 1476.75 868.55Q1476.75 892.59 1457.22 903.12ZM1422.14 853.21L1394.17 853.21L1394.17 891.22L1421.92 891.22Q1433.91 891.22 1439.9 886.18Q1445.89 881.14 1445.89 871.53Q1445.89 860.99 1440.57 857.1Q1435.46 853.21 1422.14 853.21ZM1421.92 959.21Q1437.68 959.21 1444.12 954.63Q1450.78 949.83 1450.78 938.38Q1450.78 927.62 1443.67 922.58Q1436.79 917.54 1422.14 917.54L1394.17 917.54L1394.17 959.21L1421.92 959.21Z" />
		<path id="&lt;Path&gt;" class="shp1" d="M637.89 751.61C674.06 711.79 704.95 676.23 737.88 642.79C744.7 635.86 759.05 634.59 769.95 634.52C874.81 633.93 979.69 634.45 1084.55 633.68C1094.67 633.61 1104.74 627.06 1114.84 623.52C1108.99 613.9 1104.61 602.73 1096.93 595.07C1087.29 585.46 1074.69 579.08 1063.82 570.69C1026.18 541.61 997.44 506.58 1007.85 454.24C1019.03 397.98 1054.53 361.29 1108.31 349.67C1142.01 342.4 1177.71 344.38 1212.55 343.46C1246.4 342.57 1280.3 343.27 1318.31 343.27C1308.29 384.5 1298.99 422.77 1289.08 463.56C1251.37 463.56 1214.62 463.1 1177.9 463.92C1170.17 464.1 1162.55 468.99 1154.89 471.71C1159.11 479.92 1161.58 490.17 1167.9 495.94C1185.3 511.82 1205.24 524.76 1222.5 540.78C1256.82 572.62 1273.35 611.68 1259.03 659.35C1243.97 709.5 1211.04 740.65 1160.61 750.68C1150.19 752.75 1139.37 753.49 1128.74 753.5C973.38 753.69 818.02 753.65 662.66 753.59C656.94 753.59 651.22 752.71 637.89 751.61Z" />
		<path id="&lt;Path&gt;" class="shp2" d="M961.14 347.51C961.14 433.26 961.14 515.78 961.14 600.2C915.89 600.2 871.91 600.2 825.63 600.2C825.63 568.74 825.63 539 825.63 502.21C815.24 511.99 809.07 517.07 803.72 522.96C739.32 593.82 675.55 665.3 610.19 735.19C600.83 745.19 584.14 752.2 570.5 752.83C524.16 754.98 477.67 753.66 425.96 753.66C432.39 745.36 435.37 740.94 438.9 737.04C550.95 613.45 662.73 489.58 775.73 366.92C785.48 356.34 803.22 349.07 817.62 348.37C864.83 346.07 912.21 347.51 961.14 347.51Z" />
		<path id="&lt;Path&gt;" class="shp1" d="M483.27 343.68L605.73 343.68L564.91 552.76L386.78 737.87L483.27 343.68Z" />
		<path id="&lt;Compound Path&gt;" fill-rule="evenodd" class="shp3" d="M1098.17 102.08L1346.86 120.81C1353.26 121.24 1365.96 127.98 1373.31 135.65L1541.87 305.73C1549.54 312.69 1550.11 318.9 1543.03 318.16L1334.11 302.62C1325.35 301.94 1295.64 298.33 1288.62 299.32C1265.21 302.03 1254.99 332.96 1280.48 340.56L1519.11 359.71C1524.83 359.82 1525.47 367.76 1518.39 367.02L1269.69 348.29L1418.99 368.39L1388.44 438.3C1374.38 474.24 1290.05 465.63 1222.98 434.46C1152.8 401 1081.54 339.85 1098.27 303.45L1133.45 222.96L1127.15 216.64C1135.41 212.82 1144.72 210.36 1156.15 210.57L1318.21 222.18C1337.72 222.75 1335.9 193.02 1318.37 191.67C1323.78 192.48 1326.65 197.21 1326.85 202.4C1326.06 207.98 1321.85 211.97 1316.13 211.86L1154.07 200.26C1138.6 199.87 1126.99 203.82 1116.89 211.86C1107.78 219.52 1099.18 231.67 1089.1 249.07C1091.97 253.8 1092.55 260.02 1090.08 265.67C1087.92 270.61 1083.71 274.6 1078.37 275.52C1073.88 289.57 1062.98 303.19 1045 316.08C1029.64 309.78 1020.23 301.17 1014.73 289.26C1020.38 287.64 1024.97 284.68 1029.87 281.01C1024.59 283.65 1018.57 284.25 1012.85 284.14C1011.72 281.07 1011.59 277.61 1010.46 274.54C1023.2 273.66 1038.09 267.84 1055.83 257.39C1056.07 254.96 1056.31 252.52 1057.24 250.4C1060.01 244.05 1065.59 240.7 1071.93 239.39C1082.93 219.87 1092.45 205.61 1104.85 196.08C1105.16 195.37 1105.16 195.37 1105.47 194.66L1074.37 164.08C1054.06 142.74 1075.24 99.92 1098.17 102.08ZM1526.53 325.78C1529.88 325.64 1530.08 330.83 1526.04 330.65L1291.15 312.38L1293.31 307.44L1526.53 325.78ZM1521.9 336.37C1525.25 336.23 1525.45 341.42 1521.42 341.24L1286.52 322.97L1288.68 318.03L1521.9 336.37ZM1517.27 346.96C1520.63 346.82 1520.83 352.01 1516.79 351.83L1281.89 333.57L1284.05 328.62L1517.27 346.96Z" />
		<path id="&lt;Compound Path&gt;" fill-rule="evenodd" class="shp2" d="M1098.17 102.08L1346.86 120.81C1353.26 121.24 1365.96 127.98 1373.31 135.65L1541.87 305.73C1549.54 312.69 1550.11 318.9 1543.03 318.16L1334.11 302.62C1325.35 301.94 1295.64 298.33 1288.62 299.32C1265.21 302.03 1254.99 332.96 1280.48 340.56L1519.11 359.71C1524.83 359.82 1525.47 367.76 1518.39 367.02L1269.69 348.29L1418.99 368.39L1388.44 438.3C1374.38 474.24 1290.05 465.63 1222.98 434.46C1152.8 401 1081.54 339.85 1098.27 303.45L1133.45 222.96L1127.15 216.64C1135.41 212.82 1144.72 210.36 1156.15 210.57L1318.21 222.18C1337.72 222.75 1335.9 193.02 1318.37 191.67C1323.78 192.48 1326.65 197.21 1326.85 202.4C1326.06 207.98 1321.85 211.97 1316.13 211.86L1154.07 200.26C1138.6 199.87 1126.99 203.82 1116.89 211.86C1107.78 219.52 1099.18 231.67 1089.1 249.07C1091.97 253.8 1092.55 260.02 1090.08 265.67C1087.92 270.61 1083.71 274.6 1078.37 275.52C1073.88 289.57 1062.98 303.19 1045 316.08C1029.64 309.78 1020.23 301.17 1014.73 289.26C1020.38 287.64 1024.97 284.68 1029.87 281.01C1024.59 283.65 1018.57 284.25 1012.85 284.14C1011.72 281.07 1011.59 277.61 1010.46 274.54C1023.2 273.66 1038.09 267.84 1055.83 257.39C1056.07 254.96 1056.31 252.52 1057.24 250.4C1060.01 244.05 1065.59 240.7 1071.93 239.39C1082.93 219.87 1092.45 205.61 1104.85 196.08C1105.16 195.37 1105.16 195.37 1105.47 194.66L1074.37 164.08C1054.06 142.74 1075.24 99.92 1098.17 102.08ZM1526.53 325.78C1529.88 325.64 1530.08 330.83 1526.04 330.65L1291.15 312.38L1293.31 307.44L1526.53 325.78ZM1521.9 336.37C1525.25 336.23 1525.45 341.42 1521.42 341.24L1286.52 322.97L1288.68 318.03L1521.9 336.37ZM1517.27 346.96C1520.63 346.82 1520.83 352.01 1516.79 351.83L1281.89 333.57L1284.05 328.62L1517.27 346.96Z" />
		<g id="&lt;Group&gt;">
		</g>
	</g>
</svg>