<svg version="1.2" baseProfile="tiny-ps" xmlns="http://www.w3.org/2000/svg" viewBox="0 0 1366 768" width="190" height="107">
	<title>IAS STUDY HUB logo-ai</title>
	<style>
		tspan { white-space:pre }
		.shp0 { display: none;fill: #f2f2f2 } 
		.shp1 { fill: #ff531d } 
		.shp2 { fill: #ff5621 } 
		.shp3 { fill: #5b5c63 } 
		.shp4 { fill: #ff5722 } 
		.shp5 { display: none;fill: #ff5722 } 
		.shp6 { display: none;fill: #ffffff } 
	</style>
	<g id="Layer 1">
		<path id="&lt;Path&gt;" class="shp0" d="M1366 768L0 768L0 0L1366 0L1366 768Z" />
		<g id="&lt;Group&gt;">
			<g id="&lt;Group&gt;">
				<g id="&lt;Group&gt;">
					<g id="&lt;Group&gt;">
						<path id="&lt;Compound Path&gt;" class="shp1" d="M52 299.96L67.62 299.95C75.69 299.94 79.73 305.37 79.74 316.22L79.79 409.43L61.41 409.44C55.17 409.44 52.05 405.57 52.05 397.81L52 299.96Z" />
					</g>
				</g>
				<g id="&lt;Group&gt;">
					<g id="&lt;Group&gt;">
						<path id="&lt;Compound Path&gt;" class="shp2" d="M295.19 302.5L372.62 302.46L372.71 313.69C372.72 323.31 367.93 328.13 358.35 328.13L303.14 328.16C298.24 328.17 295.79 330.12 295.8 334.02L295.8 338.51C295.8 342.04 298.47 343.81 303.82 343.8L347.33 343.78C365.1 343.77 373.98 352.32 373.99 369.43L374 385.47C374.01 403.12 365.13 411.95 347.37 411.96L269.19 412L269.19 400.85C269.18 391.6 273.72 386.97 282.79 386.97L336.25 386.94C341.87 386.94 344.68 384.64 344.68 380.04L344.68 375.7C344.68 371.11 341.78 368.81 335.99 368.81L292.56 368.84C275.18 368.84 266.49 361.26 266.48 346.07L266.48 330.03C266.47 311.69 276.04 302.51 295.19 302.5Z" />
					</g>
				</g>
				<g id="&lt;Group&gt;">
					<g id="&lt;Group&gt;">
						<g id="&lt;Group&gt;">
							<path id="&lt;Compound Path&gt;" class="shp3" d="M453.88 305L520.18 305.31L520.18 315.65C520.12 324.51 515.98 328.92 507.78 328.88L460.51 328.66C456.31 328.64 454.21 330.43 454.18 334.02L454.15 338.16C454.13 341.41 456.41 343.04 460.98 343.07L498.24 343.24C513.45 343.31 521 351.23 520.89 366.98L520.79 381.75C520.68 397.99 513.01 406.08 497.81 406.01L430.87 405.69L430.94 395.43C431 386.91 434.91 382.67 442.68 382.71L488.46 382.92C493.27 382.95 495.69 380.84 495.72 376.61L495.75 372.62C495.78 368.39 493.31 366.26 488.36 366.23L451.17 366.06C436.29 365.99 428.9 358.97 429 344.98L429.1 330.21C429.22 313.33 437.48 304.92 453.88 305Z" />
						</g>
					</g>
					<g id="&lt;Group&gt;">
						<g id="&lt;Group&gt;">
							<path id="&lt;Compound Path&gt;" class="shp3" d="M540.84 305.41L605.85 305.71C614.33 305.75 618.56 308.83 618.51 314.93L618.41 330.36L590.59 330.23L590.05 406.44L575.61 406.37C569.69 406.35 566.77 401.95 566.83 393.19L567.27 330.12L551.75 330.05C544.36 330.02 540.68 327.71 540.71 323.13L540.84 305.41Z" />
						</g>
					</g>
					<g id="&lt;Group&gt;">
						<g id="&lt;Group&gt;">
						</g>
						<path id="&lt;Compound Path&gt;" class="shp3" d="M728.96 321.28L728.65 365.67C728.56 378.96 724.43 389.3 716.27 396.7C708.11 404.09 696.5 407.76 681.44 407.68C667.32 407.62 656.72 403.74 649.62 396.05C642.52 388.36 639.01 378.61 639.1 366.8L639.52 305.87L653.54 305.94C660.45 305.97 663.88 310.74 663.81 320.24L663.53 359.82C663.5 364.6 663.83 368.24 664.53 370.76C665.83 375.54 668.3 378.97 671.93 381.05C675.57 383.14 679.62 384.19 684.1 384.21C688.82 384.24 693.11 383.22 696.96 381.17C700.81 379.12 703.12 374.95 703.88 368.65C704.13 366.39 704.27 363.51 704.3 360.01L704.67 306.18L718.69 306.24C725.6 306.28 729.03 311.29 728.96 321.28Z" />
					</g>
					<g id="&lt;Group&gt;">
						<g id="&lt;Group&gt;">
							<path id="&lt;Compound Path&gt;" fill-rule="evenodd" class="shp3" d="M752.36 306.4L793.77 306.6C804.12 306.65 812.12 307.74 817.78 309.89C825.15 312.68 830.65 316.86 834.29 322.44C837.3 326.99 839.5 333.25 840.88 341.23C841.89 346.85 842.37 352.24 842.34 357.41C842.28 366.52 840.95 375.11 838.37 383.17C835.78 391.43 831.52 397.49 825.58 401.35C820.31 404.77 813.98 406.68 806.59 407.09C802.77 407.32 798.27 407.42 793.07 407.4L763.96 407.26C755.76 407.22 751.69 402.65 751.76 393.54L752.36 306.4ZM776.59 330L776.21 383.83L794.59 383.92C802.65 383.96 808.26 382.26 811.44 378.83C813.07 377.02 814.42 374.61 815.49 371.61C817.1 367.19 817.92 362.37 817.95 357.15C818 350.55 816.87 344.84 814.57 340C812.55 335.81 809.51 332.96 805.47 331.47C802.95 330.57 799.45 330.11 794.97 330.09L776.59 330Z" />
						</g>
					</g>
					<g id="&lt;Group&gt;">
						<g id="&lt;Group&gt;">
							<path id="&lt;Compound Path&gt;" class="shp3" d="M917.69 371.13L917.43 407.98L901.7 407.91C896.35 407.88 893.71 404.3 893.76 397.16L893.97 367.18L859.77 306.91L888.02 307.04L907.01 343.54L926.5 307.22L954.75 307.35L917.69 371.13Z" />
						</g>
					</g>
					<g id="&lt;Group&gt;">
						<g id="&lt;Group&gt;">
							<path id="&lt;Compound Path&gt;" class="shp3" d="M1035.54 370.21L1035.27 408.54L1020.25 408.47C1014.38 408.44 1011.48 404.44 1011.54 396.46L1012.15 307.62L1025.74 307.69C1032.56 307.72 1035.95 310.76 1035.91 316.82L1035.7 345.99L1084.48 346.22L1084.75 307.97L1098.62 308.03C1105.01 308.06 1108.18 311.79 1108.13 319.23L1107.5 408.88L1092.48 408.8C1086.86 408.78 1084.07 405.49 1084.11 398.94L1084.31 370.44L1035.54 370.21Z" />
						</g>
					</g>
					<g id="&lt;Group&gt;">
						<g id="&lt;Group&gt;">
							<path id="&lt;Compound Path&gt;" class="shp3" d="M1221.44 323.6L1221.14 367.98C1221.04 381.27 1216.92 391.62 1208.76 399.01C1200.6 406.41 1188.99 410.07 1173.93 410C1159.81 409.93 1149.21 406.06 1142.11 398.37C1135.01 390.68 1131.5 380.93 1131.58 369.11L1132.01 308.19L1146.03 308.25C1152.94 308.29 1156.36 313.05 1156.3 322.55L1156.02 362.14C1155.99 366.91 1156.32 370.56 1157.02 373.07C1158.32 377.85 1160.79 381.29 1164.42 383.37C1168.05 385.45 1172.11 386.51 1176.59 386.53C1181.31 386.55 1185.6 385.54 1189.45 383.49C1193.3 381.44 1195.61 377.27 1196.37 370.97C1196.62 368.7 1196.76 365.82 1196.79 362.33L1197.16 308.49L1211.18 308.56C1218.09 308.59 1221.51 313.61 1221.44 323.6Z" />
						</g>
					</g>
					<g id="&lt;Group&gt;">
						<g id="&lt;Group&gt;">
							<path id="&lt;Compound Path&gt;" fill-rule="evenodd" class="shp3" d="M1317.23 359.42C1324.27 361.82 1327.77 367.08 1327.71 375.2L1327.64 385.54C1327.52 401.79 1319.84 409.87 1304.58 409.8L1249.94 409.55C1244.17 409.52 1241.31 406.03 1241.36 399.09L1241.99 308.7L1306.57 309.01C1320.97 309.52 1328.11 317.68 1328 333.48L1327.93 343.82C1327.87 351.94 1324.31 357.14 1317.23 359.42ZM1295.29 347.73C1300.29 347.75 1302.81 345.65 1302.84 341.41L1302.86 339.05C1302.89 334.81 1300.49 332.69 1295.68 332.66L1265.57 332.52L1265.46 347.59L1295.29 347.73ZM1265.3 370.85L1265.19 386.28L1295.3 386.42C1300.12 386.44 1302.54 384.34 1302.57 380.11L1302.59 377.37C1302.62 373.14 1300.13 371.01 1295.13 370.99L1265.3 370.85Z" />
						</g>
					</g>
				</g>
				<g id="&lt;Group&gt;">
					<path id="&lt;Path&gt;" class="shp4" d="M199.46 312.94C195.35 304.47 186.4 298.99 176.66 299L161.02 299.01L218.97 409.48L219.06 409.65L250.33 409.63L199.46 312.94Z" />
					<path id="&lt;Path&gt;" class="shp4" d="M122.23 370.61L136.57 368.94L162.27 320.21C163.71 317.47 163.8 314.29 162.52 311.48L158.78 303.29L122.5 370.11L122.23 370.61Z" />
					<path id="&lt;Path&gt;" class="shp4" d="M182.48 363.88C182.4 363.87 174.09 363.56 171.98 362.75C169.85 361.93 151.45 349.27 151.26 349.15L150.97 348.95L141.64 366.8C137.74 374.58 126.65 373.59 126.5 373.57C123.04 373.65 120.43 374.57 118.74 376.3C116.7 378.4 116.79 380.92 116.8 381.02L116.81 381.31L188.82 381.27L182.69 363.88L182.48 363.88Z" />
					<path id="&lt;Path&gt;" class="shp4" d="M109.18 379.89C110.62 379.88 113.33 379.05 116.06 373.8L128.08 351.64L128.24 351.34L127.91 351.23C127.84 351.2 125.91 350.52 123.2 351.22C120.74 351.86 117.14 353.82 113.98 359.56L105.91 374.67C105.86 374.74 104.83 376.37 105.46 377.85C105.85 378.76 106.76 379.39 108.13 379.71C108.18 379.73 108.56 379.89 109.18 379.89Z" />
					<path id="&lt;Path&gt;" class="shp4" d="M115 385.35C114.93 385.45 107.84 394.87 107.55 408.22C107.53 408.82 107.88 409.34 108.45 409.58C108.65 409.67 108.85 409.71 109.05 409.71C109.42 409.71 109.78 409.57 110.06 409.31C112.84 406.77 117.86 401.82 120.28 397.27L127.03 385.23L115.09 385.23L115 385.35Z" />
				</g>
			</g>
			<g id="&lt;Group&gt;">
				<path id="&lt;Path&gt;" class="shp5" d="M555.27 475L413.73 475C397.31 475 384 461.03 384 443.79L384 295.21C384 277.97 397.31 264 413.73 264L555.27 264C571.69 264 585 277.97 585 295.21L585 443.79C585 461.03 571.69 475 555.27 475Z" />
				<path id="&lt;Path&gt;" class="shp6" d="M498.1 424.9L473.67 424.9L463.74 436.54L463.74 309.98C463.74 305.82 466.95 302.46 470.9 302.46L498.1 302.46C502.05 302.46 505.26 305.82 505.26 309.98L505.26 417.38C505.26 421.53 502.05 424.9 498.1 424.9Z" />
				<g id="&lt;Group&gt;" style="display: none">
					<path id="&lt;Path&gt;" class="shp4" d="M474.22 406.76L471.75 406.76C471.27 406.76 470.88 406.35 470.88 405.84L470.88 321.42C470.88 320.92 471.27 320.51 471.75 320.51L474.22 320.51C474.7 320.51 475.09 320.92 475.09 321.42L475.09 405.84C475.09 406.35 474.7 406.76 474.22 406.76Z" />
					<path id="&lt;Path&gt;" class="shp4" d="M497.06 398.39L494.59 398.39C494.11 398.39 493.72 397.98 493.72 397.48L493.72 321.42C493.72 320.92 494.11 320.51 494.59 320.51L497.06 320.51C497.54 320.51 497.93 320.92 497.93 321.42L497.93 397.48C497.93 397.98 497.54 398.39 497.06 398.39Z" />
					<path id="&lt;Path&gt;" class="shp4" d="M485.92 389.28L483.45 389.28C482.97 389.28 482.58 388.88 482.58 388.37L482.58 326.58C482.58 326.07 482.97 325.67 483.45 325.67L485.92 325.67C486.4 325.67 486.79 326.07 486.79 326.58L486.79 388.37C486.79 388.88 486.4 389.28 485.92 389.28Z" />
				</g>
			</g>
		</g>
	</g>
</svg>