<svg version="1.2" baseProfile="tiny-ps" xmlns="http://www.w3.org/2000/svg" viewBox="0 0 1366 768" width="200" height="112">
	<title>IAS STUDY HUB logo-ai</title>
	<style>
		tspan { white-space:pre }
		.shp0 { display: none;fill: #f2f2f2 } 
		.shp1 { fill: #3f414b } 
		.shp2 { fill: #ff5722 } 
		.shp3 { display: none;fill: #ff5722 } 
		.shp4 { display: none;fill: #ffffff } 
	</style>
	<g id="Layer 1">
		<path id="&lt;Path&gt;" class="shp0" d="M1366 768L0 768L0 0L1366 0L1366 768Z" />
		<g id="&lt;Group&gt;">
			<g id="&lt;Group&gt;">
				<g id="&lt;Group&gt;">
					<g id="&lt;Group&gt;">
						<path id="&lt;Compound Path&gt;" class="shp1" d="M204.59 114.77L250.47 114.75C274.19 114.73 286.06 130.15 286.08 161L286.22 425.87L232.24 425.9C213.91 425.91 204.75 414.9 204.74 392.86L204.59 114.77Z" />
					</g>
				</g>
				<g id="&lt;Group&gt;">
					<g id="&lt;Group&gt;">
						<path id="&lt;Compound Path&gt;" class="shp1" d="M919.07 114.39L1146.54 114.27L1146.8 146.18C1146.81 173.53 1132.75 187.22 1104.62 187.23L942.42 187.32C928.02 187.33 920.83 192.88 920.83 203.97L920.84 216.73C920.84 226.76 928.7 231.77 944.4 231.77L1072.25 231.7C1124.43 231.67 1150.54 255.97 1150.56 304.6L1150.59 350.19C1150.62 400.33 1124.53 425.42 1072.35 425.45L842.67 425.57L842.66 393.89C842.64 367.6 855.96 354.45 882.63 354.43L1039.68 354.35C1056.2 354.34 1064.46 347.8 1064.45 334.73L1064.44 322.42C1064.44 309.36 1055.93 302.82 1038.91 302.83L911.31 302.9C860.27 302.93 834.74 281.37 834.72 238.21L834.7 192.62C834.67 140.5 862.79 114.42 919.07 114.39Z" />
					</g>
				</g>
				<g id="&lt;Group&gt;">
					<g id="&lt;Group&gt;">
						<g id="&lt;Group&gt;">
							<path id="&lt;Compound Path&gt;" class="shp1" d="M201.82 505.89L273.88 505.85L273.96 515.96C273.96 524.62 269.51 528.96 260.6 528.96L209.22 528.99C204.65 528.99 202.38 530.75 202.38 534.27L202.38 538.31C202.38 541.49 204.87 543.07 209.84 543.07L250.34 543.05C266.87 543.04 275.14 550.74 275.15 566.14L275.16 580.58C275.17 596.47 266.91 604.42 250.38 604.43L177.62 604.46L177.61 594.43C177.61 586.1 181.83 581.93 190.28 581.93L240.03 581.9C245.26 581.9 247.88 579.83 247.87 575.69L247.87 571.79C247.87 567.65 245.17 565.58 239.78 565.58L199.36 565.61C183.19 565.61 175.11 558.78 175.1 545.11L175.09 530.67C175.08 514.16 183.99 505.9 201.82 505.89Z" />
						</g>
					</g>
					<g id="&lt;Group&gt;">
						<g id="&lt;Group&gt;">
							<path id="&lt;Compound Path&gt;" class="shp1" d="M296.33 505.84L366.99 505.8C376.21 505.8 380.83 508.78 380.83 514.75L380.84 529.84L350.6 529.85L350.64 604.37L334.94 604.38C328.51 604.38 325.3 600.1 325.29 591.53L325.26 529.87L308.39 529.88C300.36 529.88 296.34 527.65 296.34 523.17L296.33 505.84Z" />
						</g>
					</g>
					<g id="&lt;Group&gt;">
						<g id="&lt;Group&gt;">
							<path id="&lt;Compound Path&gt;" class="shp1" d="M500.92 520.39L500.94 563.78C500.95 576.78 496.55 586.92 487.74 594.19C478.94 601.46 466.35 605.11 449.97 605.11C434.63 605.12 423.07 601.39 415.3 593.9C407.52 586.42 403.63 576.91 403.62 565.35L403.59 505.78L418.82 505.77C426.34 505.77 430.1 510.41 430.1 519.7L430.12 558.41C430.13 563.08 430.52 566.64 431.3 569.09C432.75 573.76 435.46 577.11 439.42 579.12C443.39 581.14 447.81 582.15 452.68 582.15C457.81 582.15 462.46 581.13 466.63 579.11C470.8 577.09 473.27 572.99 474.05 566.83C474.3 564.62 474.43 561.8 474.43 558.38L474.4 505.74L489.64 505.74C497.15 505.73 500.91 510.62 500.92 520.39Z" />
						</g>
					</g>
					<g id="&lt;Group&gt;">
						<g id="&lt;Group&gt;">
							<path id="&lt;Compound Path&gt;" fill-rule="evenodd" class="shp1" d="M526.24 505.72L571.24 505.69C582.49 505.69 591.2 506.72 597.36 508.78C605.4 511.48 611.41 515.54 615.41 520.98C618.72 525.4 621.16 531.52 622.72 539.31C623.86 544.8 624.44 550.07 624.44 555.13C624.45 564.03 623.08 572.43 620.33 580.33C617.59 588.42 613.01 594.37 606.58 598.17C600.88 601.54 594.02 603.45 585.99 603.89C581.84 604.13 576.94 604.25 571.3 604.25L539.66 604.27C530.75 604.28 526.29 599.83 526.28 590.92L526.24 505.72ZM552.76 528.66L552.78 581.3L572.76 581.29C581.52 581.29 587.61 579.6 591.03 576.23C592.79 574.45 594.24 572.09 595.38 569.15C597.08 564.82 597.94 560.1 597.93 555C597.93 548.55 596.66 542.96 594.12 538.25C591.88 534.16 588.57 531.39 584.16 529.95C581.41 529.08 577.6 528.65 572.73 528.65L552.76 528.66Z" />
						</g>
					</g>
					<g id="&lt;Group&gt;">
						<g id="&lt;Group&gt;">
							<path id="&lt;Compound Path&gt;" class="shp1" d="M706.44 568.15L706.46 604.18L689.36 604.19C683.56 604.2 680.65 600.71 680.65 593.73L680.63 564.41L642.98 505.65L673.68 505.64L694.61 541.22L715.5 505.61L746.21 505.6L706.44 568.15Z" />
						</g>
					</g>
					<g id="&lt;Group&gt;">
						<g id="&lt;Group&gt;">
							<path id="&lt;Compound Path&gt;" class="shp1" d="M834.52 566.64L834.54 604.11L818.22 604.12C811.84 604.13 808.65 600.23 808.65 592.43L808.6 505.57L823.37 505.56C830.78 505.55 834.49 508.51 834.49 514.43L834.51 542.95L887.52 542.93L887.5 505.52L902.58 505.52C909.53 505.51 913 509.15 913 516.41L913.05 604.07L896.73 604.08C890.61 604.08 887.55 600.89 887.55 594.48L887.53 566.61L834.52 566.64Z" />
						</g>
					</g>
					<g id="&lt;Group&gt;">
						<g id="&lt;Group&gt;">
							<path id="&lt;Compound Path&gt;" class="shp1" d="M1036.2 520.1L1036.22 563.5C1036.23 576.5 1031.83 586.63 1023.03 593.9C1014.22 601.18 1001.63 604.82 985.25 604.83C969.91 604.84 958.36 601.1 950.58 593.62C942.8 586.14 938.91 576.62 938.9 565.07L938.87 505.5L954.11 505.49C961.62 505.48 965.38 510.13 965.39 519.42L965.41 558.12C965.41 562.79 965.8 566.35 966.58 568.81C968.03 573.48 970.74 576.82 974.71 578.84C978.67 580.86 983.09 581.87 987.96 581.87C993.09 581.86 997.74 580.85 1001.91 578.82C1006.08 576.8 1008.56 572.71 1009.33 566.55C1009.59 564.33 1009.72 561.52 1009.71 558.1L1009.69 505.46L1024.92 505.45C1032.43 505.45 1036.2 510.33 1036.2 520.1Z" />
						</g>
					</g>
					<g id="&lt;Group&gt;">
						<g id="&lt;Group&gt;">
							<path id="&lt;Compound Path&gt;" fill-rule="evenodd" class="shp1" d="M1140.6 554.63C1148.27 556.94 1152.11 562.06 1152.11 570.01L1152.12 580.12C1152.13 596 1143.84 603.95 1127.26 603.96L1067.87 603.99C1061.6 603.99 1058.46 600.6 1058.46 593.81L1058.41 505.43L1128.6 505.39C1144.25 505.82 1152.08 513.76 1152.09 529.21L1152.1 539.32C1152.1 547.26 1148.27 552.37 1140.6 554.63ZM1116.65 543.31C1122.09 543.31 1124.81 541.24 1124.81 537.1L1124.81 534.79C1124.81 530.65 1122.19 528.58 1116.96 528.58L1084.23 528.6L1084.24 543.33L1116.65 543.31ZM1084.25 566.07L1084.26 581.16L1116.98 581.15C1122.22 581.14 1124.83 579.07 1124.83 574.93L1124.83 572.26C1124.83 568.12 1122.11 566.05 1116.66 566.06L1084.25 566.07Z" />
						</g>
					</g>
				</g>
				<g id="&lt;Group&gt;">
					<path id="&lt;Path&gt;" class="shp2" d="M637.81 151.67C625.73 127.58 599.44 112.03 570.84 112.05L524.88 112.07L695.13 426.03L695.38 426.49L787.26 426.44L637.81 151.67Z" />
					<path id="&lt;Path&gt;" class="shp2" d="M410.93 315.54L453.03 310.82L528.54 172.32C532.77 164.54 533.05 155.5 529.28 147.52L518.29 124.23L411.72 314.13L410.93 315.54Z" />
					<path id="&lt;Path&gt;" class="shp2" d="M587.93 296.42C587.68 296.41 563.28 295.52 557.07 293.22C550.82 290.9 496.76 254.92 496.21 254.56L495.35 253.99L467.94 304.73C456.48 326.84 423.91 324.02 423.46 323.97C413.29 324.19 405.62 326.8 400.67 331.73C394.66 337.7 394.94 344.85 394.96 345.15L395 345.96L606.55 345.85L588.55 296.44L587.93 296.42Z" />
					<path id="&lt;Path&gt;" class="shp2" d="M372.57 341.92C376.8 341.91 384.77 339.55 392.8 324.62L428.1 261.65L428.57 260.81L427.62 260.47C427.39 260.4 421.72 258.47 413.77 260.45C406.53 262.27 395.95 267.86 386.68 284.17L362.96 327.09C362.83 327.29 359.81 331.92 361.66 336.12C362.79 338.71 365.47 340.51 369.48 341.42C369.62 341.48 370.75 341.92 372.57 341.92Z" />
					<path id="&lt;Path&gt;" class="shp2" d="M389.68 357.46C389.47 357.72 368.64 384.5 367.78 422.45C367.74 424.15 368.75 425.63 370.43 426.31C371.01 426.55 371.61 426.67 372.21 426.67C373.29 426.67 374.33 426.28 375.16 425.55C383.32 418.32 398.07 404.27 405.2 391.31L425.01 357.09L389.95 357.11L389.68 357.46Z" />
				</g>
			</g>
			<g id="&lt;Group&gt;">
				<path id="&lt;Path&gt;" class="shp3" d="M555.27 475L413.73 475C397.31 475 384 461.03 384 443.79L384 295.21C384 277.97 397.31 264 413.73 264L555.27 264C571.69 264 585 277.97 585 295.21L585 443.79C585 461.03 571.69 475 555.27 475Z" />
				<path id="&lt;Path&gt;" class="shp4" d="M498.1 424.9L473.67 424.9L463.74 436.54L463.74 309.98C463.74 305.82 466.95 302.46 470.9 302.46L498.1 302.46C502.05 302.46 505.26 305.82 505.26 309.98L505.26 417.38C505.26 421.53 502.05 424.9 498.1 424.9Z" />
				<g id="&lt;Group&gt;" style="display: none">
					<path id="&lt;Path&gt;" class="shp2" d="M474.22 406.76L471.75 406.76C471.27 406.76 470.88 406.35 470.88 405.84L470.88 321.42C470.88 320.92 471.27 320.51 471.75 320.51L474.22 320.51C474.7 320.51 475.09 320.92 475.09 321.42L475.09 405.84C475.09 406.35 474.7 406.76 474.22 406.76Z" />
					<path id="&lt;Path&gt;" class="shp2" d="M497.06 398.39L494.59 398.39C494.11 398.39 493.72 397.98 493.72 397.48L493.72 321.42C493.72 320.92 494.11 320.51 494.59 320.51L497.06 320.51C497.54 320.51 497.93 320.92 497.93 321.42L497.93 397.48C497.93 397.98 497.54 398.39 497.06 398.39Z" />
					<path id="&lt;Path&gt;" class="shp2" d="M485.92 389.28L483.45 389.28C482.97 389.28 482.58 388.88 482.58 388.37L482.58 326.58C482.58 326.07 482.97 325.67 483.45 325.67L485.92 325.67C486.4 325.67 486.79 326.07 486.79 326.58L486.79 388.37C486.79 388.88 486.4 389.28 485.92 389.28Z" />
				</g>
			</g>
		</g>
	</g>
</svg>