<svg version="1.2" baseProfile="tiny-ps" xmlns="http://www.w3.org/2000/svg" viewBox="0 0 2559 1167" width="200" height="91">
	<title>IAS STUDY HUB-ai</title>
	<style>
		tspan { white-space:pre }
		.shp0 { fill: #78808d } 
		.shp1 { fill: #3b474c } 
		.shp2 { fill: #ff4d00 } 
		.shp3 { fill: #ffffff;stroke: #ffffff;stroke-width: 7 } 
	</style>
	<g id="Layer 1">
		<path id="&lt;Compound Path&gt;" class="shp0" d="M2905.15 1094.23L2905.15 1109.06L2893.45 1109.06L2893.45 1094.05L2877.68 1067.71L2890.03 1067.71L2899.83 1084.13L2909.64 1067.71L2920.98 1067.71L2905.15 1094.23Z" />
		<path id="STUDY HUB " fill="#3b474c" aria-label="STUDY HUB"  d="M230.34 917.34Q218.57 917.34 205.33 914.42Q192.09 911.49 180.33 906.43L180.33 881.48Q207.64 895.12 229.08 895.12Q239.79 895.12 246.31 890.84Q253.03 886.55 253.03 878.75Q253.03 873.3 249.25 869.59Q245.68 865.7 240.21 863.36Q234.75 860.82 224.66 857.32Q211.01 852.64 202.39 848.35Q193.78 844.07 187.68 836.27Q181.59 828.28 181.59 815.81Q181.59 797.49 195.25 787.36Q208.9 777.03 232.65 777.03Q243.79 777.03 254.5 779.37Q265.22 781.51 274.26 785.8L274.26 810.16Q253.03 799.24 233.28 799.24Q222.35 799.24 216.05 802.95Q209.96 806.45 209.96 813.08Q209.96 819.71 216.26 823.6Q222.77 827.31 236.22 831.79Q250.3 836.66 259.34 841.14Q268.37 845.62 274.89 854.2Q281.61 862.58 282.03 876.02Q282.03 895.32 267.95 906.43Q253.87 917.34 230.34 917.34ZM351.16 915L351.16 802.95L309.56 802.95L309.56 779.37L420.51 779.37L420.51 802.95L378.9 802.95L378.9 915L351.16 915ZM514.23 917.34Q485.02 917.34 468.42 901.75Q451.82 886.16 451.82 858.88L451.82 779.37L479.56 779.37L479.56 858.29Q479.56 877 488.59 885.96Q497.63 894.73 514.23 894.73Q531.04 894.73 539.86 885.77Q548.9 876.61 548.9 858.29L548.9 779.37L576.64 779.37L576.64 858.88Q576.64 886.16 560.04 901.75Q543.44 917.34 514.23 917.34ZM671.83 779.37Q694.31 779.37 710.49 787.75Q726.67 795.93 735.08 811.33Q743.48 826.53 743.48 847.18Q743.48 867.84 735.08 883.24Q726.67 898.44 710.49 906.82Q694.31 915 671.83 915L617.82 915L617.82 779.37L671.83 779.37ZM671.83 892.2Q691.79 892.2 702.93 880.7Q714.28 869.2 714.28 847.18Q714.28 825.16 702.93 813.66Q691.79 802.17 671.83 802.17L645.56 802.17L645.56 892.2L671.83 892.2ZM855.28 779.37L883.85 779.37L830.69 868.23L830.69 915L802.95 915L802.95 868.23L749.79 779.37L779.42 779.37L817.03 845.23L855.28 779.37ZM1063.73 779.37L1091.47 779.37L1091.47 915L1063.73 915L1063.73 855.37L994.38 855.37L994.38 915L966.65 915L966.65 779.37L994.38 779.37L994.38 832.57L1063.73 832.57L1063.73 779.37ZM1195.06 917.34Q1165.85 917.34 1149.25 901.75Q1132.65 886.16 1132.65 858.88L1132.65 779.37L1160.39 779.37L1160.39 858.29Q1160.39 877 1169.42 885.96Q1178.46 894.73 1195.06 894.73Q1211.87 894.73 1220.7 885.77Q1229.73 876.61 1229.73 858.29L1229.73 779.37L1257.47 779.37L1257.47 858.88Q1257.47 886.16 1240.87 901.75Q1224.27 917.34 1195.06 917.34ZM1386.07 844.45Q1397.42 848.94 1403.3 857.12Q1409.19 865.31 1409.19 877Q1409.19 895.51 1394.69 905.26Q1380.19 915 1352.66 915L1298.66 915L1298.66 779.37L1355.18 779.37Q1378.93 779.37 1391.75 788.72Q1404.56 797.88 1404.56 815.03Q1404.56 835.49 1386.07 844.45ZM1352.87 801.97L1326.39 801.97L1326.39 834.32L1352.66 834.32Q1364.01 834.32 1369.68 830.03Q1375.36 825.75 1375.36 817.56Q1375.36 808.6 1370.31 805.28Q1365.48 801.97 1352.87 801.97ZM1352.66 892.2Q1367.58 892.2 1373.67 888.3Q1379.98 884.21 1379.98 874.47Q1379.98 865.31 1373.25 861.02Q1366.74 856.73 1352.87 856.73L1326.39 856.73L1326.39 892.2L1352.66 892.2Z" />
		<path id="&lt;Path&gt;" class="shp1" d="M610.56 715.94C644.8 682.04 674.04 651.77 705.21 623.31C711.66 617.42 725.24 616.33 735.56 616.28C834.82 615.77 934.08 616.21 1033.34 615.56C1042.91 615.5 1052.45 609.92 1062 606.91C1056.47 598.72 1052.32 589.21 1045.05 582.69C1035.93 574.51 1024.01 569.08 1013.72 561.94C978.09 537.19 950.89 507.37 960.74 462.82C971.32 414.93 1004.92 383.7 1055.83 373.82C1087.72 367.62 1121.52 369.31 1154.49 368.53C1186.53 367.77 1218.62 368.36 1254.6 368.36C1245.11 403.46 1236.31 436.03 1226.93 470.75C1191.24 470.75 1156.45 470.36 1121.69 471.06C1114.38 471.21 1107.17 475.38 1099.91 477.69C1103.91 484.68 1106.24 493.41 1112.22 498.32C1128.7 511.83 1147.57 522.85 1163.91 536.48C1196.39 563.59 1212.03 596.83 1198.48 637.41C1184.23 680.09 1153.07 706.6 1105.33 715.15C1095.46 716.91 1085.23 717.54 1075.16 717.55C928.11 717.7 781.06 717.68 634 717.62C628.59 717.62 623.18 716.87 610.56 715.94Z" />
		<path id="&lt;Path&gt;" class="shp2" d="M916.52 371.97C916.52 444.96 916.52 515.2 916.52 587.06C873.69 587.06 832.07 587.06 788.26 587.06C788.26 560.29 788.26 534.96 788.26 503.65C778.43 511.98 772.58 516.3 767.52 521.31C706.57 581.63 646.21 642.47 584.34 701.96C575.49 710.47 559.68 716.44 546.78 716.98C502.92 718.81 458.92 717.68 409.97 717.68C416.05 710.62 418.88 706.85 422.22 703.54C528.28 598.34 634.07 492.9 741.03 388.5C750.26 379.49 767.05 373.3 780.68 372.71C825.37 370.75 870.22 371.97 916.52 371.97Z" />
		<path id="&lt;Path&gt;" class="shp1" d="M464.21 368.72L580.12 368.72L541.49 546.68L372.88 704.24L464.21 368.72Z" />
		<path id="&lt;Compound Path&gt;" fill-rule="evenodd" class="shp3" d="M1046.23 163.07L1281.62 179.01C1287.68 179.37 1299.69 185.12 1306.66 191.64L1466.2 336.41C1473.46 342.33 1474 347.62 1467.3 346.99L1269.55 333.76C1261.25 333.19 1233.14 330.11 1226.49 330.95C1204.33 333.26 1194.66 359.59 1218.79 366.06L1444.66 382.36C1450.07 382.45 1450.68 389.21 1443.97 388.58L1208.58 372.64L1349.89 389.75L1320.97 449.25C1307.67 479.84 1227.84 472.52 1164.36 445.99C1097.94 417.5 1030.49 365.46 1046.32 334.47L1079.62 265.96L1073.66 260.58C1081.47 257.33 1090.28 255.23 1101.11 255.41L1254.5 265.29C1272.97 265.78 1271.24 240.47 1254.65 239.32C1259.77 240.02 1262.49 244.04 1262.68 248.46C1261.93 253.21 1257.94 256.61 1252.53 256.51L1099.14 246.64C1084.49 246.3 1073.51 249.67 1063.94 256.52C1055.32 263.03 1047.18 273.37 1037.64 288.19C1040.36 292.21 1040.91 297.5 1038.57 302.31C1036.53 306.52 1032.54 309.91 1027.49 310.69C1023.23 322.65 1012.92 334.25 995.9 345.22C981.36 339.86 972.46 332.53 967.25 322.4C972.6 321.02 976.94 318.49 981.58 315.37C976.58 317.62 970.88 318.13 965.47 318.04C964.4 315.42 964.28 312.48 963.21 309.86C975.26 309.11 989.36 304.16 1006.15 295.27C1006.38 293.19 1006.6 291.12 1007.48 289.32C1010.11 283.91 1015.39 281.06 1021.39 279.95C1031.8 263.33 1040.82 251.19 1052.55 243.08C1052.84 242.48 1052.84 242.48 1053.13 241.87L1023.7 215.84C1004.47 197.68 1024.52 161.23 1046.23 163.07ZM1451.68 353.48C1454.85 353.36 1455.04 357.77 1451.22 357.62L1228.88 342.07L1230.93 337.87L1451.68 353.48ZM1447.29 362.49C1450.47 362.37 1450.66 366.79 1446.84 366.64L1224.5 351.09L1226.55 346.88L1447.29 362.49ZM1442.91 371.51C1446.09 371.39 1446.28 375.81 1442.46 375.65L1220.12 360.11L1222.17 355.9L1442.91 371.51Z" />
		<path id="&lt;Compound Path&gt;" fill-rule="evenodd" class="shp2" d="M1046.23 163.07L1281.62 179.01C1287.68 179.37 1299.69 185.12 1306.66 191.64L1466.2 336.41C1473.46 342.33 1474 347.62 1467.3 346.99L1269.55 333.76C1261.25 333.19 1233.14 330.11 1226.49 330.95C1204.33 333.26 1194.66 359.59 1218.79 366.06L1444.66 382.36C1450.07 382.45 1450.68 389.21 1443.97 388.58L1208.58 372.64L1349.89 389.75L1320.97 449.25C1307.67 479.84 1227.84 472.52 1164.36 445.99C1097.94 417.5 1030.49 365.46 1046.32 334.47L1079.62 265.96L1073.66 260.58C1081.47 257.33 1090.28 255.23 1101.11 255.41L1254.5 265.29C1272.97 265.78 1271.24 240.47 1254.65 239.32C1259.77 240.02 1262.49 244.04 1262.68 248.46C1261.93 253.21 1257.94 256.61 1252.53 256.51L1099.14 246.64C1084.49 246.3 1073.51 249.67 1063.94 256.52C1055.32 263.03 1047.18 273.37 1037.64 288.19C1040.36 292.21 1040.91 297.5 1038.57 302.31C1036.53 306.52 1032.54 309.91 1027.49 310.69C1023.23 322.65 1012.92 334.25 995.9 345.22C981.36 339.86 972.46 332.53 967.25 322.4C972.6 321.02 976.94 318.49 981.58 315.37C976.58 317.62 970.88 318.13 965.47 318.04C964.4 315.42 964.28 312.48 963.21 309.86C975.26 309.11 989.36 304.16 1006.15 295.27C1006.38 293.19 1006.6 291.12 1007.48 289.32C1010.11 283.91 1015.39 281.06 1021.39 279.95C1031.8 263.33 1040.82 251.19 1052.55 243.08C1052.84 242.48 1052.84 242.48 1053.13 241.87L1023.7 215.84C1004.47 197.68 1024.52 161.23 1046.23 163.07ZM1451.68 353.48C1454.85 353.36 1455.04 357.77 1451.22 357.62L1228.88 342.07L1230.93 337.87L1451.68 353.48ZM1447.29 362.49C1450.47 362.37 1450.66 366.79 1446.84 366.64L1224.5 351.09L1226.55 346.88L1447.29 362.49ZM1442.91 371.51C1446.09 371.39 1446.28 375.81 1442.46 375.65L1220.12 360.11L1222.17 355.9L1442.91 371.51Z" />
		<g id="&lt;Group&gt;">
		</g>
	</g>
</svg>