<svg version="1.2" baseProfile="tiny-ps" xmlns="http://www.w3.org/2000/svg" viewBox="0 0 1366 768" width="200" height="112">
	<title>IAS STUDY HUB logo-ai</title>
	<style>
		tspan { white-space:pre }
		.shp0 { display: none;fill: #f2f2f2 } 
		.shp1 { fill: #ff531d } 
		.shp2 { fill: #ff5621 } 
		.shp3 { fill: #5b5c63 } 
		.shp4 { fill: #ff5722 } 
		.shp5 { display: none;fill: #ff5722 } 
		.shp6 { display: none;fill: #ffffff } 
	</style>
	<g id="Layer 1">
		<path id="&lt;Path&gt;" class="shp0" d="M1366 768L0 768L0 0L1366 0L1366 768Z" />
		<g id="&lt;Group&gt;">
			<g id="&lt;Group&gt;">
				<g id="&lt;Group&gt;">
					<g id="&lt;Group&gt;">
						<path id="&lt;Compound Path&gt;" class="shp1" d="M54 289.96L69.62 289.95C77.69 289.94 81.73 295.37 81.74 306.22L81.79 399.43L63.41 399.44C57.17 399.44 54.05 395.57 54.05 387.81L54 289.96Z" />
					</g>
				</g>
				<g id="&lt;Group&gt;">
					<g id="&lt;Group&gt;">
						<path id="&lt;Compound Path&gt;" class="shp2" d="M297.19 292.5L374.62 292.46L374.71 303.69C374.72 313.31 369.93 318.13 360.35 318.13L305.14 318.16C300.24 318.17 297.79 320.12 297.8 324.02L297.8 328.51C297.8 332.04 300.47 333.81 305.82 333.8L349.33 333.78C367.1 333.77 375.98 342.32 375.99 359.43L376 375.47C376.01 393.12 367.13 401.95 349.37 401.96L271.19 402L271.19 390.85C271.18 381.6 275.72 376.97 284.79 376.97L338.25 376.94C343.87 376.94 346.68 374.64 346.68 370.04L346.68 365.7C346.68 361.11 343.78 358.81 337.99 358.81L294.56 358.84C277.18 358.84 268.49 351.26 268.48 336.07L268.48 320.03C268.47 301.69 278.04 292.51 297.19 292.5Z" />
					</g>
				</g>
				<g id="&lt;Group&gt;">
					<g id="&lt;Group&gt;">
						<g id="&lt;Group&gt;">
							<path id="&lt;Compound Path&gt;" class="shp3" d="M455.88 295L522.18 295.31L522.18 305.65C522.12 314.51 517.98 318.92 509.78 318.88L462.51 318.66C458.31 318.64 456.21 320.43 456.18 324.02L456.15 328.16C456.13 331.41 458.41 333.04 462.98 333.07L500.24 333.24C515.45 333.31 523 341.23 522.89 356.98L522.79 371.75C522.68 387.99 515.01 396.08 499.81 396.01L432.87 395.69L432.94 385.43C433 376.91 436.91 372.67 444.68 372.71L490.46 372.92C495.27 372.95 497.69 370.84 497.72 366.61L497.75 362.62C497.78 358.39 495.31 356.26 490.36 356.23L453.17 356.06C438.29 355.99 430.9 348.97 431 334.98L431.1 320.21C431.22 303.33 439.48 294.92 455.88 295Z" />
						</g>
					</g>
					<g id="&lt;Group&gt;">
						<g id="&lt;Group&gt;">
							<path id="&lt;Compound Path&gt;" class="shp3" d="M542.84 295.41L607.85 295.71C616.33 295.75 620.56 298.83 620.51 304.93L620.41 320.36L592.59 320.23L592.05 396.44L577.61 396.37C571.69 396.35 568.77 391.95 568.83 383.19L569.27 320.12L553.75 320.05C546.36 320.02 542.68 317.71 542.71 313.13L542.84 295.41Z" />
						</g>
					</g>
					<g id="&lt;Group&gt;">
						<g id="&lt;Group&gt;">
						</g>
						<path id="&lt;Compound Path&gt;" class="shp3" d="M730.96 311.28L730.65 355.67C730.56 368.96 726.43 379.3 718.27 386.7C710.11 394.09 698.5 397.76 683.44 397.68C669.32 397.62 658.72 393.74 651.62 386.05C644.52 378.36 641.01 368.61 641.1 356.8L641.52 295.87L655.54 295.94C662.45 295.97 665.88 300.74 665.81 310.24L665.53 349.82C665.5 354.6 665.83 358.24 666.53 360.76C667.83 365.54 670.3 368.97 673.93 371.05C677.57 373.14 681.62 374.19 686.1 374.21C690.82 374.24 695.11 373.22 698.96 371.17C702.81 369.12 705.12 364.95 705.88 358.65C706.13 356.39 706.27 353.51 706.3 350.01L706.67 296.18L720.69 296.24C727.6 296.28 731.03 301.29 730.96 311.28Z" />
					</g>
					<g id="&lt;Group&gt;">
						<g id="&lt;Group&gt;">
							<path id="&lt;Compound Path&gt;" fill-rule="evenodd" class="shp3" d="M754.36 296.4L795.77 296.6C806.12 296.65 814.12 297.74 819.78 299.89C827.15 302.68 832.65 306.86 836.29 312.44C839.3 316.99 841.5 323.25 842.88 331.23C843.89 336.85 844.37 342.24 844.34 347.41C844.28 356.52 842.95 365.11 840.37 373.17C837.78 381.43 833.52 387.49 827.58 391.35C822.31 394.77 815.98 396.68 808.59 397.09C804.77 397.32 800.27 397.42 795.07 397.4L765.96 397.26C757.76 397.22 753.69 392.65 753.76 383.54L754.36 296.4ZM778.59 320L778.21 373.83L796.59 373.92C804.65 373.96 810.26 372.26 813.44 368.83C815.07 367.02 816.42 364.61 817.49 361.61C819.1 357.19 819.92 352.37 819.95 347.15C820 340.55 818.87 334.84 816.57 330C814.55 325.81 811.51 322.96 807.47 321.47C804.95 320.57 801.45 320.11 796.97 320.09L778.59 320Z" />
						</g>
					</g>
					<g id="&lt;Group&gt;">
						<g id="&lt;Group&gt;">
							<path id="&lt;Compound Path&gt;" class="shp3" d="M919.69 361.13L919.43 397.98L903.7 397.91C898.35 397.88 895.71 394.3 895.76 387.16L895.97 357.18L861.77 296.91L890.02 297.04L909.01 333.54L928.5 297.22L956.75 297.35L919.69 361.13Z" />
						</g>
					</g>
					<g id="&lt;Group&gt;">
						<g id="&lt;Group&gt;">
							<path id="&lt;Compound Path&gt;" class="shp3" d="M1037.54 360.21L1037.27 398.54L1022.25 398.47C1016.38 398.44 1013.48 394.44 1013.54 386.46L1014.15 297.62L1027.74 297.69C1034.56 297.72 1037.95 300.76 1037.91 306.82L1037.7 335.99L1086.48 336.22L1086.75 297.97L1100.62 298.03C1107.01 298.06 1110.18 301.79 1110.13 309.23L1109.5 398.88L1094.48 398.8C1088.86 398.78 1086.07 395.49 1086.11 388.94L1086.31 360.44L1037.54 360.21Z" />
						</g>
					</g>
					<g id="&lt;Group&gt;">
						<g id="&lt;Group&gt;">
							<path id="&lt;Compound Path&gt;" class="shp3" d="M1223.44 313.6L1223.14 357.98C1223.04 371.27 1218.92 381.62 1210.76 389.01C1202.6 396.41 1190.99 400.07 1175.93 400C1161.81 399.93 1151.21 396.06 1144.11 388.37C1137.01 380.68 1133.5 370.93 1133.58 359.11L1134.01 298.19L1148.03 298.25C1154.94 298.29 1158.36 303.05 1158.3 312.55L1158.02 352.14C1157.99 356.91 1158.32 360.56 1159.02 363.07C1160.32 367.85 1162.79 371.29 1166.42 373.37C1170.05 375.45 1174.11 376.51 1178.59 376.53C1183.31 376.55 1187.6 375.54 1191.45 373.49C1195.3 371.44 1197.61 367.27 1198.37 360.97C1198.62 358.7 1198.76 355.82 1198.79 352.33L1199.16 298.49L1213.18 298.56C1220.09 298.59 1223.51 303.61 1223.44 313.6Z" />
						</g>
					</g>
					<g id="&lt;Group&gt;">
						<g id="&lt;Group&gt;">
							<path id="&lt;Compound Path&gt;" fill-rule="evenodd" class="shp3" d="M1319.23 349.42C1326.27 351.82 1329.77 357.08 1329.71 365.2L1329.64 375.54C1329.52 391.79 1321.84 399.87 1306.58 399.8L1251.94 399.55C1246.17 399.52 1243.31 396.03 1243.36 389.09L1243.99 298.7L1308.57 299.01C1322.97 299.52 1330.11 307.68 1330 323.48L1329.93 333.82C1329.87 341.94 1326.31 347.14 1319.23 349.42ZM1297.29 337.73C1302.29 337.75 1304.81 335.65 1304.84 331.41L1304.86 329.05C1304.89 324.81 1302.49 322.69 1297.68 322.66L1267.57 322.52L1267.46 337.59L1297.29 337.73ZM1267.3 360.85L1267.19 376.28L1297.3 376.42C1302.12 376.44 1304.54 374.34 1304.57 370.11L1304.59 367.37C1304.62 363.14 1302.13 361.01 1297.13 360.99L1267.3 360.85Z" />
						</g>
					</g>
				</g>
				<g id="&lt;Group&gt;">
					<path id="&lt;Path&gt;" class="shp4" d="M201.46 302.94C197.35 294.47 188.4 288.99 178.66 289L163.02 289.01L220.97 399.48L221.06 399.65L252.33 399.63L201.46 302.94Z" />
					<path id="&lt;Path&gt;" class="shp4" d="M124.23 360.61L138.57 358.94L164.27 310.21C165.71 307.47 165.8 304.29 164.52 301.48L160.78 293.29L124.5 360.11L124.23 360.61Z" />
					<path id="&lt;Path&gt;" class="shp4" d="M184.48 353.88C184.4 353.87 176.09 353.56 173.98 352.75C171.85 351.93 153.45 339.27 153.26 339.15L152.97 338.95L143.64 356.8C139.74 364.58 128.65 363.59 128.5 363.57C125.04 363.65 122.43 364.57 120.74 366.3C118.7 368.4 118.79 370.92 118.8 371.02L118.81 371.31L190.82 371.27L184.69 353.88L184.48 353.88Z" />
					<path id="&lt;Path&gt;" class="shp4" d="M111.18 369.89C112.62 369.88 115.33 369.05 118.06 363.8L130.08 341.64L130.24 341.34L129.91 341.23C129.84 341.2 127.91 340.52 125.2 341.22C122.74 341.86 119.14 343.82 115.98 349.56L107.91 364.67C107.86 364.74 106.83 366.37 107.46 367.85C107.85 368.76 108.76 369.39 110.13 369.71C110.18 369.73 110.56 369.89 111.18 369.89Z" />
					<path id="&lt;Path&gt;" class="shp4" d="M117 375.35C116.93 375.45 109.84 384.87 109.55 398.22C109.53 398.82 109.88 399.34 110.45 399.58C110.65 399.67 110.85 399.71 111.05 399.71C111.42 399.71 111.78 399.57 112.06 399.31C114.84 396.77 119.86 391.82 122.28 387.27L129.03 375.23L117.09 375.23L117 375.35Z" />
				</g>
			</g>
			<g id="&lt;Group&gt;">
				<path id="&lt;Path&gt;" class="shp5" d="M555.27 475L413.73 475C397.31 475 384 461.03 384 443.79L384 295.21C384 277.97 397.31 264 413.73 264L555.27 264C571.69 264 585 277.97 585 295.21L585 443.79C585 461.03 571.69 475 555.27 475Z" />
				<path id="&lt;Path&gt;" class="shp6" d="M498.1 424.9L473.67 424.9L463.74 436.54L463.74 309.98C463.74 305.82 466.95 302.46 470.9 302.46L498.1 302.46C502.05 302.46 505.26 305.82 505.26 309.98L505.26 417.38C505.26 421.53 502.05 424.9 498.1 424.9Z" />
				<g id="&lt;Group&gt;" style="display: none">
					<path id="&lt;Path&gt;" class="shp4" d="M474.22 406.76L471.75 406.76C471.27 406.76 470.88 406.35 470.88 405.84L470.88 321.42C470.88 320.92 471.27 320.51 471.75 320.51L474.22 320.51C474.7 320.51 475.09 320.92 475.09 321.42L475.09 405.84C475.09 406.35 474.7 406.76 474.22 406.76Z" />
					<path id="&lt;Path&gt;" class="shp4" d="M497.06 398.39L494.59 398.39C494.11 398.39 493.72 397.98 493.72 397.48L493.72 321.42C493.72 320.92 494.11 320.51 494.59 320.51L497.06 320.51C497.54 320.51 497.93 320.92 497.93 321.42L497.93 397.48C497.93 397.98 497.54 398.39 497.06 398.39Z" />
					<path id="&lt;Path&gt;" class="shp4" d="M485.92 389.28L483.45 389.28C482.97 389.28 482.58 388.88 482.58 388.37L482.58 326.58C482.58 326.07 482.97 325.67 483.45 325.67L485.92 325.67C486.4 325.67 486.79 326.07 486.79 326.58L486.79 388.37C486.79 388.88 486.4 389.28 485.92 389.28Z" />
				</g>
			</g>
		</g>
	</g>
</svg>