<svg version="1.2" baseProfile="tiny-ps" xmlns="http://www.w3.org/2000/svg" viewBox="0 0 1366 768" width="500" height="281">
	<title>IAS STUDY HUB logo-ai</title>
	<style>
		tspan { white-space:pre }
		.shp0 { display: none;fill: #f2f2f2 } 
		.shp1 { fill: #333333 } 
		.shp2 { fill: #ff5722 } 
		.shp3 { fill: #ff5621 } 
		.shp4 { fill: #ffffff } 
	</style>
	<g id="Layer 1">
		<path id="&lt;Path&gt;" class="shp0" d="M1218.62 703.44L-147.37 698.56L-144.62 -69.44L1221.37 -64.56L1218.62 703.44Z" />
		<g id="&lt;Group&gt;">
			<g id="&lt;Group&gt;" style="display: none">
				<g id="&lt;Group&gt;">
					<g id="&lt;Group&gt;">
						<path id="&lt;Compound Path&gt;" class="shp1" d="M659.66 315.91L671.56 315.91C677.71 315.91 680.78 320.21 680.78 328.82L680.78 402.75L666.79 402.75C662.03 402.75 659.66 399.67 659.66 393.52L659.66 315.91Z" />
					</g>
				</g>
				<g id="&lt;Group&gt;">
					<g id="&lt;Group&gt;">
						<path id="&lt;Compound Path&gt;" class="shp1" d="M844.89 315.91L903.86 315.91L903.93 324.82C903.93 332.45 900.28 336.27 892.98 336.27L850.93 336.27C847.2 336.27 845.33 337.82 845.33 340.91L845.33 344.47C845.33 347.27 847.37 348.67 851.44 348.67L884.59 348.67C898.11 348.67 904.88 355.46 904.88 369.03L904.88 381.75C904.88 395.75 898.11 402.75 884.59 402.75L825.04 402.75L825.04 393.9C825.04 386.57 828.5 382.9 835.41 382.9L876.13 382.9C880.41 382.9 882.55 381.07 882.55 377.43L882.55 373.99C882.55 370.34 880.34 368.52 875.93 368.52L842.85 368.52C829.62 368.52 823.01 362.5 823.01 350.45L823.01 337.73C823.01 323.18 830.3 315.91 844.89 315.91Z" />
					</g>
				</g>
				<g id="&lt;Group&gt;">
					<g id="&lt;Group&gt;">
						<g id="&lt;Group&gt;">
							<path id="&lt;Compound Path&gt;" class="shp1" d="M658.89 425.07L677.57 425.07L677.59 427.89C677.59 430.31 676.43 431.51 674.12 431.51L660.8 431.51C659.62 431.51 659.03 432.01 659.03 432.99L659.03 434.11C659.03 435 659.67 435.44 660.96 435.44L671.46 435.44C675.75 435.44 677.89 437.59 677.89 441.89L677.89 445.92C677.89 450.36 675.75 452.57 671.46 452.57L652.6 452.57L652.6 449.77C652.6 447.45 653.7 446.29 655.89 446.29L668.78 446.29C670.14 446.29 670.82 445.71 670.82 444.55L670.82 443.46C670.82 442.31 670.12 441.73 668.72 441.73L658.24 441.73C654.05 441.73 651.96 439.82 651.96 436.01L651.96 431.98C651.96 427.37 654.27 425.07 658.89 425.07Z" />
						</g>
					</g>
					<g id="&lt;Group&gt;">
						<g id="&lt;Group&gt;">
							<path id="&lt;Compound Path&gt;" class="shp1" d="M683.39 425.07L701.71 425.07C704.1 425.07 705.3 425.9 705.3 427.56L705.3 431.78L697.46 431.78L697.46 452.57L693.39 452.57C691.72 452.57 690.89 451.38 690.89 448.99L690.89 431.78L686.51 431.78C684.43 431.78 683.39 431.15 683.39 429.9L683.39 425.07Z" />
						</g>
					</g>
					<g id="&lt;Group&gt;">
						<g id="&lt;Group&gt;">
							<path id="&lt;Compound Path&gt;" class="shp1" d="M736.43 429.16L736.43 441.27C736.43 444.9 735.29 447.72 733 449.75C730.72 451.78 727.45 452.8 723.21 452.8C719.23 452.8 716.24 451.75 714.22 449.66C712.21 447.57 711.2 444.92 711.2 441.69L711.2 425.07L715.15 425.07C717.1 425.07 718.07 426.36 718.07 428.96L718.07 439.76C718.07 441.06 718.17 442.05 718.37 442.74C718.75 444.04 719.45 444.98 720.48 445.54C721.51 446.1 722.65 446.39 723.91 446.39C725.24 446.39 726.45 446.1 727.53 445.54C728.61 444.98 729.25 443.83 729.46 442.11C729.52 441.5 729.56 440.71 729.56 439.76L729.56 425.07L733.51 425.07C735.45 425.07 736.43 426.43 736.43 429.16Z" />
						</g>
					</g>
					<g id="&lt;Group&gt;">
						<g id="&lt;Group&gt;">
							<path id="&lt;Compound Path&gt;" fill-rule="evenodd" class="shp1" d="M742.99 425.07L754.66 425.07C757.58 425.07 759.83 425.35 761.43 425.93C763.52 426.69 765.07 427.82 766.11 429.34C766.97 430.57 767.6 432.28 768 434.46C768.3 435.99 768.45 437.46 768.45 438.87C768.45 441.36 768.09 443.7 767.38 445.9C766.67 448.16 765.48 449.82 763.81 450.88C762.33 451.82 760.55 452.35 758.47 452.47C757.4 452.54 756.13 452.57 754.66 452.57L746.46 452.57C744.15 452.57 742.99 451.33 742.99 448.85L742.99 425.07ZM749.87 431.47L749.87 446.17L755.05 446.17C757.32 446.17 758.89 445.7 759.78 444.75C760.24 444.26 760.61 443.6 760.91 442.78C761.35 441.57 761.57 440.25 761.57 438.83C761.57 437.03 761.25 435.47 760.59 434.15C760.01 433.01 759.15 432.24 758.01 431.84C757.3 431.6 756.31 431.47 755.05 431.47L749.87 431.47Z" />
						</g>
					</g>
					<g id="&lt;Group&gt;">
						<g id="&lt;Group&gt;">
							<path id="&lt;Compound Path&gt;" class="shp1" d="M789.7 442.52L789.7 452.57L785.27 452.57C783.77 452.57 783.01 451.6 783.01 449.65L783.01 441.47L773.26 425.07L781.22 425.07L786.64 435L792.06 425.07L800.02 425.07L789.7 442.52Z" />
						</g>
					</g>
					<g id="&lt;Group&gt;">
						<g id="&lt;Group&gt;">
							<path id="&lt;Compound Path&gt;" class="shp1" d="M822.91 442.11L822.91 452.57L818.68 452.57C817.02 452.57 816.2 451.49 816.2 449.31L816.2 425.07L820.03 425.07C821.95 425.07 822.91 425.89 822.91 427.54L822.91 435.5L836.65 435.5L836.65 425.07L840.56 425.07C842.36 425.07 843.26 426.08 843.26 428.11L843.26 452.57L839.03 452.57C837.44 452.57 836.65 451.68 836.65 449.89L836.65 442.11L822.91 442.11Z" />
						</g>
					</g>
					<g id="&lt;Group&gt;">
						<g id="&lt;Group&gt;">
							<path id="&lt;Compound Path&gt;" class="shp1" d="M875.2 429.16L875.2 441.27C875.2 444.9 874.06 447.72 871.77 449.75C869.49 451.78 866.23 452.8 861.98 452.8C858 452.8 855.01 451.75 852.99 449.66C850.98 447.57 849.97 444.92 849.97 441.69L849.97 425.07L853.92 425.07C855.87 425.07 856.84 426.36 856.84 428.96L856.84 439.76C856.84 441.06 856.94 442.05 857.14 442.74C857.52 444.04 858.22 444.98 859.25 445.54C860.28 446.1 861.42 446.39 862.69 446.39C864.02 446.39 865.22 446.1 866.3 445.54C867.38 444.98 868.03 443.83 868.23 442.11C868.29 441.5 868.33 440.71 868.33 439.76L868.33 425.07L872.28 425.07C874.23 425.07 875.2 426.43 875.2 429.16Z" />
						</g>
					</g>
					<g id="&lt;Group&gt;">
						<g id="&lt;Group&gt;">
							<path id="&lt;Compound Path&gt;" fill-rule="evenodd" class="shp1" d="M902.26 438.81C904.25 439.45 905.24 440.89 905.24 443.1L905.24 445.92C905.24 450.36 903.09 452.57 898.8 452.57L883.4 452.57C881.77 452.57 880.96 451.63 880.96 449.73L880.96 425.07L899.16 425.07C903.22 425.19 905.24 427.4 905.24 431.72L905.24 434.54C905.24 436.75 904.25 438.18 902.26 438.81ZM896.05 435.65C897.47 435.65 898.17 435.07 898.17 433.91L898.17 433.27C898.17 432.11 897.49 431.53 896.14 431.53L887.65 431.53L887.65 435.65L896.05 435.65ZM887.65 441.99L887.65 446.21L896.14 446.21C897.49 446.21 898.17 445.63 898.17 444.47L898.17 443.73C898.17 442.57 897.47 441.99 896.05 441.99L887.65 441.99Z" />
						</g>
					</g>
				</g>
				<g id="&lt;Group&gt;">
					<path id="&lt;Path&gt;" class="shp2" d="M771.97 326.27C768.84 319.55 762.03 315.2 754.61 315.2L742.7 315.2L786.79 402.85L786.86 402.98L810.67 402.98L771.97 326.27Z" />
					<path id="&lt;Path&gt;" class="shp2" d="M713.13 371.97L724.04 370.66L743.64 332.02C744.74 329.85 744.81 327.33 743.83 325.1L740.99 318.6L713.33 371.58L713.13 371.97Z" />
					<path id="&lt;Path&gt;" class="shp2" d="M759.02 366.66C758.95 366.66 752.63 366.41 751.02 365.77C749.4 365.12 735.39 355.07 735.24 354.97L735.02 354.81L727.91 368.96C724.93 375.13 716.49 374.34 716.37 374.33C713.74 374.39 711.75 375.11 710.47 376.49C708.91 378.16 708.98 380.15 708.98 380.24L708.99 380.46L763.84 380.46L759.18 366.67L759.02 366.66Z" />
					<path id="&lt;Path&gt;" class="shp2" d="M703.18 379.33C704.28 379.33 706.34 378.67 708.43 374.5L717.59 356.94L717.71 356.7L717.46 356.61C717.4 356.59 715.93 356.05 713.87 356.6C711.99 357.1 709.25 358.66 706.84 363.21L700.69 375.19C700.66 375.24 699.87 376.54 700.35 377.71C700.64 378.43 701.34 378.93 702.38 379.19C702.42 379.21 702.71 379.33 703.18 379.33Z" />
					<path id="&lt;Path&gt;" class="shp2" d="M707.61 383.67C707.56 383.74 702.15 391.21 701.92 401.8C701.91 402.28 702.18 402.69 702.61 402.88C702.76 402.95 702.92 402.98 703.07 402.98C703.35 402.98 703.62 402.87 703.84 402.67C705.96 400.65 709.78 396.73 711.63 393.12L716.77 383.57L707.68 383.57L707.61 383.67Z" />
				</g>
			</g>
			<g id="&lt;Group&gt;">
				<path id="&lt;Path&gt;" class="shp3" d="M748.58 618.23L654.33 618.23L616 665.04L616 156.24C616 139.54 628.38 126 643.65 126L748.58 126C763.85 126 776.23 139.54 776.23 156.24L776.23 587.99C776.23 604.69 763.85 618.23 748.58 618.23Z" />
				<g id="&lt;Group&gt;">
					<path id="&lt;Path&gt;" class="shp4" d="M656.44 545.29L646.91 545.29C645.06 545.29 643.55 543.65 643.55 541.62L643.55 202.24C643.55 200.21 645.06 198.56 646.91 198.56L656.44 198.56C658.3 198.56 659.8 200.21 659.8 202.24L659.8 541.62C659.8 543.65 658.3 545.29 656.44 545.29Z" />
					<path id="&lt;Path&gt;" class="shp4" d="M744.57 511.67L735.04 511.67C733.19 511.67 731.68 510.02 731.68 507.99L731.68 202.24C731.68 200.21 733.19 198.56 735.04 198.56L744.57 198.56C746.43 198.56 747.93 200.21 747.93 202.24L747.93 507.99C747.93 510.02 746.43 511.67 744.57 511.67Z" />
					<path id="&lt;Path&gt;" class="shp4" d="M701.59 475.06L692.06 475.06C690.2 475.06 688.7 473.41 688.7 471.38L688.7 222.98C688.7 220.95 690.2 219.3 692.06 219.3L701.59 219.3C703.45 219.3 704.95 220.95 704.95 222.98L704.95 471.38C704.95 473.41 703.45 475.06 701.59 475.06Z" />
				</g>
			</g>
		</g>
	</g>
</svg>