<svg version="1.2" baseProfile="tiny-ps" xmlns="http://www.w3.org/2000/svg" viewBox="0 0 1366 768" width="57" height="32">
	<title>IAS STUDY HUB logo-ai</title>
	<style>
		tspan { white-space:pre }
		.shp0 { display: none;fill: #f2f2f2 } 
		.shp1 { fill: #ff2900 } 
		.shp2 { fill: #ffffff } 
		.shp3 { fill: #f22700 } 
	</style>
	<g id="Layer 1">
		<path id="&lt;Path&gt;" class="shp0" d="M1420 838L54 838L54 70L1420 70L1420 838Z" />
		<g id="&lt;Group&gt;">
			<g id="&lt;Group&gt;">
				<g id="&lt;Group&gt;">
					<g id="&lt;Group&gt;">
					</g>
				</g>
				<g id="&lt;Group&gt;">
					<g id="&lt;Group&gt;">
					</g>
				</g>
				<g id="&lt;Group&gt;">
					<g id="&lt;Group&gt;">
						<g id="&lt;Group&gt;">
						</g>
					</g>
					<g id="&lt;Group&gt;">
						<g id="&lt;Group&gt;">
						</g>
					</g>
					<g id="&lt;Group&gt;">
						<g id="&lt;Group&gt;">
						</g>
					</g>
					<g id="&lt;Group&gt;">
						<g id="&lt;Group&gt;">
						</g>
					</g>
					<g id="&lt;Group&gt;">
						<g id="&lt;Group&gt;">
						</g>
					</g>
					<g id="&lt;Group&gt;">
						<g id="&lt;Group&gt;">
						</g>
					</g>
					<g id="&lt;Group&gt;">
						<g id="&lt;Group&gt;">
						</g>
					</g>
					<g id="&lt;Group&gt;">
						<g id="&lt;Group&gt;">
						</g>
					</g>
				</g>
				<g id="&lt;Group&gt;">
				</g>
			</g>
			<g id="&lt;Group&gt;">
				<path id="&lt;Path&gt;" class="shp1" d="M590.12 744L147.88 744C96.58 744 55 696.72 55 638.4L55 135.6C55 77.28 96.58 30 147.88 30L590.12 30C641.42 30 683 77.28 683 135.6L683 638.4C683 696.72 641.42 744 590.12 744Z" />
				<path id="&lt;Path&gt;" class="shp2" d="M411.48 574.46L335.17 574.46L304.14 613.87L304.14 185.58C304.14 171.53 314.16 160.13 326.52 160.13L411.48 160.13C423.84 160.13 433.86 171.53 433.86 185.58L433.86 549.01C433.86 563.07 423.84 574.46 411.48 574.46Z" />
				<g id="&lt;Group&gt;">
					<path id="&lt;Path&gt;" class="shp3" d="M336.88 513.07L329.16 513.07C327.66 513.07 326.44 511.69 326.44 509.98L326.44 224.3C326.44 222.6 327.66 221.21 329.16 221.21L336.88 221.21C338.38 221.21 339.6 222.6 339.6 224.3L339.6 509.98C339.6 511.69 338.38 513.07 336.88 513.07Z" />
					<path id="&lt;Path&gt;" class="shp3" d="M408.23 484.77L400.51 484.77C399.01 484.77 397.79 483.38 397.79 481.67L397.79 224.3C397.79 222.6 399.01 221.21 400.51 221.21L408.23 221.21C409.73 221.21 410.95 222.6 410.95 224.3L410.95 481.67C410.95 483.38 409.73 484.77 408.23 484.77Z" />
					<path id="&lt;Path&gt;" class="shp3" d="M373.43 453.95L365.72 453.95C364.21 453.95 362.99 452.56 362.99 450.86L362.99 241.76C362.99 240.05 364.21 238.67 365.72 238.67L373.43 238.67C374.93 238.67 376.15 240.05 376.15 241.76L376.15 450.86C376.15 452.56 374.93 453.95 373.43 453.95Z" />
				</g>
			</g>
		</g>
	</g>
</svg>