<svg version="1.2" baseProfile="tiny-ps" xmlns="http://www.w3.org/2000/svg" viewBox="0 0 1366 768" width="150" height="84">
	<title>IAS STUDY HUB logo-ai</title>
	<style>
		tspan { white-space:pre }
		.shp0 { display: none;fill: #f2f2f2 } 
		.shp1 { fill: #333333 } 
		.shp2 { fill: #ff5621 } 
		.shp3 { fill: #ff5722 } 
		.shp4 { fill: #ffffff } 
	</style>
	<g id="Layer 1">
		<path id="&lt;Path&gt;" class="shp0" d="M1420 838L54 838L54 70L1420 70L1420 838Z" />
		<g id="&lt;Group&gt;">
			<g id="&lt;Group&gt;">
				<g id="&lt;Group&gt;">
					<g id="&lt;Group&gt;">
						<path id="&lt;Compound Path&gt;" class="shp1" d="M666.02 70.92L697.7 70.92C714.07 70.92 722.26 82.66 722.26 106.12L722.26 307.62L684.99 307.62C672.34 307.62 666.02 299.24 666.02 282.47L666.02 70.92Z" />
					</g>
				</g>
				<g id="&lt;Group&gt;">
					<g id="&lt;Group&gt;">
						<path id="&lt;Compound Path&gt;" class="shp1" d="M1159.26 70.92L1316.29 70.92L1316.46 95.2C1316.46 116.01 1306.74 126.41 1287.32 126.41L1175.35 126.41C1165.41 126.41 1160.44 130.63 1160.44 139.07L1160.44 148.78C1160.44 156.41 1165.86 160.22 1176.7 160.22L1264.96 160.22C1300.98 160.22 1319 178.72 1319 215.71L1319 250.39C1319 288.54 1300.98 307.62 1264.96 307.62L1106.4 307.62L1106.4 283.51C1106.4 263.51 1115.61 253.51 1134.02 253.51L1242.43 253.51C1253.84 253.51 1259.54 248.55 1259.54 238.6L1259.54 229.24C1259.54 219.3 1253.67 214.33 1241.92 214.33L1153.84 214.33C1118.6 214.33 1100.98 197.91 1100.98 165.08L1100.98 130.4C1100.98 90.75 1120.4 70.92 1159.26 70.92Z" />
					</g>
				</g>
				<g id="&lt;Group&gt;">
					<g id="&lt;Group&gt;">
						<g id="&lt;Group&gt;">
							<path id="&lt;Compound Path&gt;" class="shp1" d="M690.23 341L774.38 341L774.47 358.81C774.47 374.07 769.27 381.7 758.86 381.7L698.85 381.7C693.53 381.7 690.86 384.79 690.86 390.98L690.86 398.1C690.86 403.7 693.77 406.5 699.58 406.5L746.88 406.5C766.18 406.5 775.83 420.06 775.83 447.2L775.83 472.63C775.83 500.61 766.18 514.6 746.88 514.6L661.9 514.6L661.9 496.92C661.9 482.26 666.84 474.92 676.7 474.92L734.8 474.92C740.91 474.92 743.97 471.28 743.97 463.98L743.97 457.12C743.97 449.82 740.82 446.18 734.53 446.18L687.32 446.18C668.44 446.18 659 434.14 659 410.06L659 384.62C659 355.54 669.41 341 690.23 341Z" />
						</g>
					</g>
					<g id="&lt;Group&gt;">
						<g id="&lt;Group&gt;">
							<path id="&lt;Compound Path&gt;" class="shp1" d="M800.6 341L883.12 341C893.9 341 899.28 346.26 899.28 356.77L899.28 383.35L863.97 383.35L863.97 514.6L845.63 514.6C838.13 514.6 834.37 507.06 834.37 491.96L834.37 383.35L814.68 383.35C805.29 383.35 800.6 379.41 800.6 371.52L800.6 341Z" />
						</g>
					</g>
					<g id="&lt;Group&gt;">
						<g id="&lt;Group&gt;">
							<path id="&lt;Compound Path&gt;" class="shp1" d="M1039.53 366.82L1039.53 443.25C1039.53 466.15 1034.38 484 1024.09 496.8C1013.8 509.6 999.1 516 979.97 516C962.06 516 948.56 509.41 939.49 496.22C930.41 483.04 925.87 466.27 925.87 445.92L925.87 341L943.66 341C952.44 341 956.82 349.18 956.82 365.55L956.82 433.71C956.82 441.94 957.28 448.21 958.19 452.54C959.88 460.76 963.04 466.65 967.67 470.22C972.3 473.78 977.46 475.56 983.15 475.56C989.14 475.56 994.57 473.78 999.45 470.22C1004.32 466.65 1007.21 459.45 1008.12 448.59C1008.42 444.7 1008.57 439.74 1008.57 433.71L1008.57 341L1026.36 341C1035.14 341 1039.53 349.61 1039.53 366.82Z" />
						</g>
					</g>
					<g id="&lt;Group&gt;">
						<g id="&lt;Group&gt;">
							<path id="&lt;Compound Path&gt;" fill-rule="evenodd" class="shp1" d="M1069.1 341L1121.67 341C1134.8 341 1144.97 342.83 1152.17 346.47C1161.55 351.22 1168.57 358.38 1173.23 367.96C1177.1 375.76 1179.95 386.53 1181.76 400.27C1183.09 409.93 1183.76 419.22 1183.76 428.12C1183.76 443.81 1182.16 458.6 1178.95 472.5C1175.74 486.75 1170.38 497.22 1162.88 503.92C1156.22 509.85 1148.2 513.2 1138.82 513.97C1133.98 514.39 1128.26 514.6 1121.67 514.6L1084.72 514.6C1074.31 514.6 1069.1 506.76 1069.1 491.07L1069.1 341ZM1100.06 381.44L1100.06 474.16L1123.39 474.16C1133.62 474.16 1140.73 471.19 1144.72 465.26C1146.78 462.12 1148.48 457.96 1149.81 452.79C1151.81 445.16 1152.8 436.85 1152.8 427.86C1152.8 416.5 1151.32 406.67 1148.36 398.36C1145.75 391.15 1141.88 386.28 1136.74 383.73C1133.53 382.21 1129.08 381.44 1123.39 381.44L1100.06 381.44Z" />
						</g>
					</g>
					<g id="&lt;Group&gt;">
						<g id="&lt;Group&gt;">
							<path id="&lt;Compound Path&gt;" class="shp1" d="M1279.52 451.14L1279.52 514.6L1259.55 514.6C1252.77 514.6 1249.38 508.46 1249.38 496.16L1249.38 444.52L1205.44 341L1241.3 341L1265.72 403.7L1290.14 341L1326 341L1279.52 451.14Z" />
						</g>
					</g>
					<g id="&lt;Group&gt;">
						<g id="&lt;Group&gt;">
							<path id="&lt;Compound Path&gt;" class="shp2" d="M712.81 662.66L712.81 735.46L681.4 735.46C669.13 735.46 663 727.88 663 712.73L663 544L691.42 544C705.68 544 712.81 549.75 712.81 561.25L712.81 616.66L814.84 616.66L814.84 544L843.86 544C857.22 544 863.9 551.06 863.9 565.18L863.9 735.46L832.49 735.46C820.72 735.46 814.84 729.24 814.84 716.8L814.84 662.66L712.81 662.66Z" />
						</g>
					</g>
					<g id="&lt;Group&gt;">
						<g id="&lt;Group&gt;">
							<path id="&lt;Compound Path&gt;" class="shp2" d="M1100.98 572.47L1100.98 656.77C1100.98 682.02 1092.51 701.7 1075.55 715.82C1058.6 729.94 1034.36 737 1002.85 737C973.33 737 951.09 729.73 936.13 715.19C921.17 700.65 913.69 682.16 913.69 659.72L913.69 544L943.01 544C957.47 544 964.71 553.03 964.71 571.07L964.71 646.25C964.71 655.32 965.45 662.24 966.95 667.01C969.74 676.08 974.95 682.58 982.58 686.51C990.21 690.43 998.71 692.4 1008.09 692.4C1017.96 692.4 1026.91 690.43 1034.94 686.51C1042.96 682.58 1047.73 674.63 1049.23 662.66C1049.72 658.36 1049.97 652.89 1049.97 646.25L1049.97 544L1079.29 544C1093.75 544 1100.98 553.49 1100.98 572.47Z" />
						</g>
					</g>
					<g id="&lt;Group&gt;">
						<g id="&lt;Group&gt;">
							<path id="&lt;Compound Path&gt;" fill-rule="evenodd" class="shp2" d="M1301.86 639.66C1316.62 644.15 1324 654.11 1324 669.53L1324 689.17C1324 720.03 1308.04 735.46 1276.13 735.46L1161.84 735.46C1149.77 735.46 1143.74 728.86 1143.74 715.68L1143.74 544L1278.82 544C1308.94 544.84 1324 560.27 1324 590.29L1324 609.92C1324 625.35 1316.62 635.26 1301.86 639.66ZM1255.79 617.64C1266.26 617.64 1271.49 613.62 1271.49 605.57L1271.49 601.09C1271.49 593.05 1266.46 589.02 1256.38 589.02L1193.41 589.02L1193.41 617.64L1255.79 617.64ZM1193.41 661.82L1193.41 691.13L1256.38 691.13C1266.46 691.13 1271.49 687.12 1271.49 679.07L1271.49 673.88C1271.49 665.84 1266.26 661.82 1255.79 661.82L1193.41 661.82Z" />
						</g>
					</g>
				</g>
				<g id="&lt;Group&gt;">
					<path id="&lt;Path&gt;" class="shp3" d="M965.08 99.17C956.75 80.84 938.6 69 918.86 69L887.13 69L1004.55 307.9L1004.72 308.26L1068.15 308.26L965.08 99.17Z" />
					<path id="&lt;Path&gt;" class="shp3" d="M808.39 223.74L837.46 220.17L889.64 114.83C892.56 108.92 892.75 102.04 890.16 95.96L882.58 78.24L808.94 222.66L808.39 223.74Z" />
					<path id="&lt;Path&gt;" class="shp3" d="M930.59 209.26C930.42 209.26 913.57 208.57 909.29 206.82C904.98 205.05 867.67 177.66 867.29 177.38L866.7 176.95L847.75 215.54C839.83 232.35 817.35 230.19 817.04 230.16C810.02 230.32 804.72 232.3 801.31 236.05C797.15 240.59 797.35 246.03 797.36 246.26L797.38 246.87L943.43 246.87L931.02 209.28L930.59 209.26Z" />
					<path id="&lt;Path&gt;" class="shp3" d="M777.75 247.78C780.74 247.78 786.38 245.79 792.07 233.2L817.06 180.11L817.39 179.4L816.72 179.11C816.55 179.05 812.55 177.42 806.92 179.09C801.8 180.62 794.32 185.33 787.75 199.08L770.96 235.27C770.87 235.44 768.73 239.34 770.03 242.89C770.83 245.07 772.73 246.59 775.56 247.36C775.67 247.41 776.46 247.78 777.75 247.78Z" />
					<path id="&lt;Path&gt;" class="shp3" d="M789.85 260.89C789.7 261.11 774.96 283.69 774.33 315.7C774.3 317.13 775.02 318.38 776.2 318.96C776.61 319.16 777.04 319.26 777.46 319.26C778.22 319.26 778.97 318.93 779.55 318.31C785.33 312.23 795.76 300.38 800.81 289.45L814.84 260.6L790.04 260.6L789.85 260.89Z" />
				</g>
			</g>
			<g id="&lt;Group&gt;">
				<path id="&lt;Path&gt;" class="shp3" d="M535.48 747L109.27 747C59.83 747 19.76 700.58 19.76 643.32L19.76 149.68C19.76 92.42 59.83 46 109.27 46L535.48 46C584.92 46 625 92.42 625 149.68L625 643.32C625 700.58 584.92 747 535.48 747Z" />
				<path id="&lt;Path&gt;" class="shp4" d="M363.31 580.55L289.77 580.55L259.86 619.24L259.86 198.75C259.86 184.95 269.52 173.76 281.44 173.76L363.31 173.76C375.23 173.76 384.89 184.95 384.89 198.75L384.89 555.56C384.89 569.36 375.23 580.55 363.31 580.55Z" />
				<g id="&lt;Group&gt;">
					<path id="&lt;Path&gt;" class="shp3" d="M291.42 520.27L283.98 520.27C282.54 520.27 281.36 518.92 281.36 517.24L281.36 236.77C281.36 235.09 282.54 233.73 283.98 233.73L291.42 233.73C292.87 233.73 294.04 235.09 294.04 236.77L294.04 517.24C294.04 518.92 292.87 520.27 291.42 520.27Z" />
					<path id="&lt;Path&gt;" class="shp3" d="M360.19 492.49L352.75 492.49C351.3 492.49 350.13 491.13 350.13 489.45L350.13 236.77C350.13 235.09 351.3 233.73 352.75 233.73L360.19 233.73C361.63 233.73 362.81 235.09 362.81 236.77L362.81 489.45C362.81 491.13 361.63 492.49 360.19 492.49Z" />
					<path id="&lt;Path&gt;" class="shp3" d="M326.65 462.23L319.21 462.23C317.76 462.23 316.59 460.87 316.59 459.19L316.59 253.91C316.59 252.23 317.76 250.87 319.21 250.87L326.65 250.87C328.1 250.87 329.27 252.23 329.27 253.91L329.27 459.19C329.27 460.87 328.1 462.23 326.65 462.23Z" />
				</g>
			</g>
		</g>
	</g>
</svg>