<svg version="1.2" baseProfile="tiny-ps" xmlns="http://www.w3.org/2000/svg" viewBox="0 0 1366 768" width="180" height="101">
	<title>IAS STUDY HUB logo-ai</title>
	<style>
		tspan { white-space:pre }
		.shp0 { display: none;fill: #f2f2f2 } 
		.shp1 { fill: #595c68 } 
		.shp2 { fill: #f22700 } 
		.shp3 { fill: #ffffff } 
	</style>
	<g id="Layer 1">
		<path id="&lt;Path&gt;" class="shp0" d="M1420 838L54 838L54 70L1420 70L1420 838Z" />
		<g id="&lt;Group&gt;">
			<g id="&lt;Group&gt;">
				<g id="&lt;Group&gt;">
					<g id="&lt;Group&gt;">
						<path id="&lt;Compound Path&gt;" class="shp1" d="M660 67L691.68 67C708.05 67 716.24 79.03 716.24 103.08L716.24 309.62L678.97 309.62C666.32 309.62 660 301.03 660 283.84L660 67Z" />
					</g>
				</g>
				<g id="&lt;Group&gt;">
					<g id="&lt;Group&gt;">
						<path id="&lt;Compound Path&gt;" class="shp1" d="M1159.26 64.92L1316.29 64.92L1316.46 89.2C1316.46 110.01 1306.74 120.41 1287.32 120.41L1175.35 120.41C1165.41 120.41 1160.44 124.63 1160.44 133.07L1160.44 142.78C1160.44 150.41 1165.86 154.22 1176.7 154.22L1264.96 154.22C1300.98 154.22 1319 172.72 1319 209.71L1319 244.39C1319 282.54 1300.98 301.62 1264.96 301.62L1106.4 301.62L1106.4 277.51C1106.4 257.51 1115.61 247.51 1134.02 247.51L1242.43 247.51C1253.84 247.51 1259.54 242.55 1259.54 232.6L1259.54 223.24C1259.54 213.3 1253.67 208.33 1241.92 208.33L1153.84 208.33C1118.6 208.33 1100.98 191.91 1100.98 159.08L1100.98 124.4C1100.98 84.75 1120.4 64.92 1159.26 64.92Z" />
					</g>
				</g>
				<g id="&lt;Group&gt;">
					<g id="&lt;Group&gt;">
						<g id="&lt;Group&gt;">
							<path id="&lt;Compound Path&gt;" class="shp1" d="M687.8 341L770.81 341L770.9 359.01C770.9 374.44 765.77 382.16 755.5 382.16L696.31 382.16C691.06 382.16 688.43 385.3 688.43 391.55L688.43 398.76C688.43 404.42 691.3 407.25 697.03 407.25L743.68 407.25C762.72 407.25 772.24 420.97 772.24 448.41L772.24 474.14C772.24 502.44 762.72 516.59 743.68 516.59L659.87 516.59L659.87 498.7C659.87 483.87 664.73 476.45 674.46 476.45L731.77 476.45C737.8 476.45 740.81 472.77 740.81 465.39L740.81 458.44C740.81 451.07 737.71 447.38 731.5 447.38L684.94 447.38C666.31 447.38 657 435.2 657 410.85L657 385.12C657 355.71 667.27 341 687.8 341Z" />
						</g>
					</g>
					<g id="&lt;Group&gt;">
						<g id="&lt;Group&gt;">
							<path id="&lt;Compound Path&gt;" class="shp1" d="M797.66 341L879.06 341C889.68 341 894.99 346.32 894.99 356.95L894.99 383.84L860.16 383.84L860.16 516.59L842.07 516.59C834.67 516.59 830.97 508.95 830.97 493.69L830.97 383.84L811.54 383.84C802.28 383.84 797.66 379.85 797.66 371.87L797.66 341Z" />
						</g>
					</g>
					<g id="&lt;Group&gt;">
						<g id="&lt;Group&gt;">
							<path id="&lt;Compound Path&gt;" class="shp1" d="M1032.34 367.11L1032.34 444.42C1032.34 467.58 1027.27 485.63 1017.12 498.58C1006.97 511.53 992.47 518 973.6 518C955.93 518 942.62 511.33 933.67 498C924.71 484.66 920.23 467.7 920.23 447.12L920.23 341L937.78 341C946.44 341 950.77 349.28 950.77 365.83L950.77 434.77C950.77 443.09 951.22 449.44 952.11 453.81C953.78 462.13 956.9 468.09 961.47 471.69C966.04 475.29 971.12 477.09 976.74 477.09C982.65 477.09 988 475.29 992.81 471.69C997.61 468.09 1000.47 460.8 1001.36 449.82C1001.66 445.88 1001.81 440.86 1001.81 434.77L1001.81 341L1019.36 341C1028.01 341 1032.34 349.71 1032.34 367.11Z" />
						</g>
					</g>
					<g id="&lt;Group&gt;">
						<g id="&lt;Group&gt;">
							<path id="&lt;Compound Path&gt;" fill-rule="evenodd" class="shp1" d="M1058.57 341L1110.42 341C1123.37 341 1133.4 342.85 1140.5 346.53C1149.75 351.34 1156.68 358.58 1161.28 368.27C1165.1 376.16 1167.9 387.05 1169.69 400.94C1171.01 410.72 1171.66 420.11 1171.66 429.11C1171.66 444.98 1170.08 459.94 1166.92 474.01C1163.75 488.41 1158.47 499.01 1151.07 505.78C1144.5 511.78 1136.59 515.17 1127.34 515.94C1122.56 516.37 1116.92 516.59 1110.42 516.59L1073.97 516.59C1063.7 516.59 1058.57 508.65 1058.57 492.79L1058.57 341ZM1089.1 381.91L1089.1 475.68L1112.12 475.68C1122.2 475.68 1129.22 472.68 1133.16 466.68C1135.19 463.5 1136.86 459.3 1138.17 454.07C1140.14 446.35 1141.13 437.95 1141.13 428.86C1141.13 417.37 1139.67 407.42 1136.74 399.01C1134.17 391.73 1130.35 386.79 1125.28 384.22C1122.11 382.68 1117.73 381.91 1112.12 381.91L1089.1 381.91Z" />
						</g>
					</g>
					<g id="&lt;Group&gt;">
						<g id="&lt;Group&gt;">
							<path id="&lt;Compound Path&gt;" class="shp1" d="M1264.15 453.44L1264.15 517.63L1244.45 517.63C1237.77 517.63 1234.42 511.41 1234.42 498.97L1234.42 446.75L1191.08 342.04L1226.45 342.04L1250.54 405.46L1274.63 342.04L1310 342.04L1264.15 453.44Z" />
						</g>
					</g>
					<g id="&lt;Group&gt;">
						<g id="&lt;Group&gt;">
							<path id="&lt;Compound Path&gt;" class="shp1" d="M706.91 661.89L706.91 735.44L676.07 735.44C664.02 735.44 658 727.79 658 712.48L658 542L685.91 542C699.91 542 706.91 547.81 706.91 559.43L706.91 615.41L807.08 615.41L807.08 542L835.57 542C848.69 542 855.26 549.14 855.26 563.4L855.26 735.44L824.41 735.44C812.86 735.44 807.08 729.16 807.08 716.59L807.08 661.89L706.91 661.89Z" />
						</g>
					</g>
					<g id="&lt;Group&gt;">
						<g id="&lt;Group&gt;">
							<path id="&lt;Compound Path&gt;" class="shp1" d="M1088.03 570.77L1088.03 655.94C1088.03 681.45 1079.71 701.34 1063.06 715.6C1046.42 729.87 1022.62 737 991.68 737C962.7 737 940.86 729.66 926.17 714.96C911.49 700.27 904.14 681.59 904.14 658.91L904.14 542L932.93 542C947.13 542 954.23 551.12 954.23 569.35L954.23 645.31C954.23 654.48 954.96 661.47 956.43 666.28C959.17 675.45 964.29 682.01 971.78 685.98C979.27 689.95 987.62 691.93 996.82 691.93C1006.52 691.93 1015.3 689.95 1023.19 685.98C1031.07 682.01 1035.74 673.99 1037.21 661.89C1037.7 657.55 1037.95 652.02 1037.95 645.31L1037.95 542L1066.74 542C1080.93 542 1088.03 551.59 1088.03 570.77Z" />
						</g>
					</g>
					<g id="&lt;Group&gt;">
						<g id="&lt;Group&gt;">
							<path id="&lt;Compound Path&gt;" fill-rule="evenodd" class="shp1" d="M1285.26 638.65C1299.75 643.18 1307 653.25 1307 668.84L1307 688.68C1307 719.85 1291.33 735.44 1260 735.44L1147.79 735.44C1135.94 735.44 1130.01 728.78 1130.01 715.46L1130.01 542L1262.64 542C1292.21 542.85 1307 558.44 1307 588.77L1307 608.61C1307 624.19 1299.75 634.21 1285.26 638.65ZM1240.02 616.4C1250.31 616.4 1255.45 612.34 1255.45 604.21L1255.45 599.68C1255.45 591.55 1250.5 587.49 1240.61 587.49L1178.78 587.49L1178.78 616.4L1240.02 616.4ZM1178.78 661.04L1178.78 690.66L1240.61 690.66C1250.5 690.66 1255.45 686.6 1255.45 678.47L1255.45 673.23C1255.45 665.1 1250.31 661.04 1240.02 661.04L1178.78 661.04Z" />
						</g>
					</g>
				</g>
				<g id="&lt;Group&gt;">
					<path id="&lt;Path&gt;" class="shp2" d="M965.08 93.17C956.75 74.84 938.6 63 918.86 63L887.13 63L1004.55 301.9L1004.72 302.26L1068.15 302.26L965.08 93.17Z" />
					<path id="&lt;Path&gt;" class="shp2" d="M808.39 217.74L837.46 214.17L889.64 108.83C892.56 102.92 892.75 96.04 890.16 89.96L882.58 72.24L808.94 216.66L808.39 217.74Z" />
					<path id="&lt;Path&gt;" class="shp2" d="M930.59 203.26C930.42 203.26 913.57 202.57 909.29 200.82C904.98 199.05 867.67 171.66 867.29 171.38L866.7 170.95L847.75 209.54C839.83 226.35 817.35 224.19 817.04 224.16C810.02 224.32 804.72 226.3 801.31 230.05C797.15 234.59 797.35 240.03 797.36 240.26L797.38 240.87L943.43 240.87L931.02 203.28L930.59 203.26Z" />
					<path id="&lt;Path&gt;" class="shp2" d="M777.75 241.78C780.74 241.78 786.38 239.79 792.07 227.2L817.06 174.11L817.39 173.4L816.72 173.11C816.55 173.05 812.55 171.42 806.92 173.09C801.8 174.62 794.32 179.33 787.75 193.08L770.96 229.27C770.87 229.44 768.73 233.34 770.03 236.89C770.83 239.07 772.73 240.59 775.56 241.36C775.67 241.41 776.46 241.78 777.75 241.78Z" />
					<path id="&lt;Path&gt;" class="shp2" d="M789.85 254.89C789.7 255.11 774.96 277.69 774.33 309.7C774.3 311.13 775.02 312.38 776.2 312.96C776.61 313.16 777.04 313.26 777.46 313.26C778.22 313.26 778.97 312.93 779.55 312.31C785.33 306.23 795.76 294.38 800.81 283.45L814.84 254.6L790.04 254.6L789.85 254.89Z" />
				</g>
			</g>
			<g id="&lt;Group&gt;">
				<path id="&lt;Path&gt;" class="shp2" d="M535.48 747L109.27 747C59.83 747 19.76 700.58 19.76 643.32L19.76 149.68C19.76 92.42 59.83 46 109.27 46L535.48 46C584.92 46 625 92.42 625 149.68L625 643.32C625 700.58 584.92 747 535.48 747Z" />
				<path id="&lt;Path&gt;" class="shp3" d="M363.31 580.55L289.77 580.55L259.86 619.24L259.86 198.75C259.86 184.95 269.52 173.76 281.44 173.76L363.31 173.76C375.23 173.76 384.89 184.95 384.89 198.75L384.89 555.56C384.89 569.36 375.23 580.55 363.31 580.55Z" />
				<g id="&lt;Group&gt;">
					<path id="&lt;Path&gt;" class="shp2" d="M291.42 520.27L283.98 520.27C282.54 520.27 281.36 518.92 281.36 517.24L281.36 236.77C281.36 235.09 282.54 233.73 283.98 233.73L291.42 233.73C292.87 233.73 294.04 235.09 294.04 236.77L294.04 517.24C294.04 518.92 292.87 520.27 291.42 520.27Z" />
					<path id="&lt;Path&gt;" class="shp2" d="M360.19 492.49L352.75 492.49C351.3 492.49 350.13 491.13 350.13 489.45L350.13 236.77C350.13 235.09 351.3 233.73 352.75 233.73L360.19 233.73C361.63 233.73 362.81 235.09 362.81 236.77L362.81 489.45C362.81 491.13 361.63 492.49 360.19 492.49Z" />
					<path id="&lt;Path&gt;" class="shp2" d="M326.65 462.23L319.21 462.23C317.76 462.23 316.59 460.87 316.59 459.19L316.59 253.91C316.59 252.23 317.76 250.87 319.21 250.87L326.65 250.87C328.1 250.87 329.27 252.23 329.27 253.91L329.27 459.19C329.27 460.87 328.1 462.23 326.65 462.23Z" />
				</g>
			</g>
		</g>
	</g>
</svg>