<svg version="1.2" baseProfile="tiny-ps" xmlns="http://www.w3.org/2000/svg" viewBox="0 0 1366 768" width="107" height="60">
	<title>IAS STUDY HUB logo-ai</title>
	<style>
		tspan { white-space:pre }
		.shp0 { display: none;fill: #f2f2f2 } 
		.shp1 { fill: #333333 } 
		.shp2 { fill: #1032b1 } 
		.shp3 { fill: #ffffff } 
	</style>
	<g id="Layer 1">
		<path id="&lt;Path&gt;" class="shp0" d="M1420 838L54 838L54 70L1420 70L1420 838Z" />
		<g id="&lt;Group&gt;">
			<g id="&lt;Group&gt;">
				<g id="&lt;Group&gt;">
					<g id="&lt;Group&gt;">
						<path id="&lt;Compound Path&gt;" class="shp1" d="M666.02 70.92L697.7 70.92C714.07 70.92 722.26 82.66 722.26 106.12L722.26 307.62L684.99 307.62C672.34 307.62 666.02 299.24 666.02 282.47L666.02 70.92Z" />
					</g>
				</g>
				<g id="&lt;Group&gt;">
					<g id="&lt;Group&gt;">
						<path id="&lt;Compound Path&gt;" class="shp1" d="M1159.26 70.92L1316.29 70.92L1316.46 95.2C1316.46 116.01 1306.74 126.41 1287.32 126.41L1175.35 126.41C1165.41 126.41 1160.44 130.63 1160.44 139.07L1160.44 148.78C1160.44 156.41 1165.86 160.22 1176.7 160.22L1264.96 160.22C1300.98 160.22 1319 178.72 1319 215.71L1319 250.39C1319 288.54 1300.98 307.62 1264.96 307.62L1106.4 307.62L1106.4 283.51C1106.4 263.51 1115.61 253.51 1134.02 253.51L1242.43 253.51C1253.84 253.51 1259.54 248.55 1259.54 238.6L1259.54 229.24C1259.54 219.3 1253.67 214.33 1241.92 214.33L1153.84 214.33C1118.6 214.33 1100.98 197.91 1100.98 165.08L1100.98 130.4C1100.98 90.75 1120.4 70.92 1159.26 70.92Z" />
					</g>
				</g>
				<g id="&lt;Group&gt;">
					<g id="&lt;Group&gt;">
						<g id="&lt;Group&gt;">
							<path id="&lt;Compound Path&gt;" class="shp1" d="M690.32 345L774.73 345L774.82 362.3C774.82 377.12 769.6 384.53 759.16 384.53L698.97 384.53C693.63 384.53 690.96 387.54 690.96 393.55L690.96 400.47C690.96 405.91 693.87 408.63 699.7 408.63L747.14 408.63C766.5 408.63 776.19 421.81 776.19 448.16L776.19 472.87C776.19 500.05 766.5 513.64 747.14 513.64L661.91 513.64L661.91 496.47C661.91 482.22 666.86 475.09 676.76 475.09L735.03 475.09C741.16 475.09 744.23 471.55 744.23 464.47L744.23 457.8C744.23 450.72 741.07 447.17 734.76 447.17L687.41 447.17C668.47 447.17 659 435.48 659 412.09L659 387.38C659 359.13 669.44 345 690.32 345Z" />
						</g>
					</g>
					<g id="&lt;Group&gt;">
						<g id="&lt;Group&gt;">
							<path id="&lt;Compound Path&gt;" class="shp1" d="M802.03 345L884.8 345C895.6 345 901 350.11 901 360.32L901 386.14L865.58 386.14L865.58 513.64L847.19 513.64C839.66 513.64 835.9 506.31 835.9 491.65L835.9 386.14L816.14 386.14C806.73 386.14 802.03 382.31 802.03 374.65L802.03 345Z" />
						</g>
					</g>
					<g id="&lt;Group&gt;">
						<g id="&lt;Group&gt;">
							<path id="&lt;Compound Path&gt;" class="shp1" d="M1040.67 370.08L1040.67 444.33C1040.67 466.57 1035.51 483.91 1025.19 496.34C1014.87 508.78 1000.12 515 980.94 515C962.97 515 949.43 508.6 940.33 495.79C931.22 482.98 926.67 466.69 926.67 446.93L926.67 345L944.51 345C953.31 345 957.72 352.95 957.72 368.84L957.72 435.07C957.72 443.06 958.17 449.15 959.08 453.35C960.78 461.34 963.95 467.06 968.6 470.52C973.24 473.98 978.42 475.71 984.12 475.71C990.13 475.71 995.58 473.98 1000.47 470.52C1005.35 467.06 1008.25 460.07 1009.16 449.52C1009.46 445.73 1009.62 440.92 1009.62 435.07L1009.62 345L1027.46 345C1036.26 345 1040.67 353.36 1040.67 370.08Z" />
						</g>
					</g>
					<g id="&lt;Group&gt;">
						<g id="&lt;Group&gt;">
							<path id="&lt;Compound Path&gt;" fill-rule="evenodd" class="shp1" d="M1067.33 345L1120.05 345C1133.22 345 1143.42 346.77 1150.65 350.31C1160.06 354.93 1167.1 361.89 1171.77 371.19C1175.65 378.77 1178.51 389.23 1180.33 402.57C1181.66 411.96 1182.33 420.98 1182.33 429.63C1182.33 444.87 1180.72 459.24 1177.51 472.75C1174.29 486.58 1168.92 496.76 1161.39 503.26C1154.71 509.03 1146.67 512.28 1137.26 513.02C1132.4 513.44 1126.67 513.64 1120.05 513.64L1082.99 513.64C1072.55 513.64 1067.33 506.02 1067.33 490.78L1067.33 345ZM1098.38 384.29L1098.38 474.35L1121.78 474.35C1132.04 474.35 1139.17 471.47 1143.18 465.7C1145.24 462.66 1146.94 458.62 1148.28 453.6C1150.28 446.18 1151.28 438.11 1151.28 429.38C1151.28 418.35 1149.8 408.79 1146.82 400.72C1144.21 393.72 1140.33 388.98 1135.17 386.51C1131.95 385.03 1127.49 384.29 1121.78 384.29L1098.38 384.29Z" />
						</g>
					</g>
					<g id="&lt;Group&gt;">
						<g id="&lt;Group&gt;">
							<path id="&lt;Compound Path&gt;" class="shp1" d="M1282.38 451.99L1282.38 513.64L1262.35 513.64C1255.55 513.64 1252.15 507.67 1252.15 495.73L1252.15 445.57L1208.08 345L1244.05 345L1268.54 405.91L1293.03 345L1329 345L1282.38 451.99Z" />
						</g>
					</g>
					<g id="&lt;Group&gt;">
						<g id="&lt;Group&gt;">
							<path id="&lt;Compound Path&gt;" class="shp2" d="M712.59 662.66L712.59 735.46L681.32 735.46C669.11 735.46 663 727.88 663 712.73L663 544L691.29 544C705.49 544 712.59 549.75 712.59 561.25L712.59 616.66L814.15 616.66L814.15 544L843.04 544C856.34 544 862.99 551.06 862.99 565.18L862.99 735.46L831.72 735.46C820 735.46 814.15 729.24 814.15 716.8L814.15 662.66L712.59 662.66Z" />
						</g>
					</g>
					<g id="&lt;Group&gt;">
						<g id="&lt;Group&gt;">
							<path id="&lt;Compound Path&gt;" class="shp2" d="M1099 572.47L1099 656.77C1099 682.02 1090.56 701.7 1073.68 715.82C1056.8 729.94 1032.68 737 1001.31 737C971.92 737 949.78 729.73 934.89 715.19C920 700.65 912.56 682.16 912.56 659.72L912.56 544L941.74 544C956.14 544 963.34 553.03 963.34 571.07L963.34 646.25C963.34 655.32 964.08 662.24 965.57 667.01C968.35 676.08 973.54 682.58 981.13 686.51C988.73 690.43 997.19 692.4 1006.52 692.4C1016.35 692.4 1025.26 690.43 1033.25 686.51C1041.24 682.58 1045.98 674.63 1047.47 662.66C1047.97 658.36 1048.22 652.89 1048.22 646.25L1048.22 544L1077.4 544C1091.8 544 1099 553.49 1099 572.47Z" />
						</g>
					</g>
					<g id="&lt;Group&gt;">
						<g id="&lt;Group&gt;">
							<path id="&lt;Compound Path&gt;" fill-rule="evenodd" class="shp2" d="M1298.96 639.66C1313.65 644.15 1321 654.11 1321 669.53L1321 689.17C1321 720.03 1305.11 735.46 1273.35 735.46L1159.58 735.46C1147.56 735.46 1141.56 728.86 1141.56 715.68L1141.56 544L1276.03 544C1306.01 544.84 1321 560.27 1321 590.29L1321 609.92C1321 625.35 1313.65 635.26 1298.96 639.66ZM1253.1 617.64C1263.52 617.64 1268.73 613.62 1268.73 605.57L1268.73 601.09C1268.73 593.05 1263.72 589.02 1253.69 589.02L1191 589.02L1191 617.64L1253.1 617.64ZM1191 661.82L1191 691.13L1253.69 691.13C1263.72 691.13 1268.73 687.12 1268.73 679.07L1268.73 673.88C1268.73 665.84 1263.52 661.82 1253.1 661.82L1191 661.82Z" />
						</g>
					</g>
				</g>
				<g id="&lt;Group&gt;">
					<path id="&lt;Path&gt;" class="shp2" d="M965.08 99.17C956.75 80.84 938.6 69 918.86 69L887.13 69L1004.55 307.9L1004.72 308.26L1068.15 308.26L965.08 99.17Z" />
					<path id="&lt;Path&gt;" class="shp2" d="M808.39 223.74L837.46 220.17L889.64 114.83C892.56 108.92 892.75 102.04 890.16 95.96L882.58 78.24L808.94 222.66L808.39 223.74Z" />
					<path id="&lt;Path&gt;" class="shp2" d="M930.59 209.26C930.42 209.26 913.57 208.57 909.29 206.82C904.98 205.05 867.67 177.66 867.29 177.38L866.7 176.95L847.75 215.54C839.83 232.35 817.35 230.19 817.04 230.16C810.02 230.32 804.72 232.3 801.31 236.05C797.15 240.59 797.35 246.03 797.36 246.26L797.38 246.87L943.43 246.87L931.02 209.28L930.59 209.26Z" />
					<path id="&lt;Path&gt;" class="shp2" d="M777.75 247.78C780.74 247.78 786.38 245.79 792.07 233.2L817.06 180.11L817.39 179.4L816.72 179.11C816.55 179.05 812.55 177.42 806.92 179.09C801.8 180.62 794.32 185.33 787.75 199.08L770.96 235.27C770.87 235.44 768.73 239.34 770.03 242.89C770.83 245.07 772.73 246.59 775.56 247.36C775.67 247.41 776.46 247.78 777.75 247.78Z" />
					<path id="&lt;Path&gt;" class="shp2" d="M789.85 260.89C789.7 261.11 774.96 283.69 774.33 315.7C774.3 317.13 775.02 318.38 776.2 318.96C776.61 319.16 777.04 319.26 777.46 319.26C778.22 319.26 778.97 318.93 779.55 318.31C785.33 312.23 795.76 300.38 800.81 289.45L814.84 260.6L790.04 260.6L789.85 260.89Z" />
				</g>
			</g>
			<g id="&lt;Group&gt;">
				<path id="&lt;Path&gt;" class="shp2" d="M535.48 747L109.27 747C59.83 747 19.76 700.58 19.76 643.32L19.76 149.68C19.76 92.42 59.83 46 109.27 46L535.48 46C584.92 46 625 92.42 625 149.68L625 643.32C625 700.58 584.92 747 535.48 747Z" />
				<path id="&lt;Path&gt;" class="shp3" d="M363.31 580.55L289.77 580.55L259.86 619.24L259.86 198.75C259.86 184.95 269.52 173.76 281.44 173.76L363.31 173.76C375.23 173.76 384.89 184.95 384.89 198.75L384.89 555.56C384.89 569.36 375.23 580.55 363.31 580.55Z" />
				<g id="&lt;Group&gt;">
					<path id="&lt;Path&gt;" class="shp2" d="M291.42 520.27L283.98 520.27C282.54 520.27 281.36 518.92 281.36 517.24L281.36 236.77C281.36 235.09 282.54 233.73 283.98 233.73L291.42 233.73C292.87 233.73 294.04 235.09 294.04 236.77L294.04 517.24C294.04 518.92 292.87 520.27 291.42 520.27Z" />
					<path id="&lt;Path&gt;" class="shp2" d="M360.19 492.49L352.75 492.49C351.3 492.49 350.13 491.13 350.13 489.45L350.13 236.77C350.13 235.09 351.3 233.73 352.75 233.73L360.19 233.73C361.63 233.73 362.81 235.09 362.81 236.77L362.81 489.45C362.81 491.13 361.63 492.49 360.19 492.49Z" />
					<path id="&lt;Path&gt;" class="shp2" d="M326.65 462.23L319.21 462.23C317.76 462.23 316.59 460.87 316.59 459.19L316.59 253.91C316.59 252.23 317.76 250.87 319.21 250.87L326.65 250.87C328.1 250.87 329.27 252.23 329.27 253.91L329.27 459.19C329.27 460.87 328.1 462.23 326.65 462.23Z" />
				</g>
			</g>
		</g>
	</g>
</svg>