<svg version="1.2" baseProfile="tiny-ps" xmlns="http://www.w3.org/2000/svg" viewBox="0 0 1366 768" width="150" height="84">
	<title>IAS STUDY HUB logo-ai</title>
	<style>
		tspan { white-space:pre }
		.shp0 { display: none;fill: #f2f2f2 } 
		.shp1 { fill: #595c68 } 
		.shp2 { fill: #f22700 } 
		.shp3 { fill: #ff2900 } 
		.shp4 { fill: #ffffff } 
	</style>
	<g id="Layer 1">
		<path id="&lt;Path&gt;" class="shp0" d="M1420 838L54 838L54 70L1420 70L1420 838Z" />
		<g id="&lt;Group&gt;">
			<g id="&lt;Group&gt;">
				<g id="&lt;Group&gt;">
					<g id="&lt;Group&gt;">
						<path id="&lt;Compound Path&gt;" class="shp1" d="M441 185.53L472.25 185.53C488.39 185.53 496.47 196.15 496.47 217.4L496.47 399.78L459.71 399.78C447.24 399.78 441 392.2 441 377.02L441 185.53Z" />
					</g>
				</g>
				<g id="&lt;Group&gt;">
					<g id="&lt;Group&gt;">
						<path id="&lt;Compound Path&gt;" class="shp1" d="M933.44 183.7L1088.33 183.7L1088.49 205.13C1088.49 223.51 1078.91 232.7 1059.75 232.7L949.31 232.7C939.51 232.7 934.61 236.43 934.61 243.88L934.61 252.45C934.61 259.19 939.95 262.56 950.65 262.56L1037.7 262.56C1073.23 262.56 1091 278.89 1091 311.56L1091 342.18C1091 375.87 1073.23 392.72 1037.7 392.72L881.31 392.72L881.31 371.43C881.31 353.77 890.38 344.94 908.54 344.94L1015.48 344.94C1026.73 344.94 1032.35 340.55 1032.35 331.77L1032.35 323.5C1032.35 314.73 1026.56 310.33 1014.98 310.33L928.09 310.33C893.34 310.33 875.96 295.84 875.96 266.85L875.96 236.22C875.96 201.21 895.12 183.7 933.44 183.7Z" />
					</g>
				</g>
				<g id="&lt;Group&gt;">
					<g id="&lt;Group&gt;">
						<g id="&lt;Group&gt;">
							<path id="&lt;Compound Path&gt;" class="shp1" d="M453.48 427.55L522.28 427.44L522.38 440.35C522.4 451.41 518.15 456.94 509.64 456.96L460.58 457.04C456.23 457.04 454.05 459.29 454.06 463.77L454.07 468.94C454.08 472.99 456.46 475.01 461.21 475.01L499.88 474.95C515.66 474.92 523.57 484.74 523.61 504.4L523.64 522.84C523.68 543.11 515.8 553.26 500.02 553.29L430.54 553.4L430.52 540.59C430.5 529.96 434.52 524.63 442.59 524.62L490.09 524.55C495.09 524.54 497.58 521.89 497.58 516.61L497.57 511.63C497.56 506.35 494.98 503.71 489.83 503.72L451.24 503.78C435.8 503.8 428.06 495.09 428.03 477.64L428 459.21C427.96 438.13 436.45 427.58 453.48 427.55Z" />
						</g>
					</g>
					<g id="&lt;Group&gt;">
						<g id="&lt;Group&gt;">
							<path id="&lt;Compound Path&gt;" class="shp1" d="M544.54 427.41L612 427.3C620.81 427.29 625.22 431.09 625.24 438.71L625.27 457.97L596.4 458.02L596.57 553.13L581.57 553.16C575.44 553.17 572.36 547.71 572.34 536.77L572.2 458.06L556.1 458.08C548.42 458.09 544.59 455.24 544.58 449.53L544.54 427.41Z" />
						</g>
					</g>
					<g id="&lt;Group&gt;">
						<g id="&lt;Group&gt;">
							<path id="&lt;Compound Path&gt;" class="shp1" d="M739.1 445.81L739.2 501.2C739.23 517.79 735.04 530.74 726.65 540.03C718.25 549.32 706.24 553.98 690.6 554C675.95 554.02 664.91 549.26 657.47 539.72C650.03 530.18 646.3 518.03 646.27 503.29L646.14 427.25L660.69 427.23C667.86 427.21 671.46 433.14 671.48 445L671.57 494.4C671.58 500.36 671.96 504.9 672.7 508.04C674.1 514 676.69 518.26 680.48 520.84C684.27 523.41 688.49 524.69 693.15 524.69C698.04 524.68 702.48 523.38 706.46 520.79C710.44 518.21 712.79 512.98 713.52 505.12C713.76 502.29 713.88 498.7 713.87 494.33L713.75 427.14L728.3 427.12C735.48 427.11 739.08 433.34 739.1 445.81Z" />
						</g>
					</g>
					<g id="&lt;Group&gt;">
						<g id="&lt;Group&gt;">
							<path id="&lt;Compound Path&gt;" fill-rule="evenodd" class="shp1" d="M760.8 427.07L803.78 427C814.51 426.98 822.83 428.29 828.72 430.92C836.4 434.35 842.15 439.54 845.97 446.47C849.15 452.12 851.49 459.92 852.99 469.87C854.09 476.87 854.65 483.6 854.66 490.05C854.68 501.42 853.39 512.15 850.78 522.23C848.18 532.55 843.81 540.15 837.69 545.01C832.25 549.32 825.7 551.76 818.03 552.32C814.07 552.64 809.39 552.8 804 552.81L773.79 552.85C765.28 552.87 761.02 547.19 761 535.82L760.8 427.07ZM786.17 456.34L786.29 523.53L805.36 523.5C813.72 523.48 819.53 521.32 822.79 517.02C824.47 514.74 825.85 511.73 826.93 507.98C828.55 502.45 829.36 496.42 829.35 489.91C829.33 481.68 828.11 474.55 825.67 468.53C823.54 463.31 820.36 459.79 816.15 457.95C813.53 456.85 809.89 456.3 805.24 456.31L786.17 456.34Z" />
						</g>
					</g>
					<g id="&lt;Group&gt;">
						<g id="&lt;Group&gt;">
							<path id="&lt;Compound Path&gt;" class="shp1" d="M931.35 507.36L931.44 553.35L915.11 553.38C909.56 553.39 906.79 548.94 906.77 540.03L906.7 502.61L870.65 427.64L899.96 427.59L920.01 473L939.9 427.53L969.21 427.48L931.35 507.36Z" />
						</g>
					</g>
					<g id="&lt;Group&gt;">
						<g id="&lt;Group&gt;">
							<path id="&lt;Compound Path&gt;" class="shp1" d="M1040.36 503.79L1040.36 550.9L1024.29 550.9C1018.02 550.9 1014.88 546 1014.88 536.2L1014.88 427L1029.42 427C1036.71 427 1040.36 430.72 1040.36 438.16L1040.36 474.02L1092.55 474.02L1092.55 427L1107.39 427C1114.23 427 1117.65 431.57 1117.65 440.71L1117.65 550.9L1101.58 550.9C1095.56 550.9 1092.55 546.88 1092.55 538.83L1092.55 503.79L1040.36 503.79Z" />
						</g>
					</g>
					<g id="&lt;Group&gt;">
						<g id="&lt;Group&gt;">
							<path id="&lt;Compound Path&gt;" class="shp1" d="M1238.92 445.43L1238.92 499.98C1238.92 516.32 1234.58 529.06 1225.91 538.19C1217.24 547.33 1204.84 551.9 1188.72 551.9C1173.62 551.9 1162.25 547.2 1154.6 537.79C1146.94 528.38 1143.12 516.41 1143.12 501.89L1143.12 427L1158.12 427C1165.51 427 1169.21 432.84 1169.21 444.52L1169.21 493.17C1169.21 499.04 1169.59 503.52 1170.36 506.61C1171.79 512.48 1174.45 516.68 1178.36 519.22C1182.26 521.76 1186.61 523.04 1191.4 523.04C1196.45 523.04 1201.03 521.76 1205.14 519.22C1209.24 516.68 1211.68 511.54 1212.45 503.79C1212.7 501.01 1212.83 497.47 1212.83 493.17L1212.83 427L1227.83 427C1235.22 427 1238.92 433.14 1238.92 445.43Z" />
						</g>
					</g>
					<g id="&lt;Group&gt;">
						<g id="&lt;Group&gt;">
							<path id="&lt;Compound Path&gt;" fill-rule="evenodd" class="shp1" d="M1341.67 488.91C1349.22 491.81 1353 498.26 1353 508.24L1353 520.95C1353 540.92 1344.84 550.9 1328.51 550.9L1270.05 550.9C1263.88 550.9 1260.79 546.64 1260.79 538.1L1260.79 427L1329.89 427C1345.3 427.54 1353 437.53 1353 456.95L1353 469.66C1353 479.65 1349.22 486.06 1341.67 488.91ZM1318.11 474.65C1323.46 474.65 1326.14 472.05 1326.14 466.85L1326.14 463.94C1326.14 458.74 1323.56 456.14 1318.41 456.14L1286.2 456.14L1286.2 474.65L1318.11 474.65ZM1286.2 503.25L1286.2 522.22L1318.41 522.22C1323.56 522.22 1326.14 519.62 1326.14 514.41L1326.14 511.05C1326.14 505.85 1323.46 503.25 1318.11 503.25L1286.2 503.25Z" />
						</g>
					</g>
				</g>
				<g id="&lt;Group&gt;">
					<path id="&lt;Path&gt;" class="shp2" d="M741.91 208.64C733.69 192.46 715.8 182 696.32 182L665.03 182L780.84 392.97L781.02 393.28L843.57 393.28L741.91 208.64Z" />
					<path id="&lt;Path&gt;" class="shp2" d="M587.36 318.65L616.04 315.49L667.5 222.47C670.39 217.25 670.58 211.18 668.01 205.81L660.54 190.16L587.9 317.7L587.36 318.65Z" />
					<path id="&lt;Path&gt;" class="shp2" d="M707.9 305.86C707.73 305.86 691.11 305.25 686.88 303.7C682.63 302.14 645.83 277.95 645.46 277.71L644.87 277.33L626.19 311.4C618.38 326.25 596.2 324.35 595.89 324.31C588.97 324.46 583.75 326.21 580.38 329.51C576.28 333.53 576.47 338.33 576.48 338.53L576.51 339.07L720.56 339.07L708.32 305.88L707.9 305.86Z" />
					<path id="&lt;Path&gt;" class="shp2" d="M557.14 339.88C560.09 339.88 565.66 338.12 571.26 327L595.92 280.12L596.24 279.49L595.58 279.24C595.42 279.18 591.47 277.75 585.92 279.22C580.86 280.57 573.48 284.73 567 296.87L550.45 328.83C550.35 328.98 548.24 332.42 549.53 335.56C550.32 337.49 552.19 338.83 554.99 339.51C555.09 339.55 555.87 339.88 557.14 339.88Z" />
					<path id="&lt;Path&gt;" class="shp2" d="M569.07 351.46C568.93 351.65 554.39 371.59 553.77 399.86C553.74 401.12 554.45 402.22 555.62 402.73C556.02 402.91 556.44 403 556.86 403C557.61 403 558.34 402.71 558.92 402.17C564.61 396.79 574.91 386.32 579.89 376.68L593.72 351.2L569.26 351.2L569.07 351.46Z" />
				</g>
			</g>
			<g id="&lt;Group&gt;">
				<path id="&lt;Path&gt;" class="shp3" d="M351.87 613L75.13 613C43.02 613 17 581.48 17 542.6L17 207.4C17 168.52 43.02 137 75.13 137L351.87 137C383.98 137 410 168.52 410 207.4L410 542.6C410 581.48 383.98 613 351.87 613Z" />
				<path id="&lt;Path&gt;" class="shp4" d="M240.08 499.97L192.33 499.97L172.91 526.25L172.91 240.72C172.91 231.35 179.18 223.75 186.92 223.75L240.08 223.75C247.82 223.75 254.09 231.35 254.09 240.72L254.09 483.01C254.09 492.38 247.82 499.97 240.08 499.97Z" />
				<g id="&lt;Group&gt;">
					<path id="&lt;Path&gt;" class="shp2" d="M193.4 459.05L188.57 459.05C187.63 459.05 186.87 458.12 186.87 456.98L186.87 266.54C186.87 265.4 187.63 264.47 188.57 264.47L193.4 264.47C194.34 264.47 195.1 265.4 195.1 266.54L195.1 456.98C195.1 458.12 194.34 459.05 193.4 459.05Z" />
					<path id="&lt;Path&gt;" class="shp2" d="M238.05 440.18L233.22 440.18C232.28 440.18 231.52 439.25 231.52 438.12L231.52 266.54C231.52 265.4 232.28 264.47 233.22 264.47L238.05 264.47C238.99 264.47 239.75 265.4 239.75 266.54L239.75 438.12C239.75 439.25 238.99 440.18 238.05 440.18Z" />
					<path id="&lt;Path&gt;" class="shp2" d="M216.27 419.63L211.44 419.63C210.5 419.63 209.74 418.71 209.74 417.57L209.74 278.17C209.74 277.04 210.5 276.11 211.44 276.11L216.27 276.11C217.21 276.11 217.98 277.04 217.98 278.17L217.98 417.57C217.98 418.71 217.21 419.63 216.27 419.63Z" />
				</g>
			</g>
		</g>
	</g>
</svg>