<svg version="1.2" baseProfile="tiny-ps" xmlns="http://www.w3.org/2000/svg" viewBox="0 0 1366 768" width="107" height="60">
	<title>IAS STUDY HUB logo-ai</title>
	<style>
		tspan { white-space:pre }
		.shp0 { display: none;fill: #f2f2f2 } 
		.shp1 { fill: #595c68 } 
		.shp2 { fill: #f22700 } 
		.shp3 { fill: #ff2900 } 
		.shp4 { fill: #ffffff } 
	</style>
	<g id="Layer 1">
		<path id="&lt;Path&gt;" class="shp0" d="M1420 838L54 838L54 70L1420 70L1420 838Z" />
		<g id="&lt;Group&gt;">
			<g id="&lt;Group&gt;">
				<g id="&lt;Group&gt;">
					<g id="&lt;Group&gt;">
						<path id="&lt;Compound Path&gt;" class="shp1" d="M413 199.39L444.29 199.39C460.47 199.39 468.56 209.58 468.56 229.95L468.56 404.91L431.74 404.91C419.25 404.91 413 397.64 413 383.08L413 199.39Z" />
					</g>
				</g>
				<g id="&lt;Group&gt;">
					<g id="&lt;Group&gt;">
						<path id="&lt;Compound Path&gt;" class="shp1" d="M906.2 197.63L1061.32 197.63L1061.49 218.19C1061.49 235.82 1051.89 244.63 1032.71 244.63L922.09 244.63C912.27 244.63 907.37 248.21 907.37 255.36L907.37 263.58C907.37 270.05 912.72 273.28 923.43 273.28L1010.62 273.28C1046.2 273.28 1064 288.95 1064 320.28L1064 349.66C1064 381.98 1046.2 398.14 1010.62 398.14L853.98 398.14L853.98 377.72C853.98 360.78 863.08 352.31 881.26 352.31L988.36 352.31C999.63 352.31 1005.26 348.1 1005.26 339.67L1005.26 331.74C1005.26 323.32 999.46 319.11 987.86 319.11L900.84 319.11C866.03 319.11 848.63 305.2 848.63 277.39L848.63 248.01C848.63 214.42 867.82 197.63 906.2 197.63Z" />
					</g>
				</g>
				<g id="&lt;Group&gt;">
					<g id="&lt;Group&gt;">
						<g id="&lt;Group&gt;">
							<path id="&lt;Compound Path&gt;" class="shp1" d="M433.48 425.59L502.28 425.47L502.38 439.19C502.4 450.95 498.15 456.83 489.64 456.85L440.58 456.93C436.23 456.93 434.05 459.32 434.06 464.09L434.07 469.58C434.08 473.89 436.46 476.04 441.21 476.03L479.88 475.97C495.66 475.94 503.57 486.38 503.61 507.28L503.64 526.87C503.68 548.43 495.8 559.22 480.02 559.24L410.54 559.36L410.52 545.74C410.5 534.44 414.52 528.79 422.59 528.77L470.09 528.69C475.09 528.68 477.58 525.87 477.58 520.25L477.57 514.96C477.56 509.35 474.98 506.54 469.83 506.55L431.24 506.62C415.8 506.64 408.06 497.38 408.03 478.83L408 459.24C407.96 436.83 416.45 425.62 433.48 425.59Z" />
						</g>
					</g>
					<g id="&lt;Group&gt;">
						<g id="&lt;Group&gt;">
							<path id="&lt;Compound Path&gt;" class="shp1" d="M524.54 425.44L592 425.32C600.81 425.31 605.22 429.35 605.24 437.45L605.27 457.92L576.4 457.97L576.57 559.08L561.57 559.11C555.44 559.12 552.36 553.31 552.34 541.68L552.2 458.01L536.1 458.04C528.42 458.05 524.59 455.02 524.58 448.95L524.54 425.44Z" />
						</g>
					</g>
					<g id="&lt;Group&gt;">
						<g id="&lt;Group&gt;">
							<path id="&lt;Compound Path&gt;" class="shp1" d="M719.1 445L719.2 503.88C719.23 521.51 715.04 535.27 706.65 545.15C698.25 555.02 686.24 559.97 670.6 560C655.95 560.02 644.91 554.97 637.47 544.82C630.03 534.68 626.3 521.77 626.27 506.09L626.14 425.26L640.69 425.24C647.86 425.23 651.46 431.53 651.48 444.13L651.57 496.64C651.58 502.98 651.96 507.81 652.7 511.14C654.1 517.48 656.69 522.01 660.48 524.75C664.27 527.48 668.49 528.85 673.15 528.84C678.04 528.83 682.48 527.45 686.46 524.7C690.44 521.95 692.79 516.4 693.52 508.04C693.76 505.03 693.88 501.21 693.87 496.57L693.75 425.15L708.3 425.13C715.48 425.11 719.08 431.74 719.1 445Z" />
						</g>
					</g>
					<g id="&lt;Group&gt;">
						<g id="&lt;Group&gt;">
							<path id="&lt;Compound Path&gt;" fill-rule="evenodd" class="shp1" d="M740.8 425.07L783.78 425C794.51 424.98 802.83 426.37 808.72 429.17C816.4 432.82 822.15 438.33 825.97 445.7C829.15 451.7 831.49 459.99 832.99 470.57C834.09 478.02 834.65 485.17 834.66 492.03C834.68 504.11 833.39 515.51 830.78 526.22C828.18 537.2 823.81 545.28 817.69 550.45C812.25 555.03 805.7 557.62 798.03 558.22C794.07 558.55 789.39 558.72 784 558.73L753.79 558.78C745.28 558.8 741.02 552.76 741 540.68L740.8 425.07ZM766.17 456.18L766.29 527.61L785.36 527.57C793.72 527.56 799.53 525.27 802.79 520.69C804.47 518.27 805.85 515.07 806.93 511.08C808.55 505.2 809.36 498.8 809.35 491.87C809.33 483.12 808.11 475.55 805.67 469.15C803.54 463.6 800.36 459.85 796.15 457.9C793.53 456.73 789.89 456.14 785.24 456.15L766.17 456.18Z" />
						</g>
					</g>
					<g id="&lt;Group&gt;">
						<g id="&lt;Group&gt;">
							<path id="&lt;Compound Path&gt;" class="shp1" d="M911.35 510.42L911.44 559.31L895.11 559.34C889.56 559.35 886.79 554.62 886.77 545.15L886.7 505.37L850.65 425.68L879.96 425.63L900.01 473.9L919.9 425.56L949.21 425.52L911.35 510.42Z" />
						</g>
					</g>
					<g id="&lt;Group&gt;">
						<g id="&lt;Group&gt;">
							<path id="&lt;Compound Path&gt;" class="shp1" d="M1032.36 506.63L1032.36 556.71L1016.29 556.71C1010.02 556.71 1006.88 551.5 1006.88 541.08L1006.88 425L1021.42 425C1028.71 425 1032.36 428.96 1032.36 436.87L1032.36 474.98L1084.55 474.98L1084.55 425L1099.39 425C1106.23 425 1109.65 429.86 1109.65 439.57L1109.65 556.71L1093.58 556.71C1087.56 556.71 1084.55 552.43 1084.55 543.87L1084.55 506.63L1032.36 506.63Z" />
						</g>
					</g>
					<g id="&lt;Group&gt;">
						<g id="&lt;Group&gt;">
							<path id="&lt;Compound Path&gt;" class="shp1" d="M1230.92 444.59L1230.92 502.58C1230.92 519.94 1226.58 533.49 1217.91 543.2C1209.24 552.91 1196.84 557.77 1180.72 557.77C1165.62 557.77 1154.25 552.77 1146.6 542.76C1138.94 532.76 1135.12 520.04 1135.12 504.6L1135.12 425L1150.12 425C1157.51 425 1161.21 431.21 1161.21 443.62L1161.21 495.34C1161.21 501.58 1161.59 506.34 1162.36 509.62C1163.79 515.86 1166.45 520.33 1170.36 523.03C1174.26 525.73 1178.61 527.09 1183.4 527.09C1188.45 527.09 1193.03 525.73 1197.14 523.03C1201.24 520.33 1203.68 514.86 1204.45 506.63C1204.7 503.67 1204.83 499.91 1204.83 495.34L1204.83 425L1219.83 425C1227.22 425 1230.92 431.53 1230.92 444.59Z" />
						</g>
					</g>
					<g id="&lt;Group&gt;">
						<g id="&lt;Group&gt;">
							<path id="&lt;Compound Path&gt;" fill-rule="evenodd" class="shp1" d="M1333.67 490.81C1341.22 493.89 1345 500.74 1345 511.36L1345 524.87C1345 546.09 1336.84 556.71 1320.51 556.71L1262.05 556.71C1255.88 556.71 1252.79 552.17 1252.79 543.1L1252.79 425L1321.89 425C1337.3 425.58 1345 436.19 1345 456.84L1345 470.35C1345 480.96 1341.22 487.78 1333.67 490.81ZM1310.11 475.66C1315.46 475.66 1318.14 472.89 1318.14 467.36L1318.14 464.27C1318.14 458.74 1315.56 455.97 1310.41 455.97L1278.2 455.97L1278.2 475.66L1310.11 475.66ZM1278.2 506.05L1278.2 526.22L1310.41 526.22C1315.56 526.22 1318.14 523.45 1318.14 517.92L1318.14 514.35C1318.14 508.82 1315.46 506.05 1310.11 506.05L1278.2 506.05Z" />
						</g>
					</g>
				</g>
				<g id="&lt;Group&gt;">
					<path id="&lt;Path&gt;" class="shp2" d="M714.38 221.55C706.14 206.03 688.22 196 668.72 196L637.37 196L753.37 398.38L753.54 398.68L816.19 398.68L714.38 221.55Z" />
					<path id="&lt;Path&gt;" class="shp2" d="M559.59 327.08L588.31 324.06L639.85 234.83C642.74 229.82 642.93 223.99 640.36 218.84L632.87 203.83L560.13 326.17L559.59 327.08Z" />
					<path id="&lt;Path&gt;" class="shp2" d="M680.31 314.82C680.14 314.81 663.5 314.23 659.26 312.75C655 311.25 618.15 288.05 617.77 287.81L617.19 287.44L598.48 320.13C590.65 334.38 568.44 332.55 568.13 332.52C561.2 332.66 555.97 334.33 552.59 337.51C548.49 341.36 548.68 345.97 548.69 346.16L548.72 346.68L692.99 346.68L680.73 314.84L680.31 314.82Z" />
					<path id="&lt;Path&gt;" class="shp2" d="M529.32 347.45C532.28 347.45 537.85 345.76 543.46 335.1L568.15 290.12L568.48 289.52L567.81 289.28C567.65 289.23 563.7 287.85 558.14 289.26C553.08 290.56 545.69 294.54 539.2 306.19L522.61 336.85C522.52 336.99 520.41 340.3 521.7 343.31C522.49 345.15 524.36 346.44 527.16 347.09C527.26 347.14 528.05 347.45 529.32 347.45Z" />
					<path id="&lt;Path&gt;" class="shp2" d="M541.27 358.56C541.12 358.74 526.56 377.87 525.94 404.98C525.91 406.2 526.62 407.25 527.79 407.74C528.2 407.91 528.62 408 529.04 408C529.79 408 530.52 407.72 531.1 407.2C536.8 402.04 547.11 392 552.1 382.75L565.96 358.31L541.46 358.31L541.27 358.56Z" />
				</g>
			</g>
			<g id="&lt;Group&gt;">
				<path id="&lt;Path&gt;" class="shp3" d="M325.76 571L72.24 571C42.84 571 19 545.18 19 513.32L19 238.68C19 206.82 42.84 181 72.24 181L325.76 181C355.16 181 379 206.82 379 238.68L379 513.32C379 545.18 355.16 571 325.76 571Z" />
				<path id="&lt;Path&gt;" class="shp4" d="M223.35 478.4L179.6 478.4L161.82 499.92L161.82 265.98C161.82 258.3 167.56 252.08 174.65 252.08L223.35 252.08C230.44 252.08 236.18 258.3 236.18 265.98L236.18 464.49C236.18 472.17 230.44 478.4 223.35 478.4Z" />
				<g id="&lt;Group&gt;">
					<path id="&lt;Path&gt;" class="shp2" d="M180.59 444.86L176.16 444.86C175.3 444.86 174.6 444.11 174.6 443.17L174.6 287.13C174.6 286.2 175.3 285.44 176.16 285.44L180.59 285.44C181.45 285.44 182.15 286.2 182.15 287.13L182.15 443.17C182.15 444.11 181.45 444.86 180.59 444.86Z" />
					<path id="&lt;Path&gt;" class="shp2" d="M221.49 429.4L217.06 429.4C216.2 429.4 215.51 428.65 215.51 427.71L215.51 287.13C215.51 286.2 216.2 285.44 217.06 285.44L221.49 285.44C222.35 285.44 223.05 286.2 223.05 287.13L223.05 427.71C223.05 428.65 222.35 429.4 221.49 429.4Z" />
					<path id="&lt;Path&gt;" class="shp2" d="M201.54 412.57L197.12 412.57C196.26 412.57 195.56 411.81 195.56 410.88L195.56 296.67C195.56 295.74 196.26 294.98 197.12 294.98L201.54 294.98C202.4 294.98 203.1 295.74 203.1 296.67L203.1 410.88C203.1 411.81 202.4 412.57 201.54 412.57Z" />
				</g>
			</g>
		</g>
	</g>
</svg>