<svg version="1.2" baseProfile="tiny-ps" xmlns="http://www.w3.org/2000/svg" viewBox="0 0 2170 1000" width="2170" height="1000">
	<title>IAS Study Hub logo final-ai</title>
	<style>
		tspan { white-space:pre }
		.shp0 { fill: #2aa87e } 
	</style>
	<g id="Layer 1">
		<g id="&lt;Group&gt;">
		</g>
		<path id="&lt;Compound Path&gt;" fill-rule="evenodd" class="shp0" d="M1028.12 64.51C1269.66 64.51 1465.31 260.25 1465.31 501.37C1465.31 725.54 1296.99 909.79 1080.03 935.49L1107.36 733.74L1119.93 733.74C1127.03 733.74 1133.04 727.18 1133.04 719.52C1133.04 711.32 1127.03 704.76 1119.93 704.76L1118.83 704.76C1122.66 702.57 1124.84 697.65 1124.84 692.18C1124.84 684.53 1119.38 677.97 1112.28 677.97L943.96 677.97C936.85 677.97 931.39 684.53 931.39 692.18C931.39 697.65 933.57 702.57 937.4 704.76L936.31 704.76C929.2 704.76 923.19 711.32 923.19 719.52C923.19 727.18 929.2 733.74 936.31 733.74L948.88 733.74L976.2 935.49C759.25 909.79 590.93 725.54 590.93 501.37C590.93 260.25 786.57 64.51 1028.12 64.51ZM1102.85 656.92C1174.04 608.06 1174.01 474.18 1169.62 428.03C1163.23 437 1154.59 445.91 1142.86 454.11C1151.75 426.09 1139.08 390.51 1104.85 347.37C1053.51 282.66 1030.84 234.63 1056.84 138.56C983.04 196.21 930.84 279.62 900.26 388.8C899.59 388.8 849.13 589.25 971.49 660.26C946.82 641.58 932.15 610.22 932.82 573.53C934.15 528.16 968.16 504.15 970.16 483.47C977.49 513.49 964.16 532.17 973.49 542.84C978.16 548.18 984.83 546.84 988.16 540.84C990.83 536.39 990.83 530.83 988.16 524.16C975.27 473.02 995.27 429.65 1048.17 394.07C1034.17 446.11 1046.17 472.13 1074.18 506.82C1092.85 530.39 1099.74 549.73 1094.85 564.86C1114.85 550.62 1122.41 533.72 1117.52 514.15C1146.86 554.18 1142.86 621.56 1102.85 656.92ZM906.84 304.01C902.84 342.7 840.16 386.73 838.16 470.79C836.1 541.28 866.59 601.43 916.43 636.29C803.43 454.73 917.85 352.16 906.84 304.01ZM1105.47 265.38C1080.26 351.42 1153.72 351.82 1153.43 423.31C1184.87 333.64 1123.23 336.62 1105.47 265.38ZM1255.66 480.59C1141.49 497.77 1202.75 610.75 1125.23 656.74C1248.56 646.76 1193.58 554.11 1255.66 480.59Z" />
	</g>
</svg>