<svg version="1.2" baseProfile="tiny-ps" xmlns="http://www.w3.org/2000/svg" viewBox="0 0 2170 1000" width="2170" height="1000">
	<title>IAS Study Hub logo final-ai</title>
	<style>
		tspan { white-space:pre }
		.shp0 { fill: #2aa87e } 
		.txt1 { font-size: 222px;fill: #363e3a;font-weight: bold;font-family: "Century Gothic" } 
		.txt2 { font-size: 99px;line-height: 100px;fill: #363e3a;font-weight: bold;font-family: "Century Gothic" } 
		.txt3 { font-size: 99px;line-height: 100px;fill: #212423;font-weight: bold;font-family: "Century Gothic" } 
	</style>
	<g id="Layer 1">
		<g id="&lt;Group&gt;">
			<path id="&lt;Compound Path&gt;" fill-rule="evenodd" class="shp0" d="M265.87 197.37C406.69 197.12 520.97 317.69 521.24 466.47C521.49 604.79 423.57 718.67 297.12 734.76L312.82 610.24L320.15 610.22C324.29 610.21 327.79 606.16 327.78 601.44C327.77 596.38 324.26 592.33 320.12 592.34L319.48 592.34C321.71 590.99 322.98 587.95 322.97 584.58C322.96 579.85 319.77 575.81 315.63 575.82L217.5 576C213.36 576 210.18 580.06 210.19 584.78C210.2 588.16 211.48 591.19 213.71 592.54L213.07 592.54C208.93 592.54 205.43 596.6 205.44 601.66C205.45 606.38 208.96 610.43 213.1 610.42L220.43 610.4L236.59 734.87C110.08 719.24 11.75 605.73 11.49 467.4C11.22 318.62 125.06 197.63 265.87 197.37ZM310.11 562.84C351.55 532.62 351.39 450 348.78 421.53C345.06 427.07 340.03 432.58 333.2 437.66C338.36 420.36 330.93 398.42 310.93 371.83C280.92 331.96 267.65 302.34 282.7 243.04C239.74 278.69 209.41 330.21 191.7 397.61C191.31 397.61 162.12 521.36 233.53 565.04C219.13 553.54 210.54 534.21 210.89 511.57C211.62 483.57 231.41 468.72 232.56 455.95C236.87 474.47 229.11 486.01 234.57 492.59C237.29 495.87 241.18 495.04 243.12 491.34C244.67 488.59 244.66 485.16 243.1 481.04C235.52 449.5 247.14 422.72 277.94 400.71C269.83 432.83 276.86 448.87 293.22 470.25C304.14 484.77 308.17 496.71 305.34 506.04C316.99 497.24 321.37 486.8 318.5 474.73C335.65 499.4 333.39 540.98 310.11 562.84ZM195.44 345.29C193.15 369.17 156.66 396.4 155.59 448.27C154.47 491.77 172.31 528.85 201.41 550.31C135.32 438.4 201.92 374.99 195.44 345.29ZM311.19 321.24C296.59 374.35 339.42 374.52 339.33 418.64C357.56 363.27 321.63 365.18 311.19 321.24ZM398.99 453.87C332.46 464.6 368.3 534.25 323.16 562.7C395.04 556.41 362.88 499.3 398.99 453.87Z" />
			<text id="IAS " style="transform: matrix(2.278,-0.004,0.004,2.411,980.945,677.091)" >
				<tspan x="-212.986" y="0" class="txt1" dx="0 6 6 6" >IAS
</tspan>
			</text>
			<text id="Study Hub " style="transform: matrix(2.278,-0.004,0.004,2.411,1428.916,465.321)" >
				<tspan x="0" y="0" class="txt2">Study</tspan><tspan  y="0" class="txt3">
</tspan>
				<tspan x="0" y="100" class="txt2">Hub
</tspan>
			</text>
		</g>
	</g>
</svg>