<svg version="1.2" baseProfile="tiny-ps" xmlns="http://www.w3.org/2000/svg" viewBox="0 0 2170 1000" width="350" height="161">
	<title>IAS Study Hub logo final-ai</title>
	<style>
		tspan { white-space:pre }
		.shp0 { fill: #2aa87e } 
		.txt1 { font-size: 222px;fill: #5f5656;font-weight: bold;font-family: "Century Gothic" } 
		.txt2 { font-size: 99px;line-height: 100px;fill: #5f5656;font-weight: bold;font-family: "Century Gothic" } 
		.txt3 { font-size: 99px;line-height: 100px;fill: #000000;font-weight: bold;font-family: "Century Gothic" } 
	</style>
	<g id="Layer 1">
		<g id="&lt;Group&gt;">
			<path id="&lt;Compound Path&gt;" fill-rule="evenodd" class="shp0" d="M396.21 214.51C520.91 214.25 622.14 323.71 622.42 458.81C622.68 584.41 536 687.82 424.02 702.45L437.89 589.38L444.38 589.37C448.05 589.36 451.14 585.68 451.13 581.39C451.13 576.8 448.01 573.13 444.35 573.13L443.78 573.14C445.75 571.91 446.88 569.15 446.87 566.08C446.86 561.79 444.03 558.12 440.37 558.13L353.47 558.31C349.8 558.32 346.99 562 346.99 566.29C347 569.35 348.14 572.11 350.11 573.33L349.55 573.33C345.88 573.34 342.78 577.02 342.79 581.61C342.8 585.9 345.91 589.57 349.58 589.57L356.07 589.55L370.41 702.56C258.37 688.39 171.26 585.34 171 459.74C170.73 324.64 271.51 214.76 396.21 214.51ZM435.48 546.35C472.17 518.9 472 443.88 469.68 418.03C466.4 423.06 461.94 428.07 455.9 432.68C460.45 416.97 453.87 397.05 436.15 372.91C409.57 336.71 397.81 309.82 411.12 255.97C373.09 288.34 346.24 335.13 330.57 396.34C330.23 396.34 304.41 508.71 367.66 548.36C354.9 537.92 347.29 520.37 347.6 499.81C348.23 474.39 365.76 460.9 366.77 449.31C370.59 466.12 363.73 476.6 368.56 482.57C370.98 485.55 374.42 484.8 376.13 481.43C377.5 478.94 377.5 475.82 376.11 472.09C369.4 443.44 379.67 419.13 406.94 399.14C399.77 428.31 406 442.87 420.5 462.28C430.17 475.46 433.75 486.3 431.24 494.78C441.55 486.78 445.43 477.3 442.88 466.34C458.08 488.74 456.09 526.5 435.48 546.35ZM333.87 348.83C331.85 370.51 299.54 395.25 298.61 442.34C297.63 481.84 313.44 515.51 339.21 534.99C280.66 433.38 339.62 375.79 333.87 348.83ZM436.38 326.97C423.46 375.2 461.38 375.35 461.32 415.41C477.45 365.13 445.63 366.87 436.38 326.97ZM514.16 447.39C455.24 457.14 487 520.38 447.03 546.22C510.69 540.5 482.2 488.65 514.16 447.39Z" />
			<text id=" " style="transform: matrix(1,0,0,1,1107,758)" >
			</text>
			<text id="IAS " style="transform: matrix(2.017,-0.004,0.005,2.189,1032.583,651.613)" >
				<tspan x="-212.986" y="0" class="txt1" dx="0 6 6 6" >IAS
</tspan>
			</text>
			<text id="Study Hub " style="transform: matrix(2.017,-0.004,0.005,2.189,1438.345,455.779)" >
				<tspan x="0" y="0" class="txt2">Study</tspan><tspan  y="0" class="txt3">
</tspan>
				<tspan x="0" y="100" class="txt2">Hub
</tspan>
			</text>
		</g>
	</g>
</svg>