<svg version="1.2" baseProfile="tiny-ps" xmlns="http://www.w3.org/2000/svg" viewBox="0 0 2170 1000" width="750" height="346">
	<title>IAS Study Hub logo final-ai</title>
	<style>
		tspan { white-space:pre }
		.shp0 { fill: #2aa87e } 
		.txt1 { font-size: 222px;fill: #5f5656;font-weight: bold;font-family: "Century Gothic" } 
		.txt2 { font-size: 99px;line-height: 100px;fill: #5f5656;font-weight: bold;font-family: "Century Gothic" } 
		.txt3 { font-size: 99px;line-height: 100px;fill: #000000;font-weight: bold;font-family: "Century Gothic" } 
	</style>
	<g id="Layer 1">
		<g id="&lt;Group&gt;">
			<path id="&lt;Compound Path&gt;" fill-rule="evenodd" class="shp0" d="M346.21 214.51C470.91 214.25 572.14 323.71 572.42 458.81C572.68 584.41 486 687.82 374.02 702.45L387.89 589.38L394.38 589.37C398.05 589.36 401.14 585.68 401.13 581.39C401.13 576.8 398.01 573.13 394.35 573.13L393.78 573.14C395.75 571.91 396.88 569.15 396.87 566.08C396.86 561.79 394.03 558.12 390.37 558.13L303.47 558.31C299.8 558.32 296.99 562 296.99 566.29C297 569.35 298.14 572.11 300.11 573.33L299.55 573.33C295.88 573.34 292.78 577.02 292.79 581.61C292.8 585.9 295.91 589.57 299.58 589.57L306.07 589.55L320.41 702.56C208.37 688.39 121.26 585.34 121 459.74C120.73 324.64 221.51 214.76 346.21 214.51ZM385.48 546.35C422.17 518.9 422 443.88 419.68 418.03C416.4 423.06 411.94 428.07 405.9 432.68C410.45 416.97 403.87 397.05 386.15 372.91C359.57 336.71 347.81 309.82 361.12 255.97C323.09 288.34 296.24 335.13 280.57 396.34C280.23 396.34 254.41 508.71 317.66 548.36C304.9 537.92 297.29 520.37 297.6 499.81C298.23 474.39 315.76 460.9 316.77 449.31C320.59 466.12 313.73 476.6 318.56 482.57C320.98 485.55 324.42 484.8 326.13 481.43C327.5 478.94 327.5 475.82 326.11 472.09C319.4 443.44 329.67 419.13 356.94 399.14C349.77 428.31 356 442.87 370.5 462.28C380.17 475.46 383.75 486.3 381.24 494.78C391.55 486.78 395.43 477.3 392.88 466.34C408.08 488.74 406.09 526.5 385.48 546.35ZM283.87 348.83C281.85 370.51 249.54 395.25 248.61 442.34C247.63 481.84 263.44 515.51 289.21 534.99C230.66 433.38 289.62 375.79 283.87 348.83ZM386.38 326.97C373.46 375.2 411.38 375.35 411.32 415.41C427.45 365.13 395.63 366.87 386.38 326.97ZM464.16 447.39C405.24 457.14 437 520.38 397.03 546.22C460.69 540.5 432.2 488.65 464.16 447.39Z" />
			<text id=" " style="transform: matrix(1,0,0,1,1107,758)" >
			</text>
			<text id="IAS " style="transform: matrix(2.017,-0.004,0.005,2.189,1032.583,651.613)" >
				<tspan x="-212.986" y="0" class="txt1" dx="0 6 6 6" >IAS
</tspan>
			</text>
			<text id="Study Hub " style="transform: matrix(2.017,-0.004,0.005,2.189,1450.345,455.779)" >
				<tspan x="0" y="0" class="txt2">Study</tspan><tspan  y="0" class="txt3">
</tspan>
				<tspan x="0" y="100" class="txt2">Hub
</tspan>
			</text>
		</g>
	</g>
</svg>