<svg version="1.2" baseProfile="tiny-ps" xmlns="http://www.w3.org/2000/svg" viewBox="0 0 2170 1000" width="200" height="92">
	<title>IAS Study Hub logo final-ai</title>
	<style>
		tspan { white-space:pre }
		.shp0 { fill: #2aa87e } 
		.txt1 { font-size: 222px;fill: #5f5656;font-weight: bold;font-family: "Century Gothic" } 
		.txt2 { font-size: 99px;line-height: 100px;fill: #5f5656;font-weight: bold;font-family: "Century Gothic" } 
		.txt3 { font-size: 99px;line-height: 100px;fill: #000000;font-weight: bold;font-family: "Century Gothic" } 
	</style>
	<g id="Layer 1">
		<g id="&lt;Group&gt;">
			<path id="&lt;Compound Path&gt;" fill-rule="evenodd" class="shp0" d="M711.17 324.08C781.05 324.08 837.66 384.52 837.66 458.96C837.66 528.18 788.96 585.07 726.19 593L734.09 530.71L737.73 530.71C739.78 530.71 741.52 528.68 741.52 526.32C741.52 523.79 739.78 521.76 737.73 521.76L737.41 521.76C738.52 521.09 739.15 519.57 739.15 517.88C739.15 515.52 737.57 513.49 735.52 513.49L686.82 513.49C684.76 513.49 683.18 515.52 683.18 517.88C683.18 519.57 683.81 521.09 684.92 521.76L684.6 521.76C682.55 521.76 680.81 523.79 680.81 526.32C680.81 528.68 682.55 530.71 684.6 530.71L688.24 530.71L696.14 593C633.37 585.07 584.67 528.18 584.67 458.96C584.67 384.52 641.28 324.08 711.17 324.08ZM732.79 506.99C753.39 491.91 753.38 450.57 752.11 436.32C750.26 439.09 747.76 441.84 744.36 444.37C746.94 435.72 743.27 424.74 733.37 411.42C718.51 391.44 711.95 376.61 719.48 346.95C698.12 364.75 683.02 390.5 674.17 424.21C673.98 424.21 659.38 486.1 694.78 508.02C687.64 502.25 683.4 492.57 683.59 481.24C683.98 467.24 693.82 459.82 694.4 453.44C696.52 462.71 692.66 468.47 695.36 471.77C696.71 473.42 698.64 473.01 699.61 471.15C700.38 469.78 700.38 468.06 699.61 466C695.88 450.21 701.66 436.82 716.97 425.84C712.92 441.9 716.39 449.94 724.49 460.65C729.89 467.92 731.89 473.9 730.47 478.57C736.26 474.17 738.45 468.95 737.03 462.91C745.52 475.27 744.36 496.07 732.79 506.99ZM676.08 398.03C674.92 409.98 656.78 423.57 656.2 449.52C655.61 471.29 664.43 489.86 678.85 500.62C646.16 444.56 679.26 412.9 676.08 398.03ZM733.55 386.1C726.25 412.67 747.51 412.79 747.42 434.87C756.52 407.18 738.69 408.1 733.55 386.1ZM777 452.55C743.97 457.85 761.69 492.74 739.26 506.93C774.95 503.85 759.04 475.25 777 452.55Z" />
			<text id=" " style="transform: matrix(1,0,0,1,1107,758)" >
			</text>
			<text id="IAS " style="transform: matrix(1.13,0,0,1.206,1065.614,566.774)" >
				<tspan x="-212.986" y="0" class="txt1" dx="0 6 6 6" >IAS
</tspan>
			</text>
			<text id="Study Hub " style="transform: matrix(1.13,0,0,1.206,1294.921,458.219)" >
				<tspan x="0" y="0" class="txt2">Study</tspan><tspan  y="0" class="txt3">
</tspan>
				<tspan x="0" y="100" class="txt2">Hub
</tspan>
			</text>
		</g>
	</g>
</svg>